  0
SECTION
  2
HEADER
  9
$ACADVER
  1
AC1009
  9
$EXTMIN
 10
0.0
 20
0.0
 30
0.0
  9
$EXTMAX
 10
1000.0
 20
1000.0
 30
0.0
  9
$FILLMODE
 70
 0
  9
$SPLFRAME
 70
 1
  0
ENDSEC
  0
SECTION
  2
TABLES
  0
TABLE
  2
LAYER
 70
1
  0
LAYER
  2
0
 70
     0
 62
     7
  6
CONTINUOUS
  0
ENDTAB
  0
ENDSEC
  0
SECTION
  2
ENTITIES
  0
LINE
  8
0
 62
     0
 10
292.844
 20
124.406
 30
0.0
 11
293.08
 21
124.397
 31
0.0
  0
LINE
  8
0
 62
     0
 10
293.08
 20
124.397
 30
0.0
 11
293.314
 21
124.371
 31
0.0
  0
LINE
  8
0
 62
     0
 10
293.314
 20
124.371
 30
0.0
 11
293.544
 21
124.324
 31
0.0
  0
LINE
  8
0
 62
     0
 10
293.544
 20
124.324
 30
0.0
 11
293.771
 21
124.26
 31
0.0
  0
LINE
  8
0
 62
     0
 10
293.771
 20
124.26
 30
0.0
 11
293.992
 21
124.179
 31
0.0
  0
LINE
  8
0
 62
     0
 10
293.992
 20
124.179
 30
0.0
 11
294.206
 21
124.08
 31
0.0
  0
LINE
  8
0
 62
     0
 10
294.206
 20
124.08
 30
0.0
 11
294.412
 21
123.964
 31
0.0
  0
LINE
  8
0
 62
     0
 10
294.412
 20
123.964
 30
0.0
 11
294.608
 21
123.835
 31
0.0
  0
LINE
  8
0
 62
     0
 10
294.608
 20
123.835
 30
0.0
 11
294.793
 21
123.688
 31
0.0
  0
LINE
  8
0
 62
     0
 10
294.793
 20
123.688
 30
0.0
 11
294.966
 21
123.529
 31
0.0
  0
LINE
  8
0
 62
     0
 10
294.966
 20
123.529
 30
0.0
 11
295.126
 21
123.355
 31
0.0
  0
LINE
  8
0
 62
     0
 10
295.126
 20
123.355
 30
0.0
 11
295.272
 21
123.171
 31
0.0
  0
LINE
  8
0
 62
     0
 10
295.272
 20
123.171
 30
0.0
 11
295.402
 21
122.975
 31
0.0
  0
LINE
  8
0
 62
     0
 10
295.402
 20
122.975
 30
0.0
 11
295.518
 21
122.768
 31
0.0
  0
LINE
  8
0
 62
     0
 10
295.518
 20
122.768
 30
0.0
 11
295.615
 21
122.556
 31
0.0
  0
LINE
  8
0
 62
     0
 10
295.615
 20
122.556
 30
0.0
 11
295.698
 21
122.334
 31
0.0
  0
LINE
  8
0
 62
     0
 10
295.698
 20
122.334
 30
0.0
 11
295.761
 21
122.108
 31
0.0
  0
LINE
  8
0
 62
     0
 10
295.761
 20
122.108
 30
0.0
 11
295.808
 21
121.877
 31
0.0
  0
LINE
  8
0
 62
     0
 10
295.808
 20
121.877
 30
0.0
 11
295.835
 21
121.642
 31
0.0
  0
LINE
  8
0
 62
     0
 10
295.835
 20
121.642
 30
0.0
 11
295.844
 21
121.407
 31
0.0
  0
LINE
  8
0
 62
     0
 10
295.844
 20
121.407
 30
0.0
 11
295.844
 21
3.1061
 31
0.0
  0
LINE
  8
0
 62
     0
 10
295.844
 20
3.1061
 30
0.0
 11
295.835
 21
2.87045
 31
0.0
  0
LINE
  8
0
 62
     0
 10
295.835
 20
2.87045
 30
0.0
 11
295.808
 21
2.63619
 31
0.0
  0
LINE
  8
0
 62
     0
 10
295.808
 20
2.63619
 30
0.0
 11
295.761
 21
2.40605
 31
0.0
  0
LINE
  8
0
 62
     0
 10
295.761
 20
2.40605
 30
0.0
 11
295.698
 21
2.17868
 31
0.0
  0
LINE
  8
0
 62
     0
 10
295.698
 20
2.17868
 30
0.0
 11
295.615
 21
1.95682
 31
0.0
  0
LINE
  8
0
 62
     0
 10
295.615
 20
1.95682
 30
0.0
 11
295.518
 21
1.7446
 31
0.0
  0
LINE
  8
0
 62
     0
 10
295.518
 20
1.7446
 30
0.0
 11
295.402
 21
1.53789
 31
0.0
  0
LINE
  8
0
 62
     0
 10
295.402
 20
1.53789
 30
0.0
 11
295.272
 21
1.34221
 31
0.0
  0
LINE
  8
0
 62
     0
 10
295.272
 20
1.34221
 30
0.0
 11
295.126
 21
1.15755
 31
0.0
  0
LINE
  8
0
 62
     0
 10
295.126
 20
1.15755
 30
0.0
 11
294.966
 21
0.983918
 31
0.0
  0
LINE
  8
0
 62
     0
 10
294.966
 20
0.983918
 30
0.0
 11
294.793
 21
0.824068
 31
0.0
  0
LINE
  8
0
 62
     0
 10
294.793
 20
0.824068
 30
0.0
 11
294.608
 21
0.677997
 31
0.0
  0
LINE
  8
0
 62
     0
 10
294.608
 20
0.677997
 30
0.0
 11
294.412
 21
0.54846
 31
0.0
  0
LINE
  8
0
 62
     0
 10
294.412
 20
0.54846
 30
0.0
 11
294.206
 21
0.432703
 31
0.0
  0
LINE
  8
0
 62
     0
 10
294.206
 20
0.432703
 30
0.0
 11
293.992
 21
0.334863
 31
0.0
  0
LINE
  8
0
 62
     0
 10
293.992
 20
0.334863
 30
0.0
 11
293.771
 21
0.252181
 31
0.0
  0
LINE
  8
0
 62
     0
 10
293.771
 20
0.252181
 30
0.0
 11
293.544
 21
0.188791
 31
0.0
  0
LINE
  8
0
 62
     0
 10
293.544
 20
0.188791
 30
0.0
 11
293.314
 21
0.141938
 31
0.0
  0
LINE
  8
0
 62
     0
 10
293.314
 20
0.141938
 30
0.0
 11
293.08
 21
0.115755
 31
0.0
  0
LINE
  8
0
 62
     0
 10
293.08
 20
0.115755
 30
0.0
 11
292.844
 21
0.106109
 31
0.0
  0
LINE
  8
0
 62
     0
 10
292.844
 20
0.106109
 30
0.0
 11
3.0937
 21
0.106109
 31
0.0
  0
LINE
  8
0
 62
     0
 10
3.0937
 20
0.106109
 30
0.0
 11
2.85805
 21
0.115755
 31
0.0
  0
LINE
  8
0
 62
     0
 10
2.85805
 20
0.115755
 30
0.0
 11
2.62378
 21
0.141938
 31
0.0
  0
LINE
  8
0
 62
     0
 10
2.62378
 20
0.141938
 30
0.0
 11
2.39227
 21
0.188791
 31
0.0
  0
LINE
  8
0
 62
     0
 10
2.39227
 20
0.188791
 30
0.0
 11
2.16628
 21
0.252181
 31
0.0
  0
LINE
  8
0
 62
     0
 10
2.16628
 20
0.252181
 30
0.0
 11
1.94441
 21
0.334863
 31
0.0
  0
LINE
  8
0
 62
     0
 10
1.94441
 20
0.334863
 30
0.0
 11
1.7322
 21
0.432703
 31
0.0
  0
LINE
  8
0
 62
     0
 10
1.7322
 20
0.432703
 30
0.0
 11
1.52549
 21
0.54846
 31
0.0
  0
LINE
  8
0
 62
     0
 10
1.52549
 20
0.54846
 30
0.0
 11
1.32981
 21
0.677997
 31
0.0
  0
LINE
  8
0
 62
     0
 10
1.32981
 20
0.677997
 30
0.0
 11
1.14515
 21
0.824068
 31
0.0
  0
LINE
  8
0
 62
     0
 10
1.14515
 20
0.824068
 30
0.0
 11
0.971518
 21
0.983918
 31
0.0
  0
LINE
  8
0
 62
     0
 10
0.971518
 20
0.983918
 30
0.0
 11
0.811664
 21
1.15755
 31
0.0
  0
LINE
  8
0
 62
     0
 10
0.811664
 20
1.15755
 30
0.0
 11
0.665593
 21
1.34221
 31
0.0
  0
LINE
  8
0
 62
     0
 10
0.665593
 20
1.34221
 30
0.0
 11
0.536056
 21
1.53789
 31
0.0
  0
LINE
  8
0
 62
     0
 10
0.536056
 20
1.53789
 30
0.0
 11
0.420303
 21
1.7446
 31
0.0
  0
LINE
  8
0
 62
     0
 10
0.420303
 20
1.7446
 30
0.0
 11
0.321083
 21
1.95682
 31
0.0
  0
LINE
  8
0
 62
     0
 10
0.321083
 20
1.95682
 30
0.0
 11
0.239779
 21
2.17868
 31
0.0
  0
LINE
  8
0
 62
     0
 10
0.239779
 20
2.17868
 30
0.0
 11
0.176389
 21
2.40605
 31
0.0
  0
LINE
  8
0
 62
     0
 10
0.176389
 20
2.40605
 30
0.0
 11
0.129536
 21
2.63619
 31
0.0
  0
LINE
  8
0
 62
     0
 10
0.129536
 20
2.63619
 30
0.0
 11
0.103353
 21
2.87045
 31
0.0
  0
LINE
  8
0
 62
     0
 10
0.103353
 20
2.87045
 30
0.0
 11
0.0923286
 21
3.1061
 31
0.0
  0
LINE
  8
0
 62
     0
 10
0.0923286
 20
3.1061
 30
0.0
 11
0.0937066
 21
121.407
 31
0.0
  0
LINE
  8
0
 62
     0
 10
0.0937066
 20
121.407
 30
0.0
 11
0.103353
 21
121.642
 31
0.0
  0
LINE
  8
0
 62
     0
 10
0.103353
 20
121.642
 30
0.0
 11
0.129536
 21
121.877
 31
0.0
  0
LINE
  8
0
 62
     0
 10
0.129536
 20
121.877
 30
0.0
 11
0.176389
 21
122.108
 31
0.0
  0
LINE
  8
0
 62
     0
 10
0.176389
 20
122.108
 30
0.0
 11
0.239779
 21
122.334
 31
0.0
  0
LINE
  8
0
 62
     0
 10
0.239779
 20
122.334
 30
0.0
 11
0.321083
 21
122.556
 31
0.0
  0
LINE
  8
0
 62
     0
 10
0.321083
 20
122.556
 30
0.0
 11
0.420303
 21
122.768
 31
0.0
  0
LINE
  8
0
 62
     0
 10
0.420303
 20
122.768
 30
0.0
 11
0.536056
 21
122.975
 31
0.0
  0
LINE
  8
0
 62
     0
 10
0.536056
 20
122.975
 30
0.0
 11
0.665593
 21
123.171
 31
0.0
  0
LINE
  8
0
 62
     0
 10
0.665593
 20
123.171
 30
0.0
 11
0.811664
 21
123.355
 31
0.0
  0
LINE
  8
0
 62
     0
 10
0.811664
 20
123.355
 30
0.0
 11
0.971518
 21
123.529
 31
0.0
  0
LINE
  8
0
 62
     0
 10
0.971518
 20
123.529
 30
0.0
 11
1.14515
 21
123.688
 31
0.0
  0
LINE
  8
0
 62
     0
 10
1.14515
 20
123.688
 30
0.0
 11
1.32981
 21
123.835
 31
0.0
  0
LINE
  8
0
 62
     0
 10
1.32981
 20
123.835
 30
0.0
 11
1.52549
 21
123.964
 31
0.0
  0
LINE
  8
0
 62
     0
 10
1.52549
 20
123.964
 30
0.0
 11
1.7322
 21
124.08
 31
0.0
  0
LINE
  8
0
 62
     0
 10
1.7322
 20
124.08
 30
0.0
 11
1.94441
 21
124.179
 31
0.0
  0
LINE
  8
0
 62
     0
 10
1.94441
 20
124.179
 30
0.0
 11
2.16628
 21
124.26
 31
0.0
  0
LINE
  8
0
 62
     0
 10
2.16628
 20
124.26
 30
0.0
 11
2.39227
 21
124.324
 31
0.0
  0
LINE
  8
0
 62
     0
 10
2.39227
 20
124.324
 30
0.0
 11
2.62378
 21
124.371
 31
0.0
  0
LINE
  8
0
 62
     0
 10
2.62378
 20
124.371
 30
0.0
 11
2.85805
 21
124.397
 31
0.0
  0
LINE
  8
0
 62
     0
 10
2.85805
 20
124.397
 30
0.0
 11
3.0937
 21
124.408
 31
0.0
  0
LINE
  8
0
 62
     0
 10
3.0937
 20
124.408
 30
0.0
 11
292.844
 21
124.406
 31
0.0
  0
LINE
  8
0
 62
     0
 10
102.869
 20
21.6324
 30
0.0
 11
102.869
 21
20.632
 31
0.0
  0
LINE
  8
0
 62
     0
 10
102.869
 20
20.632
 30
0.0
 11
102.068
 21
20.632
 31
0.0
  0
LINE
  8
0
 62
     0
 10
102.068
 20
20.632
 30
0.0
 11
102.068
 21
17.5328
 31
0.0
  0
LINE
  8
0
 62
     0
 10
102.068
 20
17.5328
 30
0.0
 11
102.869
 21
17.5328
 31
0.0
  0
LINE
  8
0
 62
     0
 10
102.869
 20
17.5328
 30
0.0
 11
102.869
 21
16.932
 31
0.0
  0
LINE
  8
0
 62
     0
 10
102.869
 20
16.932
 30
0.0
 11
94.1433
 21
16.932
 31
0.0
  0
LINE
  8
0
 62
     0
 10
94.1433
 20
16.932
 30
0.0
 11
94.1433
 21
20.1621
 31
0.0
  0
LINE
  8
0
 62
     0
 10
94.1433
 20
20.1621
 30
0.0
 11
92.4691
 21
20.1621
 31
0.0
  0
LINE
  8
0
 62
     0
 10
92.4691
 20
20.1621
 30
0.0
 11
92.4691
 21
21.0826
 31
0.0
  0
LINE
  8
0
 62
     0
 10
92.4691
 20
21.0826
 30
0.0
 11
89.1688
 21
21.0826
 31
0.0
  0
LINE
  8
0
 62
     0
 10
89.1688
 20
21.0826
 30
0.0
 11
89.1688
 21
20.1621
 31
0.0
  0
LINE
  8
0
 62
     0
 10
89.1688
 20
20.1621
 30
0.0
 11
87.4945
 21
20.1621
 31
0.0
  0
LINE
  8
0
 62
     0
 10
87.4945
 20
20.1621
 30
0.0
 11
87.4945
 21
16.932
 31
0.0
  0
LINE
  8
0
 62
     0
 10
87.4945
 20
16.932
 30
0.0
 11
86.6193
 21
16.932
 31
0.0
  0
LINE
  8
0
 62
     0
 10
86.6193
 20
16.932
 30
0.0
 11
86.6193
 21
14.1332
 31
0.0
  0
LINE
  8
0
 62
     0
 10
86.6193
 20
14.1332
 30
0.0
 11
87.4945
 21
14.1332
 31
0.0
  0
LINE
  8
0
 62
     0
 10
87.4945
 20
14.1332
 30
0.0
 11
87.4945
 21
7.8631
 31
0.0
  0
LINE
  8
0
 62
     0
 10
87.4945
 20
7.8631
 30
0.0
 11
89.1688
 21
7.8631
 31
0.0
  0
LINE
  8
0
 62
     0
 10
89.1688
 20
7.8631
 30
0.0
 11
89.1688
 21
6.88192
 31
0.0
  0
LINE
  8
0
 62
     0
 10
89.1688
 20
6.88192
 30
0.0
 11
92.4691
 21
6.88192
 31
0.0
  0
LINE
  8
0
 62
     0
 10
92.4691
 20
6.88192
 30
0.0
 11
92.4691
 21
7.8631
 31
0.0
  0
LINE
  8
0
 62
     0
 10
92.4691
 20
7.8631
 30
0.0
 11
94.1433
 21
7.8631
 31
0.0
  0
LINE
  8
0
 62
     0
 10
94.1433
 20
7.8631
 30
0.0
 11
94.1433
 21
12.3321
 31
0.0
  0
LINE
  8
0
 62
     0
 10
94.1433
 20
12.3321
 30
0.0
 11
102.869
 21
12.3321
 31
0.0
  0
LINE
  8
0
 62
     0
 10
102.869
 20
12.3321
 30
0.0
 11
102.869
 21
11.7312
 31
0.0
  0
LINE
  8
0
 62
     0
 10
102.869
 20
11.7312
 30
0.0
 11
102.068
 21
11.7312
 31
0.0
  0
LINE
  8
0
 62
     0
 10
102.068
 20
11.7312
 30
0.0
 11
102.068
 21
8.63205
 31
0.0
  0
LINE
  8
0
 62
     0
 10
102.068
 20
8.63205
 30
0.0
 11
102.869
 21
8.63205
 31
0.0
  0
LINE
  8
0
 62
     0
 10
102.869
 20
8.63205
 30
0.0
 11
102.869
 21
7.63295
 31
0.0
  0
LINE
  8
0
 62
     0
 10
102.869
 20
7.63295
 30
0.0
 11
116.869
 21
7.63295
 31
0.0
  0
LINE
  8
0
 62
     0
 10
116.869
 20
7.63295
 30
0.0
 11
116.869
 21
8.63205
 31
0.0
  0
LINE
  8
0
 62
     0
 10
116.869
 20
8.63205
 30
0.0
 11
117.669
 21
8.63205
 31
0.0
  0
LINE
  8
0
 62
     0
 10
117.669
 20
8.63205
 30
0.0
 11
117.669
 21
11.7312
 31
0.0
  0
LINE
  8
0
 62
     0
 10
117.669
 20
11.7312
 30
0.0
 11
116.869
 21
11.7312
 31
0.0
  0
LINE
  8
0
 62
     0
 10
116.869
 20
11.7312
 30
0.0
 11
116.869
 21
12.3321
 31
0.0
  0
LINE
  8
0
 62
     0
 10
116.869
 20
12.3321
 30
0.0
 11
125.595
 21
12.3321
 31
0.0
  0
LINE
  8
0
 62
     0
 10
125.595
 20
12.3321
 30
0.0
 11
125.595
 21
7.8631
 31
0.0
  0
LINE
  8
0
 62
     0
 10
125.595
 20
7.8631
 30
0.0
 11
127.269
 21
7.8631
 31
0.0
  0
LINE
  8
0
 62
     0
 10
127.269
 20
7.8631
 30
0.0
 11
127.269
 21
6.88192
 31
0.0
  0
LINE
  8
0
 62
     0
 10
127.269
 20
6.88192
 30
0.0
 11
130.569
 21
6.88192
 31
0.0
  0
LINE
  8
0
 62
     0
 10
130.569
 20
6.88192
 30
0.0
 11
130.569
 21
7.8631
 31
0.0
  0
LINE
  8
0
 62
     0
 10
130.569
 20
7.8631
 30
0.0
 11
132.243
 21
7.8631
 31
0.0
  0
LINE
  8
0
 62
     0
 10
132.243
 20
7.8631
 30
0.0
 11
132.243
 21
14.1332
 31
0.0
  0
LINE
  8
0
 62
     0
 10
132.243
 20
14.1332
 30
0.0
 11
133.119
 21
14.1332
 31
0.0
  0
LINE
  8
0
 62
     0
 10
133.119
 20
14.1332
 30
0.0
 11
133.119
 21
16.932
 31
0.0
  0
LINE
  8
0
 62
     0
 10
133.119
 20
16.932
 30
0.0
 11
132.243
 21
16.932
 31
0.0
  0
LINE
  8
0
 62
     0
 10
132.243
 20
16.932
 30
0.0
 11
132.243
 21
20.1621
 31
0.0
  0
LINE
  8
0
 62
     0
 10
132.243
 20
20.1621
 30
0.0
 11
130.569
 21
20.1621
 31
0.0
  0
LINE
  8
0
 62
     0
 10
130.569
 20
20.1621
 30
0.0
 11
130.569
 21
21.0826
 31
0.0
  0
LINE
  8
0
 62
     0
 10
130.569
 20
21.0826
 30
0.0
 11
127.269
 21
21.0826
 31
0.0
  0
LINE
  8
0
 62
     0
 10
127.269
 20
21.0826
 30
0.0
 11
127.269
 21
20.1621
 31
0.0
  0
LINE
  8
0
 62
     0
 10
127.269
 20
20.1621
 30
0.0
 11
125.595
 21
20.1621
 31
0.0
  0
LINE
  8
0
 62
     0
 10
125.595
 20
20.1621
 30
0.0
 11
125.595
 21
16.932
 31
0.0
  0
LINE
  8
0
 62
     0
 10
125.595
 20
16.932
 30
0.0
 11
116.869
 21
16.932
 31
0.0
  0
LINE
  8
0
 62
     0
 10
116.869
 20
16.932
 30
0.0
 11
116.869
 21
17.5328
 31
0.0
  0
LINE
  8
0
 62
     0
 10
116.869
 20
17.5328
 30
0.0
 11
117.669
 21
17.5328
 31
0.0
  0
LINE
  8
0
 62
     0
 10
117.669
 20
17.5328
 30
0.0
 11
117.669
 21
20.632
 31
0.0
  0
LINE
  8
0
 62
     0
 10
117.669
 20
20.632
 30
0.0
 11
116.869
 21
20.632
 31
0.0
  0
LINE
  8
0
 62
     0
 10
116.869
 20
20.632
 30
0.0
 11
116.869
 21
21.6324
 31
0.0
  0
LINE
  8
0
 62
     0
 10
116.869
 20
21.6324
 30
0.0
 11
102.869
 21
21.6324
 31
0.0
  0
LINE
  8
0
 62
     0
 10
160.019
 20
21.6324
 30
0.0
 11
160.019
 21
20.632
 31
0.0
  0
LINE
  8
0
 62
     0
 10
160.019
 20
20.632
 30
0.0
 11
159.218
 21
20.632
 31
0.0
  0
LINE
  8
0
 62
     0
 10
159.218
 20
20.632
 30
0.0
 11
159.218
 21
17.5328
 31
0.0
  0
LINE
  8
0
 62
     0
 10
159.218
 20
17.5328
 30
0.0
 11
160.019
 21
17.5328
 31
0.0
  0
LINE
  8
0
 62
     0
 10
160.019
 20
17.5328
 30
0.0
 11
160.019
 21
16.932
 31
0.0
  0
LINE
  8
0
 62
     0
 10
160.019
 20
16.932
 30
0.0
 11
151.293
 21
16.932
 31
0.0
  0
LINE
  8
0
 62
     0
 10
151.293
 20
16.932
 30
0.0
 11
151.293
 21
20.1621
 31
0.0
  0
LINE
  8
0
 62
     0
 10
151.293
 20
20.1621
 30
0.0
 11
149.619
 21
20.1621
 31
0.0
  0
LINE
  8
0
 62
     0
 10
149.619
 20
20.1621
 30
0.0
 11
149.619
 21
21.0826
 31
0.0
  0
LINE
  8
0
 62
     0
 10
149.619
 20
21.0826
 30
0.0
 11
146.319
 21
21.0826
 31
0.0
  0
LINE
  8
0
 62
     0
 10
146.319
 20
21.0826
 30
0.0
 11
146.319
 21
20.1621
 31
0.0
  0
LINE
  8
0
 62
     0
 10
146.319
 20
20.1621
 30
0.0
 11
144.645
 21
20.1621
 31
0.0
  0
LINE
  8
0
 62
     0
 10
144.645
 20
20.1621
 30
0.0
 11
144.645
 21
16.932
 31
0.0
  0
LINE
  8
0
 62
     0
 10
144.645
 20
16.932
 30
0.0
 11
143.769
 21
16.932
 31
0.0
  0
LINE
  8
0
 62
     0
 10
143.769
 20
16.932
 30
0.0
 11
143.769
 21
14.1332
 31
0.0
  0
LINE
  8
0
 62
     0
 10
143.769
 20
14.1332
 30
0.0
 11
144.645
 21
14.1332
 31
0.0
  0
LINE
  8
0
 62
     0
 10
144.645
 20
14.1332
 30
0.0
 11
144.645
 21
7.8631
 31
0.0
  0
LINE
  8
0
 62
     0
 10
144.645
 20
7.8631
 30
0.0
 11
146.319
 21
7.8631
 31
0.0
  0
LINE
  8
0
 62
     0
 10
146.319
 20
7.8631
 30
0.0
 11
146.319
 21
6.88192
 31
0.0
  0
LINE
  8
0
 62
     0
 10
146.319
 20
6.88192
 30
0.0
 11
149.619
 21
6.88192
 31
0.0
  0
LINE
  8
0
 62
     0
 10
149.619
 20
6.88192
 30
0.0
 11
149.619
 21
7.8631
 31
0.0
  0
LINE
  8
0
 62
     0
 10
149.619
 20
7.8631
 30
0.0
 11
151.293
 21
7.8631
 31
0.0
  0
LINE
  8
0
 62
     0
 10
151.293
 20
7.8631
 30
0.0
 11
151.293
 21
12.3321
 31
0.0
  0
LINE
  8
0
 62
     0
 10
151.293
 20
12.3321
 30
0.0
 11
160.019
 21
12.3321
 31
0.0
  0
LINE
  8
0
 62
     0
 10
160.019
 20
12.3321
 30
0.0
 11
160.019
 21
11.7312
 31
0.0
  0
LINE
  8
0
 62
     0
 10
160.019
 20
11.7312
 30
0.0
 11
159.218
 21
11.7312
 31
0.0
  0
LINE
  8
0
 62
     0
 10
159.218
 20
11.7312
 30
0.0
 11
159.218
 21
8.63205
 31
0.0
  0
LINE
  8
0
 62
     0
 10
159.218
 20
8.63205
 30
0.0
 11
160.019
 21
8.63205
 31
0.0
  0
LINE
  8
0
 62
     0
 10
160.019
 20
8.63205
 30
0.0
 11
160.019
 21
7.63295
 31
0.0
  0
LINE
  8
0
 62
     0
 10
160.019
 20
7.63295
 30
0.0
 11
174.019
 21
7.63295
 31
0.0
  0
LINE
  8
0
 62
     0
 10
174.019
 20
7.63295
 30
0.0
 11
174.019
 21
8.63205
 31
0.0
  0
LINE
  8
0
 62
     0
 10
174.019
 20
8.63205
 30
0.0
 11
174.819
 21
8.63205
 31
0.0
  0
LINE
  8
0
 62
     0
 10
174.819
 20
8.63205
 30
0.0
 11
174.819
 21
11.7312
 31
0.0
  0
LINE
  8
0
 62
     0
 10
174.819
 20
11.7312
 30
0.0
 11
174.019
 21
11.7312
 31
0.0
  0
LINE
  8
0
 62
     0
 10
174.019
 20
11.7312
 30
0.0
 11
174.019
 21
12.3321
 31
0.0
  0
LINE
  8
0
 62
     0
 10
174.019
 20
12.3321
 30
0.0
 11
182.745
 21
12.3321
 31
0.0
  0
LINE
  8
0
 62
     0
 10
182.745
 20
12.3321
 30
0.0
 11
182.745
 21
7.8631
 31
0.0
  0
LINE
  8
0
 62
     0
 10
182.745
 20
7.8631
 30
0.0
 11
184.419
 21
7.8631
 31
0.0
  0
LINE
  8
0
 62
     0
 10
184.419
 20
7.8631
 30
0.0
 11
184.419
 21
6.88192
 31
0.0
  0
LINE
  8
0
 62
     0
 10
184.419
 20
6.88192
 30
0.0
 11
187.719
 21
6.88192
 31
0.0
  0
LINE
  8
0
 62
     0
 10
187.719
 20
6.88192
 30
0.0
 11
187.719
 21
7.8631
 31
0.0
  0
LINE
  8
0
 62
     0
 10
187.719
 20
7.8631
 30
0.0
 11
189.393
 21
7.8631
 31
0.0
  0
LINE
  8
0
 62
     0
 10
189.393
 20
7.8631
 30
0.0
 11
189.393
 21
14.1332
 31
0.0
  0
LINE
  8
0
 62
     0
 10
189.393
 20
14.1332
 30
0.0
 11
190.269
 21
14.1332
 31
0.0
  0
LINE
  8
0
 62
     0
 10
190.269
 20
14.1332
 30
0.0
 11
190.269
 21
16.932
 31
0.0
  0
LINE
  8
0
 62
     0
 10
190.269
 20
16.932
 30
0.0
 11
189.393
 21
16.932
 31
0.0
  0
LINE
  8
0
 62
     0
 10
189.393
 20
16.932
 30
0.0
 11
189.393
 21
20.1621
 31
0.0
  0
LINE
  8
0
 62
     0
 10
189.393
 20
20.1621
 30
0.0
 11
187.719
 21
20.1621
 31
0.0
  0
LINE
  8
0
 62
     0
 10
187.719
 20
20.1621
 30
0.0
 11
187.719
 21
21.0826
 31
0.0
  0
LINE
  8
0
 62
     0
 10
187.719
 20
21.0826
 30
0.0
 11
184.419
 21
21.0826
 31
0.0
  0
LINE
  8
0
 62
     0
 10
184.419
 20
21.0826
 30
0.0
 11
184.419
 21
20.1621
 31
0.0
  0
LINE
  8
0
 62
     0
 10
184.419
 20
20.1621
 30
0.0
 11
182.745
 21
20.1621
 31
0.0
  0
LINE
  8
0
 62
     0
 10
182.745
 20
20.1621
 30
0.0
 11
182.745
 21
16.932
 31
0.0
  0
LINE
  8
0
 62
     0
 10
182.745
 20
16.932
 30
0.0
 11
174.019
 21
16.932
 31
0.0
  0
LINE
  8
0
 62
     0
 10
174.019
 20
16.932
 30
0.0
 11
174.019
 21
17.5328
 31
0.0
  0
LINE
  8
0
 62
     0
 10
174.019
 20
17.5328
 30
0.0
 11
174.819
 21
17.5328
 31
0.0
  0
LINE
  8
0
 62
     0
 10
174.819
 20
17.5328
 30
0.0
 11
174.819
 21
20.632
 31
0.0
  0
LINE
  8
0
 62
     0
 10
174.819
 20
20.632
 30
0.0
 11
174.019
 21
20.632
 31
0.0
  0
LINE
  8
0
 62
     0
 10
174.019
 20
20.632
 30
0.0
 11
174.019
 21
21.6324
 31
0.0
  0
LINE
  8
0
 62
     0
 10
174.019
 20
21.6324
 30
0.0
 11
160.019
 21
21.6324
 31
0.0
  0
LINE
  8
0
 62
     0
 10
207.644
 20
21.6324
 30
0.0
 11
207.644
 21
20.632
 31
0.0
  0
LINE
  8
0
 62
     0
 10
207.644
 20
20.632
 30
0.0
 11
206.843
 21
20.632
 31
0.0
  0
LINE
  8
0
 62
     0
 10
206.843
 20
20.632
 30
0.0
 11
206.843
 21
17.5328
 31
0.0
  0
LINE
  8
0
 62
     0
 10
206.843
 20
17.5328
 30
0.0
 11
207.644
 21
17.5328
 31
0.0
  0
LINE
  8
0
 62
     0
 10
207.644
 20
17.5328
 30
0.0
 11
207.644
 21
16.932
 31
0.0
  0
LINE
  8
0
 62
     0
 10
207.644
 20
16.932
 30
0.0
 11
206.069
 21
16.932
 31
0.0
  0
LINE
  8
0
 62
     0
 10
206.069
 20
16.932
 30
0.0
 11
206.069
 21
20.1621
 31
0.0
  0
LINE
  8
0
 62
     0
 10
206.069
 20
20.1621
 30
0.0
 11
204.393
 21
20.1621
 31
0.0
  0
LINE
  8
0
 62
     0
 10
204.393
 20
20.1621
 30
0.0
 11
204.393
 21
21.0826
 31
0.0
  0
LINE
  8
0
 62
     0
 10
204.393
 20
21.0826
 30
0.0
 11
201.094
 21
21.0826
 31
0.0
  0
LINE
  8
0
 62
     0
 10
201.094
 20
21.0826
 30
0.0
 11
201.094
 21
20.1621
 31
0.0
  0
LINE
  8
0
 62
     0
 10
201.094
 20
20.1621
 30
0.0
 11
199.419
 21
20.1621
 31
0.0
  0
LINE
  8
0
 62
     0
 10
199.419
 20
20.1621
 30
0.0
 11
199.419
 21
16.932
 31
0.0
  0
LINE
  8
0
 62
     0
 10
199.419
 20
16.932
 30
0.0
 11
198.544
 21
16.932
 31
0.0
  0
LINE
  8
0
 62
     0
 10
198.544
 20
16.932
 30
0.0
 11
198.544
 21
14.1332
 31
0.0
  0
LINE
  8
0
 62
     0
 10
198.544
 20
14.1332
 30
0.0
 11
199.419
 21
14.1332
 31
0.0
  0
LINE
  8
0
 62
     0
 10
199.419
 20
14.1332
 30
0.0
 11
199.419
 21
7.8631
 31
0.0
  0
LINE
  8
0
 62
     0
 10
199.419
 20
7.8631
 30
0.0
 11
201.094
 21
7.8631
 31
0.0
  0
LINE
  8
0
 62
     0
 10
201.094
 20
7.8631
 30
0.0
 11
201.094
 21
6.88192
 31
0.0
  0
LINE
  8
0
 62
     0
 10
201.094
 20
6.88192
 30
0.0
 11
204.393
 21
6.88192
 31
0.0
  0
LINE
  8
0
 62
     0
 10
204.393
 20
6.88192
 30
0.0
 11
204.393
 21
7.8631
 31
0.0
  0
LINE
  8
0
 62
     0
 10
204.393
 20
7.8631
 30
0.0
 11
206.069
 21
7.8631
 31
0.0
  0
LINE
  8
0
 62
     0
 10
206.069
 20
7.8631
 30
0.0
 11
206.069
 21
12.3321
 31
0.0
  0
LINE
  8
0
 62
     0
 10
206.069
 20
12.3321
 30
0.0
 11
207.644
 21
12.3321
 31
0.0
  0
LINE
  8
0
 62
     0
 10
207.644
 20
12.3321
 30
0.0
 11
207.644
 21
11.7312
 31
0.0
  0
LINE
  8
0
 62
     0
 10
207.644
 20
11.7312
 30
0.0
 11
206.843
 21
11.7312
 31
0.0
  0
LINE
  8
0
 62
     0
 10
206.843
 20
11.7312
 30
0.0
 11
206.843
 21
8.63205
 31
0.0
  0
LINE
  8
0
 62
     0
 10
206.843
 20
8.63205
 30
0.0
 11
207.644
 21
8.63205
 31
0.0
  0
LINE
  8
0
 62
     0
 10
207.644
 20
8.63205
 30
0.0
 11
207.644
 21
7.63295
 31
0.0
  0
LINE
  8
0
 62
     0
 10
207.644
 20
7.63295
 30
0.0
 11
221.644
 21
7.63295
 31
0.0
  0
LINE
  8
0
 62
     0
 10
221.644
 20
7.63295
 30
0.0
 11
221.644
 21
8.63205
 31
0.0
  0
LINE
  8
0
 62
     0
 10
221.644
 20
8.63205
 30
0.0
 11
222.444
 21
8.63205
 31
0.0
  0
LINE
  8
0
 62
     0
 10
222.444
 20
8.63205
 30
0.0
 11
222.444
 21
11.7312
 31
0.0
  0
LINE
  8
0
 62
     0
 10
222.444
 20
11.7312
 30
0.0
 11
221.644
 21
11.7312
 31
0.0
  0
LINE
  8
0
 62
     0
 10
221.644
 20
11.7312
 30
0.0
 11
221.644
 21
12.3321
 31
0.0
  0
LINE
  8
0
 62
     0
 10
221.644
 20
12.3321
 30
0.0
 11
223.219
 21
12.3321
 31
0.0
  0
LINE
  8
0
 62
     0
 10
223.219
 20
12.3321
 30
0.0
 11
223.219
 21
7.8631
 31
0.0
  0
LINE
  8
0
 62
     0
 10
223.219
 20
7.8631
 30
0.0
 11
224.893
 21
7.8631
 31
0.0
  0
LINE
  8
0
 62
     0
 10
224.893
 20
7.8631
 30
0.0
 11
224.893
 21
6.88192
 31
0.0
  0
LINE
  8
0
 62
     0
 10
224.893
 20
6.88192
 30
0.0
 11
228.194
 21
6.88192
 31
0.0
  0
LINE
  8
0
 62
     0
 10
228.194
 20
6.88192
 30
0.0
 11
228.194
 21
7.8631
 31
0.0
  0
LINE
  8
0
 62
     0
 10
228.194
 20
7.8631
 30
0.0
 11
229.869
 21
7.8631
 31
0.0
  0
LINE
  8
0
 62
     0
 10
229.869
 20
7.8631
 30
0.0
 11
229.869
 21
14.1332
 31
0.0
  0
LINE
  8
0
 62
     0
 10
229.869
 20
14.1332
 30
0.0
 11
230.744
 21
14.1332
 31
0.0
  0
LINE
  8
0
 62
     0
 10
230.744
 20
14.1332
 30
0.0
 11
230.744
 21
16.932
 31
0.0
  0
LINE
  8
0
 62
     0
 10
230.744
 20
16.932
 30
0.0
 11
229.869
 21
16.932
 31
0.0
  0
LINE
  8
0
 62
     0
 10
229.869
 20
16.932
 30
0.0
 11
229.869
 21
20.1621
 31
0.0
  0
LINE
  8
0
 62
     0
 10
229.869
 20
20.1621
 30
0.0
 11
228.194
 21
20.1621
 31
0.0
  0
LINE
  8
0
 62
     0
 10
228.194
 20
20.1621
 30
0.0
 11
228.194
 21
21.0826
 31
0.0
  0
LINE
  8
0
 62
     0
 10
228.194
 20
21.0826
 30
0.0
 11
224.893
 21
21.0826
 31
0.0
  0
LINE
  8
0
 62
     0
 10
224.893
 20
21.0826
 30
0.0
 11
224.893
 21
20.1621
 31
0.0
  0
LINE
  8
0
 62
     0
 10
224.893
 20
20.1621
 30
0.0
 11
223.219
 21
20.1621
 31
0.0
  0
LINE
  8
0
 62
     0
 10
223.219
 20
20.1621
 30
0.0
 11
223.219
 21
16.932
 31
0.0
  0
LINE
  8
0
 62
     0
 10
223.219
 20
16.932
 30
0.0
 11
221.644
 21
16.932
 31
0.0
  0
LINE
  8
0
 62
     0
 10
221.644
 20
16.932
 30
0.0
 11
221.644
 21
17.5328
 31
0.0
  0
LINE
  8
0
 62
     0
 10
221.644
 20
17.5328
 30
0.0
 11
222.444
 21
17.5328
 31
0.0
  0
LINE
  8
0
 62
     0
 10
222.444
 20
17.5328
 30
0.0
 11
222.444
 21
20.632
 31
0.0
  0
LINE
  8
0
 62
     0
 10
222.444
 20
20.632
 30
0.0
 11
221.644
 21
20.632
 31
0.0
  0
LINE
  8
0
 62
     0
 10
221.644
 20
20.632
 30
0.0
 11
221.644
 21
21.6324
 31
0.0
  0
LINE
  8
0
 62
     0
 10
221.644
 20
21.6324
 30
0.0
 11
207.644
 21
21.6324
 31
0.0
  0
LINE
  8
0
 62
     0
 10
7.61781
 20
21.6324
 30
0.0
 11
7.61781
 21
20.632
 31
0.0
  0
LINE
  8
0
 62
     0
 10
7.61781
 20
20.632
 30
0.0
 11
6.81715
 21
20.632
 31
0.0
  0
LINE
  8
0
 62
     0
 10
6.81715
 20
20.632
 30
0.0
 11
6.81715
 21
17.5328
 31
0.0
  0
LINE
  8
0
 62
     0
 10
6.81715
 20
17.5328
 30
0.0
 11
7.61781
 21
17.5328
 31
0.0
  0
LINE
  8
0
 62
     0
 10
7.61781
 20
17.5328
 30
0.0
 11
7.61781
 21
11.7312
 31
0.0
  0
LINE
  8
0
 62
     0
 10
7.61781
 20
11.7312
 30
0.0
 11
6.81715
 21
11.7312
 31
0.0
  0
LINE
  8
0
 62
     0
 10
6.81715
 20
11.7312
 30
0.0
 11
6.81715
 21
8.63205
 31
0.0
  0
LINE
  8
0
 62
     0
 10
6.81715
 20
8.63205
 30
0.0
 11
7.61781
 21
8.63205
 31
0.0
  0
LINE
  8
0
 62
     0
 10
7.61781
 20
8.63205
 30
0.0
 11
7.61781
 21
7.63295
 31
0.0
  0
LINE
  8
0
 62
     0
 10
7.61781
 20
7.63295
 30
0.0
 11
21.6187
 21
7.63295
 31
0.0
  0
LINE
  8
0
 62
     0
 10
21.6187
 20
7.63295
 30
0.0
 11
21.6187
 21
8.63205
 31
0.0
  0
LINE
  8
0
 62
     0
 10
21.6187
 20
8.63205
 30
0.0
 11
22.4193
 21
8.63205
 31
0.0
  0
LINE
  8
0
 62
     0
 10
22.4193
 20
8.63205
 30
0.0
 11
22.4193
 21
11.7312
 31
0.0
  0
LINE
  8
0
 62
     0
 10
22.4193
 20
11.7312
 30
0.0
 11
21.6187
 21
11.7312
 31
0.0
  0
LINE
  8
0
 62
     0
 10
21.6187
 20
11.7312
 30
0.0
 11
21.6187
 21
17.5328
 31
0.0
  0
LINE
  8
0
 62
     0
 10
21.6187
 20
17.5328
 30
0.0
 11
22.4193
 21
17.5328
 31
0.0
  0
LINE
  8
0
 62
     0
 10
22.4193
 20
17.5328
 30
0.0
 11
22.4193
 21
20.632
 31
0.0
  0
LINE
  8
0
 62
     0
 10
22.4193
 20
20.632
 30
0.0
 11
21.6187
 21
20.632
 31
0.0
  0
LINE
  8
0
 62
     0
 10
21.6187
 20
20.632
 30
0.0
 11
21.6187
 21
21.6324
 31
0.0
  0
LINE
  8
0
 62
     0
 10
21.6187
 20
21.6324
 30
0.0
 11
7.61781
 21
21.6324
 31
0.0
  0
LINE
  8
0
 62
     0
 10
26.6692
 20
21.6324
 30
0.0
 11
26.6692
 21
20.632
 31
0.0
  0
LINE
  8
0
 62
     0
 10
26.6692
 20
20.632
 30
0.0
 11
25.8685
 21
20.632
 31
0.0
  0
LINE
  8
0
 62
     0
 10
25.8685
 20
20.632
 30
0.0
 11
25.8685
 21
17.5328
 31
0.0
  0
LINE
  8
0
 62
     0
 10
25.8685
 20
17.5328
 30
0.0
 11
26.6692
 21
17.5328
 31
0.0
  0
LINE
  8
0
 62
     0
 10
26.6692
 20
17.5328
 30
0.0
 11
26.6692
 21
11.7312
 31
0.0
  0
LINE
  8
0
 62
     0
 10
26.6692
 20
11.7312
 30
0.0
 11
25.8685
 21
11.7312
 31
0.0
  0
LINE
  8
0
 62
     0
 10
25.8685
 20
11.7312
 30
0.0
 11
25.8685
 21
8.63205
 31
0.0
  0
LINE
  8
0
 62
     0
 10
25.8685
 20
8.63205
 30
0.0
 11
26.6692
 21
8.63205
 31
0.0
  0
LINE
  8
0
 62
     0
 10
26.6692
 20
8.63205
 30
0.0
 11
26.6692
 21
7.63295
 31
0.0
  0
LINE
  8
0
 62
     0
 10
26.6692
 20
7.63295
 30
0.0
 11
40.6686
 21
7.63295
 31
0.0
  0
LINE
  8
0
 62
     0
 10
40.6686
 20
7.63295
 30
0.0
 11
40.6686
 21
8.63205
 31
0.0
  0
LINE
  8
0
 62
     0
 10
40.6686
 20
8.63205
 30
0.0
 11
41.4694
 21
8.63205
 31
0.0
  0
LINE
  8
0
 62
     0
 10
41.4694
 20
8.63205
 30
0.0
 11
41.4694
 21
11.7312
 31
0.0
  0
LINE
  8
0
 62
     0
 10
41.4694
 20
11.7312
 30
0.0
 11
40.6686
 21
11.7312
 31
0.0
  0
LINE
  8
0
 62
     0
 10
40.6686
 20
11.7312
 30
0.0
 11
40.6686
 21
17.5328
 31
0.0
  0
LINE
  8
0
 62
     0
 10
40.6686
 20
17.5328
 30
0.0
 11
41.4694
 21
17.5328
 31
0.0
  0
LINE
  8
0
 62
     0
 10
41.4694
 20
17.5328
 30
0.0
 11
41.4694
 21
20.632
 31
0.0
  0
LINE
  8
0
 62
     0
 10
41.4694
 20
20.632
 30
0.0
 11
40.6686
 21
20.632
 31
0.0
  0
LINE
  8
0
 62
     0
 10
40.6686
 20
20.632
 30
0.0
 11
40.6686
 21
21.6324
 31
0.0
  0
LINE
  8
0
 62
     0
 10
40.6686
 20
21.6324
 30
0.0
 11
26.6692
 21
21.6324
 31
0.0
  0
LINE
  8
0
 62
     0
 10
45.7193
 20
21.6324
 30
0.0
 11
45.7193
 21
20.632
 31
0.0
  0
LINE
  8
0
 62
     0
 10
45.7193
 20
20.632
 30
0.0
 11
44.9185
 21
20.632
 31
0.0
  0
LINE
  8
0
 62
     0
 10
44.9185
 20
20.632
 30
0.0
 11
44.9185
 21
17.5328
 31
0.0
  0
LINE
  8
0
 62
     0
 10
44.9185
 20
17.5328
 30
0.0
 11
45.7193
 21
17.5328
 31
0.0
  0
LINE
  8
0
 62
     0
 10
45.7193
 20
17.5328
 30
0.0
 11
45.7193
 21
11.7312
 31
0.0
  0
LINE
  8
0
 62
     0
 10
45.7193
 20
11.7312
 30
0.0
 11
44.9185
 21
11.7312
 31
0.0
  0
LINE
  8
0
 62
     0
 10
44.9185
 20
11.7312
 30
0.0
 11
44.9185
 21
8.63205
 31
0.0
  0
LINE
  8
0
 62
     0
 10
44.9185
 20
8.63205
 30
0.0
 11
45.7193
 21
8.63205
 31
0.0
  0
LINE
  8
0
 62
     0
 10
45.7193
 20
8.63205
 30
0.0
 11
45.7193
 21
7.63295
 31
0.0
  0
LINE
  8
0
 62
     0
 10
45.7193
 20
7.63295
 30
0.0
 11
59.7186
 21
7.63295
 31
0.0
  0
LINE
  8
0
 62
     0
 10
59.7186
 20
7.63295
 30
0.0
 11
59.7186
 21
8.63205
 31
0.0
  0
LINE
  8
0
 62
     0
 10
59.7186
 20
8.63205
 30
0.0
 11
60.5194
 21
8.63205
 31
0.0
  0
LINE
  8
0
 62
     0
 10
60.5194
 20
8.63205
 30
0.0
 11
60.5194
 21
11.7312
 31
0.0
  0
LINE
  8
0
 62
     0
 10
60.5194
 20
11.7312
 30
0.0
 11
59.7186
 21
11.7312
 31
0.0
  0
LINE
  8
0
 62
     0
 10
59.7186
 20
11.7312
 30
0.0
 11
59.7186
 21
17.5328
 31
0.0
  0
LINE
  8
0
 62
     0
 10
59.7186
 20
17.5328
 30
0.0
 11
60.5194
 21
17.5328
 31
0.0
  0
LINE
  8
0
 62
     0
 10
60.5194
 20
17.5328
 30
0.0
 11
60.5194
 21
20.632
 31
0.0
  0
LINE
  8
0
 62
     0
 10
60.5194
 20
20.632
 30
0.0
 11
59.7186
 21
20.632
 31
0.0
  0
LINE
  8
0
 62
     0
 10
59.7186
 20
20.632
 30
0.0
 11
59.7186
 21
21.6324
 31
0.0
  0
LINE
  8
0
 62
     0
 10
59.7186
 20
21.6324
 30
0.0
 11
45.7193
 21
21.6324
 31
0.0
  0
LINE
  8
0
 62
     0
 10
64.7693
 20
21.6324
 30
0.0
 11
64.7693
 21
20.632
 31
0.0
  0
LINE
  8
0
 62
     0
 10
64.7693
 20
20.632
 30
0.0
 11
63.9685
 21
20.632
 31
0.0
  0
LINE
  8
0
 62
     0
 10
63.9685
 20
20.632
 30
0.0
 11
63.9685
 21
17.5328
 31
0.0
  0
LINE
  8
0
 62
     0
 10
63.9685
 20
17.5328
 30
0.0
 11
64.7693
 21
17.5328
 31
0.0
  0
LINE
  8
0
 62
     0
 10
64.7693
 20
17.5328
 30
0.0
 11
64.7693
 21
11.7312
 31
0.0
  0
LINE
  8
0
 62
     0
 10
64.7693
 20
11.7312
 30
0.0
 11
63.9685
 21
11.7312
 31
0.0
  0
LINE
  8
0
 62
     0
 10
63.9685
 20
11.7312
 30
0.0
 11
63.9685
 21
8.63205
 31
0.0
  0
LINE
  8
0
 62
     0
 10
63.9685
 20
8.63205
 30
0.0
 11
64.7693
 21
8.63205
 31
0.0
  0
LINE
  8
0
 62
     0
 10
64.7693
 20
8.63205
 30
0.0
 11
64.7693
 21
7.63295
 31
0.0
  0
LINE
  8
0
 62
     0
 10
64.7693
 20
7.63295
 30
0.0
 11
78.7686
 21
7.63295
 31
0.0
  0
LINE
  8
0
 62
     0
 10
78.7686
 20
7.63295
 30
0.0
 11
78.7686
 21
8.63205
 31
0.0
  0
LINE
  8
0
 62
     0
 10
78.7686
 20
8.63205
 30
0.0
 11
79.5694
 21
8.63205
 31
0.0
  0
LINE
  8
0
 62
     0
 10
79.5694
 20
8.63205
 30
0.0
 11
79.5694
 21
11.7312
 31
0.0
  0
LINE
  8
0
 62
     0
 10
79.5694
 20
11.7312
 30
0.0
 11
78.7686
 21
11.7312
 31
0.0
  0
LINE
  8
0
 62
     0
 10
78.7686
 20
11.7312
 30
0.0
 11
78.7686
 21
17.5328
 31
0.0
  0
LINE
  8
0
 62
     0
 10
78.7686
 20
17.5328
 30
0.0
 11
79.5694
 21
17.5328
 31
0.0
  0
LINE
  8
0
 62
     0
 10
79.5694
 20
17.5328
 30
0.0
 11
79.5694
 21
20.632
 31
0.0
  0
LINE
  8
0
 62
     0
 10
79.5694
 20
20.632
 30
0.0
 11
78.7686
 21
20.632
 31
0.0
  0
LINE
  8
0
 62
     0
 10
78.7686
 20
20.632
 30
0.0
 11
78.7686
 21
21.6324
 31
0.0
  0
LINE
  8
0
 62
     0
 10
78.7686
 20
21.6324
 30
0.0
 11
64.7693
 21
21.6324
 31
0.0
  0
LINE
  8
0
 62
     0
 10
236.219
 20
21.6324
 30
0.0
 11
236.219
 21
20.632
 31
0.0
  0
LINE
  8
0
 62
     0
 10
236.219
 20
20.632
 30
0.0
 11
235.418
 21
20.632
 31
0.0
  0
LINE
  8
0
 62
     0
 10
235.418
 20
20.632
 30
0.0
 11
235.418
 21
17.5328
 31
0.0
  0
LINE
  8
0
 62
     0
 10
235.418
 20
17.5328
 30
0.0
 11
236.219
 21
17.5328
 31
0.0
  0
LINE
  8
0
 62
     0
 10
236.219
 20
17.5328
 30
0.0
 11
236.219
 21
11.7312
 31
0.0
  0
LINE
  8
0
 62
     0
 10
236.219
 20
11.7312
 30
0.0
 11
235.418
 21
11.7312
 31
0.0
  0
LINE
  8
0
 62
     0
 10
235.418
 20
11.7312
 30
0.0
 11
235.418
 21
8.63205
 31
0.0
  0
LINE
  8
0
 62
     0
 10
235.418
 20
8.63205
 30
0.0
 11
236.219
 21
8.63205
 31
0.0
  0
LINE
  8
0
 62
     0
 10
236.219
 20
8.63205
 30
0.0
 11
236.219
 21
7.63295
 31
0.0
  0
LINE
  8
0
 62
     0
 10
236.219
 20
7.63295
 30
0.0
 11
250.219
 21
7.63295
 31
0.0
  0
LINE
  8
0
 62
     0
 10
250.219
 20
7.63295
 30
0.0
 11
250.219
 21
8.63205
 31
0.0
  0
LINE
  8
0
 62
     0
 10
250.219
 20
8.63205
 30
0.0
 11
251.019
 21
8.63205
 31
0.0
  0
LINE
  8
0
 62
     0
 10
251.019
 20
8.63205
 30
0.0
 11
251.019
 21
11.7312
 31
0.0
  0
LINE
  8
0
 62
     0
 10
251.019
 20
11.7312
 30
0.0
 11
250.219
 21
11.7312
 31
0.0
  0
LINE
  8
0
 62
     0
 10
250.219
 20
11.7312
 30
0.0
 11
250.219
 21
17.5328
 31
0.0
  0
LINE
  8
0
 62
     0
 10
250.219
 20
17.5328
 30
0.0
 11
251.019
 21
17.5328
 31
0.0
  0
LINE
  8
0
 62
     0
 10
251.019
 20
17.5328
 30
0.0
 11
251.019
 21
20.632
 31
0.0
  0
LINE
  8
0
 62
     0
 10
251.019
 20
20.632
 30
0.0
 11
250.219
 21
20.632
 31
0.0
  0
LINE
  8
0
 62
     0
 10
250.219
 20
20.632
 30
0.0
 11
250.219
 21
21.6324
 31
0.0
  0
LINE
  8
0
 62
     0
 10
250.219
 20
21.6324
 30
0.0
 11
236.219
 21
21.6324
 31
0.0
  0
LINE
  8
0
 62
     0
 10
255.269
 20
21.6324
 30
0.0
 11
255.269
 21
20.632
 31
0.0
  0
LINE
  8
0
 62
     0
 10
255.269
 20
20.632
 30
0.0
 11
254.468
 21
20.632
 31
0.0
  0
LINE
  8
0
 62
     0
 10
254.468
 20
20.632
 30
0.0
 11
254.468
 21
17.5328
 31
0.0
  0
LINE
  8
0
 62
     0
 10
254.468
 20
17.5328
 30
0.0
 11
255.269
 21
17.5328
 31
0.0
  0
LINE
  8
0
 62
     0
 10
255.269
 20
17.5328
 30
0.0
 11
255.269
 21
11.7312
 31
0.0
  0
LINE
  8
0
 62
     0
 10
255.269
 20
11.7312
 30
0.0
 11
254.468
 21
11.7312
 31
0.0
  0
LINE
  8
0
 62
     0
 10
254.468
 20
11.7312
 30
0.0
 11
254.468
 21
8.63205
 31
0.0
  0
LINE
  8
0
 62
     0
 10
254.468
 20
8.63205
 30
0.0
 11
255.269
 21
8.63205
 31
0.0
  0
LINE
  8
0
 62
     0
 10
255.269
 20
8.63205
 30
0.0
 11
255.269
 21
7.63295
 31
0.0
  0
LINE
  8
0
 62
     0
 10
255.269
 20
7.63295
 30
0.0
 11
269.269
 21
7.63295
 31
0.0
  0
LINE
  8
0
 62
     0
 10
269.269
 20
7.63295
 30
0.0
 11
269.269
 21
8.63205
 31
0.0
  0
LINE
  8
0
 62
     0
 10
269.269
 20
8.63205
 30
0.0
 11
270.069
 21
8.63205
 31
0.0
  0
LINE
  8
0
 62
     0
 10
270.069
 20
8.63205
 30
0.0
 11
270.069
 21
11.7312
 31
0.0
  0
LINE
  8
0
 62
     0
 10
270.069
 20
11.7312
 30
0.0
 11
269.269
 21
11.7312
 31
0.0
  0
LINE
  8
0
 62
     0
 10
269.269
 20
11.7312
 30
0.0
 11
269.269
 21
17.5328
 31
0.0
  0
LINE
  8
0
 62
     0
 10
269.269
 20
17.5328
 30
0.0
 11
270.069
 21
17.5328
 31
0.0
  0
LINE
  8
0
 62
     0
 10
270.069
 20
17.5328
 30
0.0
 11
270.069
 21
20.632
 31
0.0
  0
LINE
  8
0
 62
     0
 10
270.069
 20
20.632
 30
0.0
 11
269.269
 21
20.632
 31
0.0
  0
LINE
  8
0
 62
     0
 10
269.269
 20
20.632
 30
0.0
 11
269.269
 21
21.6324
 31
0.0
  0
LINE
  8
0
 62
     0
 10
269.269
 20
21.6324
 30
0.0
 11
255.269
 21
21.6324
 31
0.0
  0
LINE
  8
0
 62
     0
 10
274.319
 20
21.6324
 30
0.0
 11
274.319
 21
20.632
 31
0.0
  0
LINE
  8
0
 62
     0
 10
274.319
 20
20.632
 30
0.0
 11
273.518
 21
20.632
 31
0.0
  0
LINE
  8
0
 62
     0
 10
273.518
 20
20.632
 30
0.0
 11
273.518
 21
17.5328
 31
0.0
  0
LINE
  8
0
 62
     0
 10
273.518
 20
17.5328
 30
0.0
 11
274.319
 21
17.5328
 31
0.0
  0
LINE
  8
0
 62
     0
 10
274.319
 20
17.5328
 30
0.0
 11
274.319
 21
11.7312
 31
0.0
  0
LINE
  8
0
 62
     0
 10
274.319
 20
11.7312
 30
0.0
 11
273.518
 21
11.7312
 31
0.0
  0
LINE
  8
0
 62
     0
 10
273.518
 20
11.7312
 30
0.0
 11
273.518
 21
8.63205
 31
0.0
  0
LINE
  8
0
 62
     0
 10
273.518
 20
8.63205
 30
0.0
 11
274.319
 21
8.63205
 31
0.0
  0
LINE
  8
0
 62
     0
 10
274.319
 20
8.63205
 30
0.0
 11
274.319
 21
7.63295
 31
0.0
  0
LINE
  8
0
 62
     0
 10
274.319
 20
7.63295
 30
0.0
 11
288.319
 21
7.63295
 31
0.0
  0
LINE
  8
0
 62
     0
 10
288.319
 20
7.63295
 30
0.0
 11
288.319
 21
8.63205
 31
0.0
  0
LINE
  8
0
 62
     0
 10
288.319
 20
8.63205
 30
0.0
 11
289.119
 21
8.63205
 31
0.0
  0
LINE
  8
0
 62
     0
 10
289.119
 20
8.63205
 30
0.0
 11
289.119
 21
11.7312
 31
0.0
  0
LINE
  8
0
 62
     0
 10
289.119
 20
11.7312
 30
0.0
 11
288.319
 21
11.7312
 31
0.0
  0
LINE
  8
0
 62
     0
 10
288.319
 20
11.7312
 30
0.0
 11
288.319
 21
17.5328
 31
0.0
  0
LINE
  8
0
 62
     0
 10
288.319
 20
17.5328
 30
0.0
 11
289.119
 21
17.5328
 31
0.0
  0
LINE
  8
0
 62
     0
 10
289.119
 20
17.5328
 30
0.0
 11
289.119
 21
20.632
 31
0.0
  0
LINE
  8
0
 62
     0
 10
289.119
 20
20.632
 30
0.0
 11
288.319
 21
20.632
 31
0.0
  0
LINE
  8
0
 62
     0
 10
288.319
 20
20.632
 30
0.0
 11
288.319
 21
21.6324
 31
0.0
  0
LINE
  8
0
 62
     0
 10
288.319
 20
21.6324
 30
0.0
 11
274.319
 21
21.6324
 31
0.0
  0
LINE
  8
0
 62
     0
 10
17.1442
 20
40.6809
 30
0.0
 11
17.1442
 21
39.6819
 31
0.0
  0
LINE
  8
0
 62
     0
 10
17.1442
 20
39.6819
 30
0.0
 11
16.3435
 21
39.6819
 31
0.0
  0
LINE
  8
0
 62
     0
 10
16.3435
 20
39.6819
 30
0.0
 11
16.3435
 21
36.5827
 31
0.0
  0
LINE
  8
0
 62
     0
 10
16.3435
 20
36.5827
 30
0.0
 11
17.1442
 21
36.5827
 31
0.0
  0
LINE
  8
0
 62
     0
 10
17.1442
 20
36.5827
 30
0.0
 11
17.1442
 21
35.9819
 31
0.0
  0
LINE
  8
0
 62
     0
 10
17.1442
 20
35.9819
 30
0.0
 11
15.5691
 21
35.9819
 31
0.0
  0
LINE
  8
0
 62
     0
 10
15.5691
 20
35.9819
 30
0.0
 11
15.5691
 21
39.212
 31
0.0
  0
LINE
  8
0
 62
     0
 10
15.5691
 20
39.212
 30
0.0
 11
13.8934
 21
39.212
 31
0.0
  0
LINE
  8
0
 62
     0
 10
13.8934
 20
39.212
 30
0.0
 11
13.8934
 21
40.1327
 31
0.0
  0
LINE
  8
0
 62
     0
 10
13.8934
 20
40.1327
 30
0.0
 11
10.5944
 21
40.1327
 31
0.0
  0
LINE
  8
0
 62
     0
 10
10.5944
 20
40.1327
 30
0.0
 11
10.5944
 21
39.212
 31
0.0
  0
LINE
  8
0
 62
     0
 10
10.5944
 20
39.212
 30
0.0
 11
8.91868
 21
39.212
 31
0.0
  0
LINE
  8
0
 62
     0
 10
8.91868
 20
39.212
 30
0.0
 11
8.91868
 21
35.9819
 31
0.0
  0
LINE
  8
0
 62
     0
 10
8.91868
 20
35.9819
 30
0.0
 11
8.04362
 21
35.9819
 31
0.0
  0
LINE
  8
0
 62
     0
 10
8.04362
 20
35.9819
 30
0.0
 11
8.04362
 21
33.1818
 31
0.0
  0
LINE
  8
0
 62
     0
 10
8.04362
 20
33.1818
 30
0.0
 11
8.91868
 21
33.1818
 31
0.0
  0
LINE
  8
0
 62
     0
 10
8.91868
 20
33.1818
 30
0.0
 11
8.91868
 21
26.9131
 31
0.0
  0
LINE
  8
0
 62
     0
 10
8.91868
 20
26.9131
 30
0.0
 11
10.5944
 21
26.9131
 31
0.0
  0
LINE
  8
0
 62
     0
 10
10.5944
 20
26.9131
 30
0.0
 11
10.5944
 21
25.9319
 31
0.0
  0
LINE
  8
0
 62
     0
 10
10.5944
 20
25.9319
 30
0.0
 11
13.8934
 21
25.9319
 31
0.0
  0
LINE
  8
0
 62
     0
 10
13.8934
 20
25.9319
 30
0.0
 11
13.8934
 21
26.9131
 31
0.0
  0
LINE
  8
0
 62
     0
 10
13.8934
 20
26.9131
 30
0.0
 11
15.5691
 21
26.9131
 31
0.0
  0
LINE
  8
0
 62
     0
 10
15.5691
 20
26.9131
 30
0.0
 11
15.5691
 21
31.3821
 31
0.0
  0
LINE
  8
0
 62
     0
 10
15.5691
 20
31.3821
 30
0.0
 11
17.1442
 21
31.3821
 31
0.0
  0
LINE
  8
0
 62
     0
 10
17.1442
 20
31.3821
 30
0.0
 11
17.1442
 21
30.7812
 31
0.0
  0
LINE
  8
0
 62
     0
 10
17.1442
 20
30.7812
 30
0.0
 11
16.3435
 21
30.7812
 31
0.0
  0
LINE
  8
0
 62
     0
 10
16.3435
 20
30.7812
 30
0.0
 11
16.3435
 21
27.6821
 31
0.0
  0
LINE
  8
0
 62
     0
 10
16.3435
 20
27.6821
 30
0.0
 11
17.1442
 21
27.6821
 31
0.0
  0
LINE
  8
0
 62
     0
 10
17.1442
 20
27.6821
 30
0.0
 11
17.1442
 21
26.6816
 31
0.0
  0
LINE
  8
0
 62
     0
 10
17.1442
 20
26.6816
 30
0.0
 11
31.1437
 21
26.6816
 31
0.0
  0
LINE
  8
0
 62
     0
 10
31.1437
 20
26.6816
 30
0.0
 11
31.1437
 21
27.6821
 31
0.0
  0
LINE
  8
0
 62
     0
 10
31.1437
 20
27.6821
 30
0.0
 11
31.9443
 21
27.6821
 31
0.0
  0
LINE
  8
0
 62
     0
 10
31.9443
 20
27.6821
 30
0.0
 11
31.9443
 21
30.7812
 31
0.0
  0
LINE
  8
0
 62
     0
 10
31.9443
 20
30.7812
 30
0.0
 11
31.1437
 21
30.7812
 31
0.0
  0
LINE
  8
0
 62
     0
 10
31.1437
 20
30.7812
 30
0.0
 11
31.1437
 21
31.3821
 31
0.0
  0
LINE
  8
0
 62
     0
 10
31.1437
 20
31.3821
 30
0.0
 11
32.7188
 21
31.3821
 31
0.0
  0
LINE
  8
0
 62
     0
 10
32.7188
 20
31.3821
 30
0.0
 11
32.7188
 21
26.9131
 31
0.0
  0
LINE
  8
0
 62
     0
 10
32.7188
 20
26.9131
 30
0.0
 11
34.3931
 21
26.9131
 31
0.0
  0
LINE
  8
0
 62
     0
 10
34.3931
 20
26.9131
 30
0.0
 11
34.3931
 21
25.9319
 31
0.0
  0
LINE
  8
0
 62
     0
 10
34.3931
 20
25.9319
 30
0.0
 11
37.6936
 21
25.9319
 31
0.0
  0
LINE
  8
0
 62
     0
 10
37.6936
 20
25.9319
 30
0.0
 11
37.6936
 21
26.9131
 31
0.0
  0
LINE
  8
0
 62
     0
 10
37.6936
 20
26.9131
 30
0.0
 11
39.3693
 21
26.9131
 31
0.0
  0
LINE
  8
0
 62
     0
 10
39.3693
 20
26.9131
 30
0.0
 11
39.3693
 21
33.1818
 31
0.0
  0
LINE
  8
0
 62
     0
 10
39.3693
 20
33.1818
 30
0.0
 11
40.2442
 21
33.1818
 31
0.0
  0
LINE
  8
0
 62
     0
 10
40.2442
 20
33.1818
 30
0.0
 11
40.2442
 21
35.9819
 31
0.0
  0
LINE
  8
0
 62
     0
 10
40.2442
 20
35.9819
 30
0.0
 11
39.3693
 21
35.9819
 31
0.0
  0
LINE
  8
0
 62
     0
 10
39.3693
 20
35.9819
 30
0.0
 11
39.3693
 21
39.212
 31
0.0
  0
LINE
  8
0
 62
     0
 10
39.3693
 20
39.212
 30
0.0
 11
37.6936
 21
39.212
 31
0.0
  0
LINE
  8
0
 62
     0
 10
37.6936
 20
39.212
 30
0.0
 11
37.6936
 21
40.1327
 31
0.0
  0
LINE
  8
0
 62
     0
 10
37.6936
 20
40.1327
 30
0.0
 11
34.3931
 21
40.1327
 31
0.0
  0
LINE
  8
0
 62
     0
 10
34.3931
 20
40.1327
 30
0.0
 11
34.3931
 21
39.212
 31
0.0
  0
LINE
  8
0
 62
     0
 10
34.3931
 20
39.212
 30
0.0
 11
32.7188
 21
39.212
 31
0.0
  0
LINE
  8
0
 62
     0
 10
32.7188
 20
39.212
 30
0.0
 11
32.7188
 21
35.9819
 31
0.0
  0
LINE
  8
0
 62
     0
 10
32.7188
 20
35.9819
 30
0.0
 11
31.1437
 21
35.9819
 31
0.0
  0
LINE
  8
0
 62
     0
 10
31.1437
 20
35.9819
 30
0.0
 11
31.1437
 21
36.5827
 31
0.0
  0
LINE
  8
0
 62
     0
 10
31.1437
 20
36.5827
 30
0.0
 11
31.9443
 21
36.5827
 31
0.0
  0
LINE
  8
0
 62
     0
 10
31.9443
 20
36.5827
 30
0.0
 11
31.9443
 21
39.6819
 31
0.0
  0
LINE
  8
0
 62
     0
 10
31.9443
 20
39.6819
 30
0.0
 11
31.1437
 21
39.6819
 31
0.0
  0
LINE
  8
0
 62
     0
 10
31.1437
 20
39.6819
 30
0.0
 11
31.1437
 21
40.6809
 31
0.0
  0
LINE
  8
0
 62
     0
 10
31.1437
 20
40.6809
 30
0.0
 11
17.1442
 21
40.6809
 31
0.0
  0
LINE
  8
0
 62
     0
 10
45.7193
 20
40.6809
 30
0.0
 11
45.7193
 21
39.6819
 31
0.0
  0
LINE
  8
0
 62
     0
 10
45.7193
 20
39.6819
 30
0.0
 11
44.9185
 21
39.6819
 31
0.0
  0
LINE
  8
0
 62
     0
 10
44.9185
 20
39.6819
 30
0.0
 11
44.9185
 21
36.5827
 31
0.0
  0
LINE
  8
0
 62
     0
 10
44.9185
 20
36.5827
 30
0.0
 11
45.7193
 21
36.5827
 31
0.0
  0
LINE
  8
0
 62
     0
 10
45.7193
 20
36.5827
 30
0.0
 11
45.7193
 21
30.7812
 31
0.0
  0
LINE
  8
0
 62
     0
 10
45.7193
 20
30.7812
 30
0.0
 11
44.9185
 21
30.7812
 31
0.0
  0
LINE
  8
0
 62
     0
 10
44.9185
 20
30.7812
 30
0.0
 11
44.9185
 21
27.6821
 31
0.0
  0
LINE
  8
0
 62
     0
 10
44.9185
 20
27.6821
 30
0.0
 11
45.7193
 21
27.6821
 31
0.0
  0
LINE
  8
0
 62
     0
 10
45.7193
 20
27.6821
 30
0.0
 11
45.7193
 21
26.6816
 31
0.0
  0
LINE
  8
0
 62
     0
 10
45.7193
 20
26.6816
 30
0.0
 11
59.7186
 21
26.6816
 31
0.0
  0
LINE
  8
0
 62
     0
 10
59.7186
 20
26.6816
 30
0.0
 11
59.7186
 21
27.6821
 31
0.0
  0
LINE
  8
0
 62
     0
 10
59.7186
 20
27.6821
 30
0.0
 11
60.5194
 21
27.6821
 31
0.0
  0
LINE
  8
0
 62
     0
 10
60.5194
 20
27.6821
 30
0.0
 11
60.5194
 21
30.7812
 31
0.0
  0
LINE
  8
0
 62
     0
 10
60.5194
 20
30.7812
 30
0.0
 11
59.7186
 21
30.7812
 31
0.0
  0
LINE
  8
0
 62
     0
 10
59.7186
 20
30.7812
 30
0.0
 11
59.7186
 21
36.5827
 31
0.0
  0
LINE
  8
0
 62
     0
 10
59.7186
 20
36.5827
 30
0.0
 11
60.5194
 21
36.5827
 31
0.0
  0
LINE
  8
0
 62
     0
 10
60.5194
 20
36.5827
 30
0.0
 11
60.5194
 21
39.6819
 31
0.0
  0
LINE
  8
0
 62
     0
 10
60.5194
 20
39.6819
 30
0.0
 11
59.7186
 21
39.6819
 31
0.0
  0
LINE
  8
0
 62
     0
 10
59.7186
 20
39.6819
 30
0.0
 11
59.7186
 21
40.6809
 31
0.0
  0
LINE
  8
0
 62
     0
 10
59.7186
 20
40.6809
 30
0.0
 11
45.7193
 21
40.6809
 31
0.0
  0
LINE
  8
0
 62
     0
 10
64.7693
 20
40.6809
 30
0.0
 11
64.7693
 21
39.6819
 31
0.0
  0
LINE
  8
0
 62
     0
 10
64.7693
 20
39.6819
 30
0.0
 11
63.9685
 21
39.6819
 31
0.0
  0
LINE
  8
0
 62
     0
 10
63.9685
 20
39.6819
 30
0.0
 11
63.9685
 21
36.5827
 31
0.0
  0
LINE
  8
0
 62
     0
 10
63.9685
 20
36.5827
 30
0.0
 11
64.7693
 21
36.5827
 31
0.0
  0
LINE
  8
0
 62
     0
 10
64.7693
 20
36.5827
 30
0.0
 11
64.7693
 21
30.7812
 31
0.0
  0
LINE
  8
0
 62
     0
 10
64.7693
 20
30.7812
 30
0.0
 11
63.9685
 21
30.7812
 31
0.0
  0
LINE
  8
0
 62
     0
 10
63.9685
 20
30.7812
 30
0.0
 11
63.9685
 21
27.6821
 31
0.0
  0
LINE
  8
0
 62
     0
 10
63.9685
 20
27.6821
 30
0.0
 11
64.7693
 21
27.6821
 31
0.0
  0
LINE
  8
0
 62
     0
 10
64.7693
 20
27.6821
 30
0.0
 11
64.7693
 21
26.6816
 31
0.0
  0
LINE
  8
0
 62
     0
 10
64.7693
 20
26.6816
 30
0.0
 11
78.7686
 21
26.6816
 31
0.0
  0
LINE
  8
0
 62
     0
 10
78.7686
 20
26.6816
 30
0.0
 11
78.7686
 21
27.6821
 31
0.0
  0
LINE
  8
0
 62
     0
 10
78.7686
 20
27.6821
 30
0.0
 11
79.5694
 21
27.6821
 31
0.0
  0
LINE
  8
0
 62
     0
 10
79.5694
 20
27.6821
 30
0.0
 11
79.5694
 21
30.7812
 31
0.0
  0
LINE
  8
0
 62
     0
 10
79.5694
 20
30.7812
 30
0.0
 11
78.7686
 21
30.7812
 31
0.0
  0
LINE
  8
0
 62
     0
 10
78.7686
 20
30.7812
 30
0.0
 11
78.7686
 21
36.5827
 31
0.0
  0
LINE
  8
0
 62
     0
 10
78.7686
 20
36.5827
 30
0.0
 11
79.5694
 21
36.5827
 31
0.0
  0
LINE
  8
0
 62
     0
 10
79.5694
 20
36.5827
 30
0.0
 11
79.5694
 21
39.6819
 31
0.0
  0
LINE
  8
0
 62
     0
 10
79.5694
 20
39.6819
 30
0.0
 11
78.7686
 21
39.6819
 31
0.0
  0
LINE
  8
0
 62
     0
 10
78.7686
 20
39.6819
 30
0.0
 11
78.7686
 21
40.6809
 31
0.0
  0
LINE
  8
0
 62
     0
 10
78.7686
 20
40.6809
 30
0.0
 11
64.7693
 21
40.6809
 31
0.0
  0
LINE
  8
0
 62
     0
 10
83.8193
 20
40.6809
 30
0.0
 11
83.8193
 21
39.6819
 31
0.0
  0
LINE
  8
0
 62
     0
 10
83.8193
 20
39.6819
 30
0.0
 11
83.0185
 21
39.6819
 31
0.0
  0
LINE
  8
0
 62
     0
 10
83.0185
 20
39.6819
 30
0.0
 11
83.0185
 21
36.5827
 31
0.0
  0
LINE
  8
0
 62
     0
 10
83.0185
 20
36.5827
 30
0.0
 11
83.8193
 21
36.5827
 31
0.0
  0
LINE
  8
0
 62
     0
 10
83.8193
 20
36.5827
 30
0.0
 11
83.8193
 21
30.7812
 31
0.0
  0
LINE
  8
0
 62
     0
 10
83.8193
 20
30.7812
 30
0.0
 11
83.0185
 21
30.7812
 31
0.0
  0
LINE
  8
0
 62
     0
 10
83.0185
 20
30.7812
 30
0.0
 11
83.0185
 21
27.6821
 31
0.0
  0
LINE
  8
0
 62
     0
 10
83.0185
 20
27.6821
 30
0.0
 11
83.8193
 21
27.6821
 31
0.0
  0
LINE
  8
0
 62
     0
 10
83.8193
 20
27.6821
 30
0.0
 11
83.8193
 21
26.6816
 31
0.0
  0
LINE
  8
0
 62
     0
 10
83.8193
 20
26.6816
 30
0.0
 11
97.8186
 21
26.6816
 31
0.0
  0
LINE
  8
0
 62
     0
 10
97.8186
 20
26.6816
 30
0.0
 11
97.8186
 21
27.6821
 31
0.0
  0
LINE
  8
0
 62
     0
 10
97.8186
 20
27.6821
 30
0.0
 11
98.618
 21
27.6821
 31
0.0
  0
LINE
  8
0
 62
     0
 10
98.618
 20
27.6821
 30
0.0
 11
98.618
 21
30.7812
 31
0.0
  0
LINE
  8
0
 62
     0
 10
98.618
 20
30.7812
 30
0.0
 11
97.8186
 21
30.7812
 31
0.0
  0
LINE
  8
0
 62
     0
 10
97.8186
 20
30.7812
 30
0.0
 11
97.8186
 21
36.5827
 31
0.0
  0
LINE
  8
0
 62
     0
 10
97.8186
 20
36.5827
 30
0.0
 11
98.618
 21
36.5827
 31
0.0
  0
LINE
  8
0
 62
     0
 10
98.618
 20
36.5827
 30
0.0
 11
98.618
 21
39.6819
 31
0.0
  0
LINE
  8
0
 62
     0
 10
98.618
 20
39.6819
 30
0.0
 11
97.8186
 21
39.6819
 31
0.0
  0
LINE
  8
0
 62
     0
 10
97.8186
 20
39.6819
 30
0.0
 11
97.8186
 21
40.6809
 31
0.0
  0
LINE
  8
0
 62
     0
 10
97.8186
 20
40.6809
 30
0.0
 11
83.8193
 21
40.6809
 31
0.0
  0
LINE
  8
0
 62
     0
 10
102.868
 20
40.6809
 30
0.0
 11
102.868
 21
39.6819
 31
0.0
  0
LINE
  8
0
 62
     0
 10
102.868
 20
39.6819
 30
0.0
 11
102.068
 21
39.6819
 31
0.0
  0
LINE
  8
0
 62
     0
 10
102.068
 20
39.6819
 30
0.0
 11
102.068
 21
36.5827
 31
0.0
  0
LINE
  8
0
 62
     0
 10
102.068
 20
36.5827
 30
0.0
 11
102.868
 21
36.5827
 31
0.0
  0
LINE
  8
0
 62
     0
 10
102.868
 20
36.5827
 30
0.0
 11
102.868
 21
30.7812
 31
0.0
  0
LINE
  8
0
 62
     0
 10
102.868
 20
30.7812
 30
0.0
 11
102.068
 21
30.7812
 31
0.0
  0
LINE
  8
0
 62
     0
 10
102.068
 20
30.7812
 30
0.0
 11
102.068
 21
27.6821
 31
0.0
  0
LINE
  8
0
 62
     0
 10
102.068
 20
27.6821
 30
0.0
 11
102.868
 21
27.6821
 31
0.0
  0
LINE
  8
0
 62
     0
 10
102.868
 20
27.6821
 30
0.0
 11
102.868
 21
26.6816
 31
0.0
  0
LINE
  8
0
 62
     0
 10
102.868
 20
26.6816
 30
0.0
 11
116.867
 21
26.6816
 31
0.0
  0
LINE
  8
0
 62
     0
 10
116.867
 20
26.6816
 30
0.0
 11
116.867
 21
27.6821
 31
0.0
  0
LINE
  8
0
 62
     0
 10
116.867
 20
27.6821
 30
0.0
 11
117.668
 21
27.6821
 31
0.0
  0
LINE
  8
0
 62
     0
 10
117.668
 20
27.6821
 30
0.0
 11
117.668
 21
30.7812
 31
0.0
  0
LINE
  8
0
 62
     0
 10
117.668
 20
30.7812
 30
0.0
 11
116.867
 21
30.7812
 31
0.0
  0
LINE
  8
0
 62
     0
 10
116.867
 20
30.7812
 30
0.0
 11
116.867
 21
36.5827
 31
0.0
  0
LINE
  8
0
 62
     0
 10
116.867
 20
36.5827
 30
0.0
 11
117.668
 21
36.5827
 31
0.0
  0
LINE
  8
0
 62
     0
 10
117.668
 20
36.5827
 30
0.0
 11
117.668
 21
39.6819
 31
0.0
  0
LINE
  8
0
 62
     0
 10
117.668
 20
39.6819
 30
0.0
 11
116.867
 21
39.6819
 31
0.0
  0
LINE
  8
0
 62
     0
 10
116.867
 20
39.6819
 30
0.0
 11
116.867
 21
40.6809
 31
0.0
  0
LINE
  8
0
 62
     0
 10
116.867
 20
40.6809
 30
0.0
 11
102.868
 21
40.6809
 31
0.0
  0
LINE
  8
0
 62
     0
 10
121.918
 20
40.6809
 30
0.0
 11
121.918
 21
39.6819
 31
0.0
  0
LINE
  8
0
 62
     0
 10
121.918
 20
39.6819
 30
0.0
 11
121.117
 21
39.6819
 31
0.0
  0
LINE
  8
0
 62
     0
 10
121.117
 20
39.6819
 30
0.0
 11
121.117
 21
36.5827
 31
0.0
  0
LINE
  8
0
 62
     0
 10
121.117
 20
36.5827
 30
0.0
 11
121.918
 21
36.5827
 31
0.0
  0
LINE
  8
0
 62
     0
 10
121.918
 20
36.5827
 30
0.0
 11
121.918
 21
30.7812
 31
0.0
  0
LINE
  8
0
 62
     0
 10
121.918
 20
30.7812
 30
0.0
 11
121.117
 21
30.7812
 31
0.0
  0
LINE
  8
0
 62
     0
 10
121.117
 20
30.7812
 30
0.0
 11
121.117
 21
27.6821
 31
0.0
  0
LINE
  8
0
 62
     0
 10
121.117
 20
27.6821
 30
0.0
 11
121.918
 21
27.6821
 31
0.0
  0
LINE
  8
0
 62
     0
 10
121.918
 20
27.6821
 30
0.0
 11
121.918
 21
26.6816
 31
0.0
  0
LINE
  8
0
 62
     0
 10
121.918
 20
26.6816
 30
0.0
 11
135.919
 21
26.6816
 31
0.0
  0
LINE
  8
0
 62
     0
 10
135.919
 20
26.6816
 30
0.0
 11
135.919
 21
27.6821
 31
0.0
  0
LINE
  8
0
 62
     0
 10
135.919
 20
27.6821
 30
0.0
 11
136.719
 21
27.6821
 31
0.0
  0
LINE
  8
0
 62
     0
 10
136.719
 20
27.6821
 30
0.0
 11
136.719
 21
30.7812
 31
0.0
  0
LINE
  8
0
 62
     0
 10
136.719
 20
30.7812
 30
0.0
 11
135.919
 21
30.7812
 31
0.0
  0
LINE
  8
0
 62
     0
 10
135.919
 20
30.7812
 30
0.0
 11
135.919
 21
36.5827
 31
0.0
  0
LINE
  8
0
 62
     0
 10
135.919
 20
36.5827
 30
0.0
 11
136.719
 21
36.5827
 31
0.0
  0
LINE
  8
0
 62
     0
 10
136.719
 20
36.5827
 30
0.0
 11
136.719
 21
39.6819
 31
0.0
  0
LINE
  8
0
 62
     0
 10
136.719
 20
39.6819
 30
0.0
 11
135.919
 21
39.6819
 31
0.0
  0
LINE
  8
0
 62
     0
 10
135.919
 20
39.6819
 30
0.0
 11
135.919
 21
40.6809
 31
0.0
  0
LINE
  8
0
 62
     0
 10
135.919
 20
40.6809
 30
0.0
 11
121.918
 21
40.6809
 31
0.0
  0
LINE
  8
0
 62
     0
 10
140.969
 20
40.6809
 30
0.0
 11
140.969
 21
39.6819
 31
0.0
  0
LINE
  8
0
 62
     0
 10
140.969
 20
39.6819
 30
0.0
 11
140.168
 21
39.6819
 31
0.0
  0
LINE
  8
0
 62
     0
 10
140.168
 20
39.6819
 30
0.0
 11
140.168
 21
36.5827
 31
0.0
  0
LINE
  8
0
 62
     0
 10
140.168
 20
36.5827
 30
0.0
 11
140.969
 21
36.5827
 31
0.0
  0
LINE
  8
0
 62
     0
 10
140.969
 20
36.5827
 30
0.0
 11
140.969
 21
30.7812
 31
0.0
  0
LINE
  8
0
 62
     0
 10
140.969
 20
30.7812
 30
0.0
 11
140.168
 21
30.7812
 31
0.0
  0
LINE
  8
0
 62
     0
 10
140.168
 20
30.7812
 30
0.0
 11
140.168
 21
27.6821
 31
0.0
  0
LINE
  8
0
 62
     0
 10
140.168
 20
27.6821
 30
0.0
 11
140.969
 21
27.6821
 31
0.0
  0
LINE
  8
0
 62
     0
 10
140.969
 20
27.6821
 30
0.0
 11
140.969
 21
26.6816
 31
0.0
  0
LINE
  8
0
 62
     0
 10
140.969
 20
26.6816
 30
0.0
 11
154.969
 21
26.6816
 31
0.0
  0
LINE
  8
0
 62
     0
 10
154.969
 20
26.6816
 30
0.0
 11
154.969
 21
27.6821
 31
0.0
  0
LINE
  8
0
 62
     0
 10
154.969
 20
27.6821
 30
0.0
 11
155.769
 21
27.6821
 31
0.0
  0
LINE
  8
0
 62
     0
 10
155.769
 20
27.6821
 30
0.0
 11
155.769
 21
30.7812
 31
0.0
  0
LINE
  8
0
 62
     0
 10
155.769
 20
30.7812
 30
0.0
 11
154.969
 21
30.7812
 31
0.0
  0
LINE
  8
0
 62
     0
 10
154.969
 20
30.7812
 30
0.0
 11
154.969
 21
36.5827
 31
0.0
  0
LINE
  8
0
 62
     0
 10
154.969
 20
36.5827
 30
0.0
 11
155.769
 21
36.5827
 31
0.0
  0
LINE
  8
0
 62
     0
 10
155.769
 20
36.5827
 30
0.0
 11
155.769
 21
39.6819
 31
0.0
  0
LINE
  8
0
 62
     0
 10
155.769
 20
39.6819
 30
0.0
 11
154.969
 21
39.6819
 31
0.0
  0
LINE
  8
0
 62
     0
 10
154.969
 20
39.6819
 30
0.0
 11
154.969
 21
40.6809
 31
0.0
  0
LINE
  8
0
 62
     0
 10
154.969
 20
40.6809
 30
0.0
 11
140.969
 21
40.6809
 31
0.0
  0
LINE
  8
0
 62
     0
 10
160.019
 20
40.6809
 30
0.0
 11
160.019
 21
39.6819
 31
0.0
  0
LINE
  8
0
 62
     0
 10
160.019
 20
39.6819
 30
0.0
 11
159.218
 21
39.6819
 31
0.0
  0
LINE
  8
0
 62
     0
 10
159.218
 20
39.6819
 30
0.0
 11
159.218
 21
36.5827
 31
0.0
  0
LINE
  8
0
 62
     0
 10
159.218
 20
36.5827
 30
0.0
 11
160.019
 21
36.5827
 31
0.0
  0
LINE
  8
0
 62
     0
 10
160.019
 20
36.5827
 30
0.0
 11
160.019
 21
30.7812
 31
0.0
  0
LINE
  8
0
 62
     0
 10
160.019
 20
30.7812
 30
0.0
 11
159.218
 21
30.7812
 31
0.0
  0
LINE
  8
0
 62
     0
 10
159.218
 20
30.7812
 30
0.0
 11
159.218
 21
27.6821
 31
0.0
  0
LINE
  8
0
 62
     0
 10
159.218
 20
27.6821
 30
0.0
 11
160.019
 21
27.6821
 31
0.0
  0
LINE
  8
0
 62
     0
 10
160.019
 20
27.6821
 30
0.0
 11
160.019
 21
26.6816
 31
0.0
  0
LINE
  8
0
 62
     0
 10
160.019
 20
26.6816
 30
0.0
 11
174.019
 21
26.6816
 31
0.0
  0
LINE
  8
0
 62
     0
 10
174.019
 20
26.6816
 30
0.0
 11
174.019
 21
27.6821
 31
0.0
  0
LINE
  8
0
 62
     0
 10
174.019
 20
27.6821
 30
0.0
 11
174.819
 21
27.6821
 31
0.0
  0
LINE
  8
0
 62
     0
 10
174.819
 20
27.6821
 30
0.0
 11
174.819
 21
30.7812
 31
0.0
  0
LINE
  8
0
 62
     0
 10
174.819
 20
30.7812
 30
0.0
 11
174.019
 21
30.7812
 31
0.0
  0
LINE
  8
0
 62
     0
 10
174.019
 20
30.7812
 30
0.0
 11
174.019
 21
36.5827
 31
0.0
  0
LINE
  8
0
 62
     0
 10
174.019
 20
36.5827
 30
0.0
 11
174.819
 21
36.5827
 31
0.0
  0
LINE
  8
0
 62
     0
 10
174.819
 20
36.5827
 30
0.0
 11
174.819
 21
39.6819
 31
0.0
  0
LINE
  8
0
 62
     0
 10
174.819
 20
39.6819
 30
0.0
 11
174.019
 21
39.6819
 31
0.0
  0
LINE
  8
0
 62
     0
 10
174.019
 20
39.6819
 30
0.0
 11
174.019
 21
40.6809
 31
0.0
  0
LINE
  8
0
 62
     0
 10
174.019
 20
40.6809
 30
0.0
 11
160.019
 21
40.6809
 31
0.0
  0
LINE
  8
0
 62
     0
 10
179.069
 20
40.6809
 30
0.0
 11
179.069
 21
39.6819
 31
0.0
  0
LINE
  8
0
 62
     0
 10
179.069
 20
39.6819
 30
0.0
 11
178.268
 21
39.6819
 31
0.0
  0
LINE
  8
0
 62
     0
 10
178.268
 20
39.6819
 30
0.0
 11
178.268
 21
36.5827
 31
0.0
  0
LINE
  8
0
 62
     0
 10
178.268
 20
36.5827
 30
0.0
 11
179.069
 21
36.5827
 31
0.0
  0
LINE
  8
0
 62
     0
 10
179.069
 20
36.5827
 30
0.0
 11
179.069
 21
30.7812
 31
0.0
  0
LINE
  8
0
 62
     0
 10
179.069
 20
30.7812
 30
0.0
 11
178.268
 21
30.7812
 31
0.0
  0
LINE
  8
0
 62
     0
 10
178.268
 20
30.7812
 30
0.0
 11
178.268
 21
27.6821
 31
0.0
  0
LINE
  8
0
 62
     0
 10
178.268
 20
27.6821
 30
0.0
 11
179.069
 21
27.6821
 31
0.0
  0
LINE
  8
0
 62
     0
 10
179.069
 20
27.6821
 30
0.0
 11
179.069
 21
26.6816
 31
0.0
  0
LINE
  8
0
 62
     0
 10
179.069
 20
26.6816
 30
0.0
 11
193.069
 21
26.6816
 31
0.0
  0
LINE
  8
0
 62
     0
 10
193.069
 20
26.6816
 30
0.0
 11
193.069
 21
27.6821
 31
0.0
  0
LINE
  8
0
 62
     0
 10
193.069
 20
27.6821
 30
0.0
 11
193.869
 21
27.6821
 31
0.0
  0
LINE
  8
0
 62
     0
 10
193.869
 20
27.6821
 30
0.0
 11
193.869
 21
30.7812
 31
0.0
  0
LINE
  8
0
 62
     0
 10
193.869
 20
30.7812
 30
0.0
 11
193.069
 21
30.7812
 31
0.0
  0
LINE
  8
0
 62
     0
 10
193.069
 20
30.7812
 30
0.0
 11
193.069
 21
36.5827
 31
0.0
  0
LINE
  8
0
 62
     0
 10
193.069
 20
36.5827
 30
0.0
 11
193.869
 21
36.5827
 31
0.0
  0
LINE
  8
0
 62
     0
 10
193.869
 20
36.5827
 30
0.0
 11
193.869
 21
39.6819
 31
0.0
  0
LINE
  8
0
 62
     0
 10
193.869
 20
39.6819
 30
0.0
 11
193.069
 21
39.6819
 31
0.0
  0
LINE
  8
0
 62
     0
 10
193.069
 20
39.6819
 30
0.0
 11
193.069
 21
40.6809
 31
0.0
  0
LINE
  8
0
 62
     0
 10
193.069
 20
40.6809
 30
0.0
 11
179.069
 21
40.6809
 31
0.0
  0
LINE
  8
0
 62
     0
 10
198.119
 20
40.6809
 30
0.0
 11
198.119
 21
39.6819
 31
0.0
  0
LINE
  8
0
 62
     0
 10
198.119
 20
39.6819
 30
0.0
 11
197.318
 21
39.6819
 31
0.0
  0
LINE
  8
0
 62
     0
 10
197.318
 20
39.6819
 30
0.0
 11
197.318
 21
36.5827
 31
0.0
  0
LINE
  8
0
 62
     0
 10
197.318
 20
36.5827
 30
0.0
 11
198.119
 21
36.5827
 31
0.0
  0
LINE
  8
0
 62
     0
 10
198.119
 20
36.5827
 30
0.0
 11
198.119
 21
30.7812
 31
0.0
  0
LINE
  8
0
 62
     0
 10
198.119
 20
30.7812
 30
0.0
 11
197.318
 21
30.7812
 31
0.0
  0
LINE
  8
0
 62
     0
 10
197.318
 20
30.7812
 30
0.0
 11
197.318
 21
27.6821
 31
0.0
  0
LINE
  8
0
 62
     0
 10
197.318
 20
27.6821
 30
0.0
 11
198.119
 21
27.6821
 31
0.0
  0
LINE
  8
0
 62
     0
 10
198.119
 20
27.6821
 30
0.0
 11
198.119
 21
26.6816
 31
0.0
  0
LINE
  8
0
 62
     0
 10
198.119
 20
26.6816
 30
0.0
 11
212.119
 21
26.6816
 31
0.0
  0
LINE
  8
0
 62
     0
 10
212.119
 20
26.6816
 30
0.0
 11
212.119
 21
27.6821
 31
0.0
  0
LINE
  8
0
 62
     0
 10
212.119
 20
27.6821
 30
0.0
 11
212.919
 21
27.6821
 31
0.0
  0
LINE
  8
0
 62
     0
 10
212.919
 20
27.6821
 30
0.0
 11
212.919
 21
30.7812
 31
0.0
  0
LINE
  8
0
 62
     0
 10
212.919
 20
30.7812
 30
0.0
 11
212.119
 21
30.7812
 31
0.0
  0
LINE
  8
0
 62
     0
 10
212.119
 20
30.7812
 30
0.0
 11
212.119
 21
36.5827
 31
0.0
  0
LINE
  8
0
 62
     0
 10
212.119
 20
36.5827
 30
0.0
 11
212.919
 21
36.5827
 31
0.0
  0
LINE
  8
0
 62
     0
 10
212.919
 20
36.5827
 30
0.0
 11
212.919
 21
39.6819
 31
0.0
  0
LINE
  8
0
 62
     0
 10
212.919
 20
39.6819
 30
0.0
 11
212.119
 21
39.6819
 31
0.0
  0
LINE
  8
0
 62
     0
 10
212.119
 20
39.6819
 30
0.0
 11
212.119
 21
40.6809
 31
0.0
  0
LINE
  8
0
 62
     0
 10
212.119
 20
40.6809
 30
0.0
 11
198.119
 21
40.6809
 31
0.0
  0
LINE
  8
0
 62
     0
 10
217.169
 20
40.6809
 30
0.0
 11
217.169
 21
39.6819
 31
0.0
  0
LINE
  8
0
 62
     0
 10
217.169
 20
39.6819
 30
0.0
 11
216.368
 21
39.6819
 31
0.0
  0
LINE
  8
0
 62
     0
 10
216.368
 20
39.6819
 30
0.0
 11
216.368
 21
36.5827
 31
0.0
  0
LINE
  8
0
 62
     0
 10
216.368
 20
36.5827
 30
0.0
 11
217.169
 21
36.5827
 31
0.0
  0
LINE
  8
0
 62
     0
 10
217.169
 20
36.5827
 30
0.0
 11
217.169
 21
30.7812
 31
0.0
  0
LINE
  8
0
 62
     0
 10
217.169
 20
30.7812
 30
0.0
 11
216.368
 21
30.7812
 31
0.0
  0
LINE
  8
0
 62
     0
 10
216.368
 20
30.7812
 30
0.0
 11
216.368
 21
27.6821
 31
0.0
  0
LINE
  8
0
 62
     0
 10
216.368
 20
27.6821
 30
0.0
 11
217.169
 21
27.6821
 31
0.0
  0
LINE
  8
0
 62
     0
 10
217.169
 20
27.6821
 30
0.0
 11
217.169
 21
26.6816
 31
0.0
  0
LINE
  8
0
 62
     0
 10
217.169
 20
26.6816
 30
0.0
 11
231.169
 21
26.6816
 31
0.0
  0
LINE
  8
0
 62
     0
 10
231.169
 20
26.6816
 30
0.0
 11
231.169
 21
27.6821
 31
0.0
  0
LINE
  8
0
 62
     0
 10
231.169
 20
27.6821
 30
0.0
 11
231.969
 21
27.6821
 31
0.0
  0
LINE
  8
0
 62
     0
 10
231.969
 20
27.6821
 30
0.0
 11
231.969
 21
30.7812
 31
0.0
  0
LINE
  8
0
 62
     0
 10
231.969
 20
30.7812
 30
0.0
 11
231.169
 21
30.7812
 31
0.0
  0
LINE
  8
0
 62
     0
 10
231.169
 20
30.7812
 30
0.0
 11
231.169
 21
36.5827
 31
0.0
  0
LINE
  8
0
 62
     0
 10
231.169
 20
36.5827
 30
0.0
 11
231.969
 21
36.5827
 31
0.0
  0
LINE
  8
0
 62
     0
 10
231.969
 20
36.5827
 30
0.0
 11
231.969
 21
39.6819
 31
0.0
  0
LINE
  8
0
 62
     0
 10
231.969
 20
39.6819
 30
0.0
 11
231.169
 21
39.6819
 31
0.0
  0
LINE
  8
0
 62
     0
 10
231.169
 20
39.6819
 30
0.0
 11
231.169
 21
40.6809
 31
0.0
  0
LINE
  8
0
 62
     0
 10
231.169
 20
40.6809
 30
0.0
 11
217.169
 21
40.6809
 31
0.0
  0
LINE
  8
0
 62
     0
 10
236.219
 20
40.6809
 30
0.0
 11
236.219
 21
39.6819
 31
0.0
  0
LINE
  8
0
 62
     0
 10
236.219
 20
39.6819
 30
0.0
 11
235.418
 21
39.6819
 31
0.0
  0
LINE
  8
0
 62
     0
 10
235.418
 20
39.6819
 30
0.0
 11
235.418
 21
36.5827
 31
0.0
  0
LINE
  8
0
 62
     0
 10
235.418
 20
36.5827
 30
0.0
 11
236.219
 21
36.5827
 31
0.0
  0
LINE
  8
0
 62
     0
 10
236.219
 20
36.5827
 30
0.0
 11
236.219
 21
30.7812
 31
0.0
  0
LINE
  8
0
 62
     0
 10
236.219
 20
30.7812
 30
0.0
 11
235.418
 21
30.7812
 31
0.0
  0
LINE
  8
0
 62
     0
 10
235.418
 20
30.7812
 30
0.0
 11
235.418
 21
27.6821
 31
0.0
  0
LINE
  8
0
 62
     0
 10
235.418
 20
27.6821
 30
0.0
 11
236.219
 21
27.6821
 31
0.0
  0
LINE
  8
0
 62
     0
 10
236.219
 20
27.6821
 30
0.0
 11
236.219
 21
26.6816
 31
0.0
  0
LINE
  8
0
 62
     0
 10
236.219
 20
26.6816
 30
0.0
 11
250.219
 21
26.6816
 31
0.0
  0
LINE
  8
0
 62
     0
 10
250.219
 20
26.6816
 30
0.0
 11
250.219
 21
27.6821
 31
0.0
  0
LINE
  8
0
 62
     0
 10
250.219
 20
27.6821
 30
0.0
 11
251.019
 21
27.6821
 31
0.0
  0
LINE
  8
0
 62
     0
 10
251.019
 20
27.6821
 30
0.0
 11
251.019
 21
30.7812
 31
0.0
  0
LINE
  8
0
 62
     0
 10
251.019
 20
30.7812
 30
0.0
 11
250.219
 21
30.7812
 31
0.0
  0
LINE
  8
0
 62
     0
 10
250.219
 20
30.7812
 30
0.0
 11
250.219
 21
36.5827
 31
0.0
  0
LINE
  8
0
 62
     0
 10
250.219
 20
36.5827
 30
0.0
 11
251.019
 21
36.5827
 31
0.0
  0
LINE
  8
0
 62
     0
 10
251.019
 20
36.5827
 30
0.0
 11
251.019
 21
39.6819
 31
0.0
  0
LINE
  8
0
 62
     0
 10
251.019
 20
39.6819
 30
0.0
 11
250.219
 21
39.6819
 31
0.0
  0
LINE
  8
0
 62
     0
 10
250.219
 20
39.6819
 30
0.0
 11
250.219
 21
40.6809
 31
0.0
  0
LINE
  8
0
 62
     0
 10
250.219
 20
40.6809
 30
0.0
 11
236.219
 21
40.6809
 31
0.0
  0
LINE
  8
0
 62
     0
 10
255.269
 20
40.6809
 30
0.0
 11
255.269
 21
39.6819
 31
0.0
  0
LINE
  8
0
 62
     0
 10
255.269
 20
39.6819
 30
0.0
 11
254.468
 21
39.6819
 31
0.0
  0
LINE
  8
0
 62
     0
 10
254.468
 20
39.6819
 30
0.0
 11
254.468
 21
36.5827
 31
0.0
  0
LINE
  8
0
 62
     0
 10
254.468
 20
36.5827
 30
0.0
 11
255.269
 21
36.5827
 31
0.0
  0
LINE
  8
0
 62
     0
 10
255.269
 20
36.5827
 30
0.0
 11
255.269
 21
30.7812
 31
0.0
  0
LINE
  8
0
 62
     0
 10
255.269
 20
30.7812
 30
0.0
 11
254.468
 21
30.7812
 31
0.0
  0
LINE
  8
0
 62
     0
 10
254.468
 20
30.7812
 30
0.0
 11
254.468
 21
27.6821
 31
0.0
  0
LINE
  8
0
 62
     0
 10
254.468
 20
27.6821
 30
0.0
 11
255.269
 21
27.6821
 31
0.0
  0
LINE
  8
0
 62
     0
 10
255.269
 20
27.6821
 30
0.0
 11
255.269
 21
26.6816
 31
0.0
  0
LINE
  8
0
 62
     0
 10
255.269
 20
26.6816
 30
0.0
 11
269.269
 21
26.6816
 31
0.0
  0
LINE
  8
0
 62
     0
 10
269.269
 20
26.6816
 30
0.0
 11
269.269
 21
27.6821
 31
0.0
  0
LINE
  8
0
 62
     0
 10
269.269
 20
27.6821
 30
0.0
 11
270.069
 21
27.6821
 31
0.0
  0
LINE
  8
0
 62
     0
 10
270.069
 20
27.6821
 30
0.0
 11
270.069
 21
30.7812
 31
0.0
  0
LINE
  8
0
 62
     0
 10
270.069
 20
30.7812
 30
0.0
 11
269.269
 21
30.7812
 31
0.0
  0
LINE
  8
0
 62
     0
 10
269.269
 20
30.7812
 30
0.0
 11
269.269
 21
36.5827
 31
0.0
  0
LINE
  8
0
 62
     0
 10
269.269
 20
36.5827
 30
0.0
 11
270.069
 21
36.5827
 31
0.0
  0
LINE
  8
0
 62
     0
 10
270.069
 20
36.5827
 30
0.0
 11
270.069
 21
39.6819
 31
0.0
  0
LINE
  8
0
 62
     0
 10
270.069
 20
39.6819
 30
0.0
 11
269.269
 21
39.6819
 31
0.0
  0
LINE
  8
0
 62
     0
 10
269.269
 20
39.6819
 30
0.0
 11
269.269
 21
40.6809
 31
0.0
  0
LINE
  8
0
 62
     0
 10
269.269
 20
40.6809
 30
0.0
 11
255.269
 21
40.6809
 31
0.0
  0
LINE
  8
0
 62
     0
 10
274.319
 20
40.6809
 30
0.0
 11
274.319
 21
39.6819
 31
0.0
  0
LINE
  8
0
 62
     0
 10
274.319
 20
39.6819
 30
0.0
 11
273.518
 21
39.6819
 31
0.0
  0
LINE
  8
0
 62
     0
 10
273.518
 20
39.6819
 30
0.0
 11
273.518
 21
36.5827
 31
0.0
  0
LINE
  8
0
 62
     0
 10
273.518
 20
36.5827
 30
0.0
 11
274.319
 21
36.5827
 31
0.0
  0
LINE
  8
0
 62
     0
 10
274.319
 20
36.5827
 30
0.0
 11
274.319
 21
30.7812
 31
0.0
  0
LINE
  8
0
 62
     0
 10
274.319
 20
30.7812
 30
0.0
 11
273.518
 21
30.7812
 31
0.0
  0
LINE
  8
0
 62
     0
 10
273.518
 20
30.7812
 30
0.0
 11
273.518
 21
27.6821
 31
0.0
  0
LINE
  8
0
 62
     0
 10
273.518
 20
27.6821
 30
0.0
 11
274.319
 21
27.6821
 31
0.0
  0
LINE
  8
0
 62
     0
 10
274.319
 20
27.6821
 30
0.0
 11
274.319
 21
26.6816
 31
0.0
  0
LINE
  8
0
 62
     0
 10
274.319
 20
26.6816
 30
0.0
 11
288.319
 21
26.6816
 31
0.0
  0
LINE
  8
0
 62
     0
 10
288.319
 20
26.6816
 30
0.0
 11
288.319
 21
27.6821
 31
0.0
  0
LINE
  8
0
 62
     0
 10
288.319
 20
27.6821
 30
0.0
 11
289.119
 21
27.6821
 31
0.0
  0
LINE
  8
0
 62
     0
 10
289.119
 20
27.6821
 30
0.0
 11
289.119
 21
30.7812
 31
0.0
  0
LINE
  8
0
 62
     0
 10
289.119
 20
30.7812
 30
0.0
 11
288.319
 21
30.7812
 31
0.0
  0
LINE
  8
0
 62
     0
 10
288.319
 20
30.7812
 30
0.0
 11
288.319
 21
36.5827
 31
0.0
  0
LINE
  8
0
 62
     0
 10
288.319
 20
36.5827
 30
0.0
 11
289.119
 21
36.5827
 31
0.0
  0
LINE
  8
0
 62
     0
 10
289.119
 20
36.5827
 30
0.0
 11
289.119
 21
39.6819
 31
0.0
  0
LINE
  8
0
 62
     0
 10
289.119
 20
39.6819
 30
0.0
 11
288.319
 21
39.6819
 31
0.0
  0
LINE
  8
0
 62
     0
 10
288.319
 20
39.6819
 30
0.0
 11
288.319
 21
40.6809
 31
0.0
  0
LINE
  8
0
 62
     0
 10
288.319
 20
40.6809
 30
0.0
 11
274.319
 21
40.6809
 31
0.0
  0
LINE
  8
0
 62
     0
 10
262.412
 20
59.7309
 30
0.0
 11
262.412
 21
58.7319
 31
0.0
  0
LINE
  8
0
 62
     0
 10
262.412
 20
58.7319
 30
0.0
 11
261.612
 21
58.7319
 31
0.0
  0
LINE
  8
0
 62
     0
 10
261.612
 20
58.7319
 30
0.0
 11
261.612
 21
55.6327
 31
0.0
  0
LINE
  8
0
 62
     0
 10
261.612
 20
55.6327
 30
0.0
 11
262.412
 21
55.6327
 31
0.0
  0
LINE
  8
0
 62
     0
 10
262.412
 20
55.6327
 30
0.0
 11
262.412
 21
55.0319
 31
0.0
  0
LINE
  8
0
 62
     0
 10
262.412
 20
55.0319
 30
0.0
 11
260.836
 21
55.0319
 31
0.0
  0
LINE
  8
0
 62
     0
 10
260.836
 20
55.0319
 30
0.0
 11
260.836
 21
58.262
 31
0.0
  0
LINE
  8
0
 62
     0
 10
260.836
 20
58.262
 30
0.0
 11
259.162
 21
58.262
 31
0.0
  0
LINE
  8
0
 62
     0
 10
259.162
 20
58.262
 30
0.0
 11
259.162
 21
59.1813
 31
0.0
  0
LINE
  8
0
 62
     0
 10
259.162
 20
59.1813
 30
0.0
 11
255.86
 21
59.1813
 31
0.0
  0
LINE
  8
0
 62
     0
 10
255.86
 20
59.1813
 30
0.0
 11
255.86
 21
58.262
 31
0.0
  0
LINE
  8
0
 62
     0
 10
255.86
 20
58.262
 30
0.0
 11
254.187
 21
58.262
 31
0.0
  0
LINE
  8
0
 62
     0
 10
254.187
 20
58.262
 30
0.0
 11
254.187
 21
55.0319
 31
0.0
  0
LINE
  8
0
 62
     0
 10
254.187
 20
55.0319
 30
0.0
 11
253.312
 21
55.0319
 31
0.0
  0
LINE
  8
0
 62
     0
 10
253.312
 20
55.0319
 30
0.0
 11
253.312
 21
52.2319
 31
0.0
  0
LINE
  8
0
 62
     0
 10
253.312
 20
52.2319
 30
0.0
 11
254.187
 21
52.2319
 31
0.0
  0
LINE
  8
0
 62
     0
 10
254.187
 20
52.2319
 30
0.0
 11
254.187
 21
45.9617
 31
0.0
  0
LINE
  8
0
 62
     0
 10
254.187
 20
45.9617
 30
0.0
 11
255.86
 21
45.9617
 31
0.0
  0
LINE
  8
0
 62
     0
 10
255.86
 20
45.9617
 30
0.0
 11
255.86
 21
44.982
 31
0.0
  0
LINE
  8
0
 62
     0
 10
255.86
 20
44.982
 30
0.0
 11
259.162
 21
44.982
 31
0.0
  0
LINE
  8
0
 62
     0
 10
259.162
 20
44.982
 30
0.0
 11
259.162
 21
45.9617
 31
0.0
  0
LINE
  8
0
 62
     0
 10
259.162
 20
45.9617
 30
0.0
 11
260.836
 21
45.9617
 31
0.0
  0
LINE
  8
0
 62
     0
 10
260.836
 20
45.9617
 30
0.0
 11
260.836
 21
50.4321
 31
0.0
  0
LINE
  8
0
 62
     0
 10
260.836
 20
50.4321
 30
0.0
 11
262.412
 21
50.4321
 31
0.0
  0
LINE
  8
0
 62
     0
 10
262.412
 20
50.4321
 30
0.0
 11
262.412
 21
49.8313
 31
0.0
  0
LINE
  8
0
 62
     0
 10
262.412
 20
49.8313
 30
0.0
 11
261.612
 21
49.8313
 31
0.0
  0
LINE
  8
0
 62
     0
 10
261.612
 20
49.8313
 30
0.0
 11
261.612
 21
46.7321
 31
0.0
  0
LINE
  8
0
 62
     0
 10
261.612
 20
46.7321
 30
0.0
 11
262.412
 21
46.7321
 31
0.0
  0
LINE
  8
0
 62
     0
 10
262.412
 20
46.7321
 30
0.0
 11
262.412
 21
45.7316
 31
0.0
  0
LINE
  8
0
 62
     0
 10
262.412
 20
45.7316
 30
0.0
 11
276.412
 21
45.7316
 31
0.0
  0
LINE
  8
0
 62
     0
 10
276.412
 20
45.7316
 30
0.0
 11
276.412
 21
46.7321
 31
0.0
  0
LINE
  8
0
 62
     0
 10
276.412
 20
46.7321
 30
0.0
 11
277.212
 21
46.7321
 31
0.0
  0
LINE
  8
0
 62
     0
 10
277.212
 20
46.7321
 30
0.0
 11
277.212
 21
49.8313
 31
0.0
  0
LINE
  8
0
 62
     0
 10
277.212
 20
49.8313
 30
0.0
 11
276.412
 21
49.8313
 31
0.0
  0
LINE
  8
0
 62
     0
 10
276.412
 20
49.8313
 30
0.0
 11
276.412
 21
50.4321
 31
0.0
  0
LINE
  8
0
 62
     0
 10
276.412
 20
50.4321
 30
0.0
 11
277.986
 21
50.4321
 31
0.0
  0
LINE
  8
0
 62
     0
 10
277.986
 20
50.4321
 30
0.0
 11
277.986
 21
45.9617
 31
0.0
  0
LINE
  8
0
 62
     0
 10
277.986
 20
45.9617
 30
0.0
 11
279.662
 21
45.9617
 31
0.0
  0
LINE
  8
0
 62
     0
 10
279.662
 20
45.9617
 30
0.0
 11
279.662
 21
44.982
 31
0.0
  0
LINE
  8
0
 62
     0
 10
279.662
 20
44.982
 30
0.0
 11
282.962
 21
44.982
 31
0.0
  0
LINE
  8
0
 62
     0
 10
282.962
 20
44.982
 30
0.0
 11
282.962
 21
45.9617
 31
0.0
  0
LINE
  8
0
 62
     0
 10
282.962
 20
45.9617
 30
0.0
 11
284.637
 21
45.9617
 31
0.0
  0
LINE
  8
0
 62
     0
 10
284.637
 20
45.9617
 30
0.0
 11
284.637
 21
52.2319
 31
0.0
  0
LINE
  8
0
 62
     0
 10
284.637
 20
52.2319
 30
0.0
 11
285.512
 21
52.2319
 31
0.0
  0
LINE
  8
0
 62
     0
 10
285.512
 20
52.2319
 30
0.0
 11
285.512
 21
55.0319
 31
0.0
  0
LINE
  8
0
 62
     0
 10
285.512
 20
55.0319
 30
0.0
 11
284.637
 21
55.0319
 31
0.0
  0
LINE
  8
0
 62
     0
 10
284.637
 20
55.0319
 30
0.0
 11
284.637
 21
58.262
 31
0.0
  0
LINE
  8
0
 62
     0
 10
284.637
 20
58.262
 30
0.0
 11
282.962
 21
58.262
 31
0.0
  0
LINE
  8
0
 62
     0
 10
282.962
 20
58.262
 30
0.0
 11
282.962
 21
59.1813
 31
0.0
  0
LINE
  8
0
 62
     0
 10
282.962
 20
59.1813
 30
0.0
 11
279.662
 21
59.1813
 31
0.0
  0
LINE
  8
0
 62
     0
 10
279.662
 20
59.1813
 30
0.0
 11
279.662
 21
58.262
 31
0.0
  0
LINE
  8
0
 62
     0
 10
279.662
 20
58.262
 30
0.0
 11
277.986
 21
58.262
 31
0.0
  0
LINE
  8
0
 62
     0
 10
277.986
 20
58.262
 30
0.0
 11
277.986
 21
55.0319
 31
0.0
  0
LINE
  8
0
 62
     0
 10
277.986
 20
55.0319
 30
0.0
 11
276.412
 21
55.0319
 31
0.0
  0
LINE
  8
0
 62
     0
 10
276.412
 20
55.0319
 30
0.0
 11
276.412
 21
55.6327
 31
0.0
  0
LINE
  8
0
 62
     0
 10
276.412
 20
55.6327
 30
0.0
 11
277.212
 21
55.6327
 31
0.0
  0
LINE
  8
0
 62
     0
 10
277.212
 20
55.6327
 30
0.0
 11
277.212
 21
58.7319
 31
0.0
  0
LINE
  8
0
 62
     0
 10
277.212
 20
58.7319
 30
0.0
 11
276.412
 21
58.7319
 31
0.0
  0
LINE
  8
0
 62
     0
 10
276.412
 20
58.7319
 30
0.0
 11
276.412
 21
59.7309
 31
0.0
  0
LINE
  8
0
 62
     0
 10
276.412
 20
59.7309
 30
0.0
 11
262.412
 21
59.7309
 31
0.0
  0
LINE
  8
0
 62
     0
 10
14.7616
 20
59.7309
 30
0.0
 11
14.7616
 21
58.7319
 31
0.0
  0
LINE
  8
0
 62
     0
 10
14.7616
 20
58.7319
 30
0.0
 11
13.9623
 21
58.7319
 31
0.0
  0
LINE
  8
0
 62
     0
 10
13.9623
 20
58.7319
 30
0.0
 11
13.9623
 21
55.6327
 31
0.0
  0
LINE
  8
0
 62
     0
 10
13.9623
 20
55.6327
 30
0.0
 11
14.7616
 21
55.6327
 31
0.0
  0
LINE
  8
0
 62
     0
 10
14.7616
 20
55.6327
 30
0.0
 11
14.7616
 21
49.8313
 31
0.0
  0
LINE
  8
0
 62
     0
 10
14.7616
 20
49.8313
 30
0.0
 11
13.9623
 21
49.8313
 31
0.0
  0
LINE
  8
0
 62
     0
 10
13.9623
 20
49.8313
 30
0.0
 11
13.9623
 21
46.7321
 31
0.0
  0
LINE
  8
0
 62
     0
 10
13.9623
 20
46.7321
 30
0.0
 11
14.7616
 21
46.7321
 31
0.0
  0
LINE
  8
0
 62
     0
 10
14.7616
 20
46.7321
 30
0.0
 11
14.7616
 21
45.7316
 31
0.0
  0
LINE
  8
0
 62
     0
 10
14.7616
 20
45.7316
 30
0.0
 11
28.7624
 21
45.7316
 31
0.0
  0
LINE
  8
0
 62
     0
 10
28.7624
 20
45.7316
 30
0.0
 11
28.7624
 21
46.7321
 31
0.0
  0
LINE
  8
0
 62
     0
 10
28.7624
 20
46.7321
 30
0.0
 11
29.5617
 21
46.7321
 31
0.0
  0
LINE
  8
0
 62
     0
 10
29.5617
 20
46.7321
 30
0.0
 11
29.5617
 21
49.8313
 31
0.0
  0
LINE
  8
0
 62
     0
 10
29.5617
 20
49.8313
 30
0.0
 11
28.7624
 21
49.8313
 31
0.0
  0
LINE
  8
0
 62
     0
 10
28.7624
 20
49.8313
 30
0.0
 11
28.7624
 21
55.6327
 31
0.0
  0
LINE
  8
0
 62
     0
 10
28.7624
 20
55.6327
 30
0.0
 11
29.5617
 21
55.6327
 31
0.0
  0
LINE
  8
0
 62
     0
 10
29.5617
 20
55.6327
 30
0.0
 11
29.5617
 21
58.7319
 31
0.0
  0
LINE
  8
0
 62
     0
 10
29.5617
 20
58.7319
 30
0.0
 11
28.7624
 21
58.7319
 31
0.0
  0
LINE
  8
0
 62
     0
 10
28.7624
 20
58.7319
 30
0.0
 11
28.7624
 21
59.7309
 31
0.0
  0
LINE
  8
0
 62
     0
 10
28.7624
 20
59.7309
 30
0.0
 11
14.7616
 21
59.7309
 31
0.0
  0
LINE
  8
0
 62
     0
 10
40.9554
 20
59.7309
 30
0.0
 11
40.9554
 21
58.7319
 31
0.0
  0
LINE
  8
0
 62
     0
 10
40.9554
 20
58.7319
 30
0.0
 11
40.156
 21
58.7319
 31
0.0
  0
LINE
  8
0
 62
     0
 10
40.156
 20
58.7319
 30
0.0
 11
40.156
 21
55.6327
 31
0.0
  0
LINE
  8
0
 62
     0
 10
40.156
 20
55.6327
 30
0.0
 11
40.9554
 21
55.6327
 31
0.0
  0
LINE
  8
0
 62
     0
 10
40.9554
 20
55.6327
 30
0.0
 11
40.9554
 21
49.8313
 31
0.0
  0
LINE
  8
0
 62
     0
 10
40.9554
 20
49.8313
 30
0.0
 11
40.156
 21
49.8313
 31
0.0
  0
LINE
  8
0
 62
     0
 10
40.156
 20
49.8313
 30
0.0
 11
40.156
 21
46.7321
 31
0.0
  0
LINE
  8
0
 62
     0
 10
40.156
 20
46.7321
 30
0.0
 11
40.9554
 21
46.7321
 31
0.0
  0
LINE
  8
0
 62
     0
 10
40.9554
 20
46.7321
 30
0.0
 11
40.9554
 21
45.7316
 31
0.0
  0
LINE
  8
0
 62
     0
 10
40.9554
 20
45.7316
 30
0.0
 11
54.9561
 21
45.7316
 31
0.0
  0
LINE
  8
0
 62
     0
 10
54.9561
 20
45.7316
 30
0.0
 11
54.9561
 21
46.7321
 31
0.0
  0
LINE
  8
0
 62
     0
 10
54.9561
 20
46.7321
 30
0.0
 11
55.7555
 21
46.7321
 31
0.0
  0
LINE
  8
0
 62
     0
 10
55.7555
 20
46.7321
 30
0.0
 11
55.7555
 21
49.8313
 31
0.0
  0
LINE
  8
0
 62
     0
 10
55.7555
 20
49.8313
 30
0.0
 11
54.9561
 21
49.8313
 31
0.0
  0
LINE
  8
0
 62
     0
 10
54.9561
 20
49.8313
 30
0.0
 11
54.9561
 21
55.6327
 31
0.0
  0
LINE
  8
0
 62
     0
 10
54.9561
 20
55.6327
 30
0.0
 11
55.7555
 21
55.6327
 31
0.0
  0
LINE
  8
0
 62
     0
 10
55.7555
 20
55.6327
 30
0.0
 11
55.7555
 21
58.7319
 31
0.0
  0
LINE
  8
0
 62
     0
 10
55.7555
 20
58.7319
 30
0.0
 11
54.9561
 21
58.7319
 31
0.0
  0
LINE
  8
0
 62
     0
 10
54.9561
 20
58.7319
 30
0.0
 11
54.9561
 21
59.7309
 31
0.0
  0
LINE
  8
0
 62
     0
 10
54.9561
 20
59.7309
 30
0.0
 11
40.9554
 21
59.7309
 31
0.0
  0
LINE
  8
0
 62
     0
 10
60.0054
 20
59.7309
 30
0.0
 11
60.0054
 21
58.7319
 31
0.0
  0
LINE
  8
0
 62
     0
 10
60.0054
 20
58.7319
 30
0.0
 11
59.2046
 21
58.7319
 31
0.0
  0
LINE
  8
0
 62
     0
 10
59.2046
 20
58.7319
 30
0.0
 11
59.2046
 21
55.6327
 31
0.0
  0
LINE
  8
0
 62
     0
 10
59.2046
 20
55.6327
 30
0.0
 11
60.0054
 21
55.6327
 31
0.0
  0
LINE
  8
0
 62
     0
 10
60.0054
 20
55.6327
 30
0.0
 11
60.0054
 21
49.8313
 31
0.0
  0
LINE
  8
0
 62
     0
 10
60.0054
 20
49.8313
 30
0.0
 11
59.2046
 21
49.8313
 31
0.0
  0
LINE
  8
0
 62
     0
 10
59.2046
 20
49.8313
 30
0.0
 11
59.2046
 21
46.7321
 31
0.0
  0
LINE
  8
0
 62
     0
 10
59.2046
 20
46.7321
 30
0.0
 11
60.0054
 21
46.7321
 31
0.0
  0
LINE
  8
0
 62
     0
 10
60.0054
 20
46.7321
 30
0.0
 11
60.0054
 21
45.7316
 31
0.0
  0
LINE
  8
0
 62
     0
 10
60.0054
 20
45.7316
 30
0.0
 11
74.0061
 21
45.7316
 31
0.0
  0
LINE
  8
0
 62
     0
 10
74.0061
 20
45.7316
 30
0.0
 11
74.0061
 21
46.7321
 31
0.0
  0
LINE
  8
0
 62
     0
 10
74.0061
 20
46.7321
 30
0.0
 11
74.8055
 21
46.7321
 31
0.0
  0
LINE
  8
0
 62
     0
 10
74.8055
 20
46.7321
 30
0.0
 11
74.8055
 21
49.8313
 31
0.0
  0
LINE
  8
0
 62
     0
 10
74.8055
 20
49.8313
 30
0.0
 11
74.0061
 21
49.8313
 31
0.0
  0
LINE
  8
0
 62
     0
 10
74.0061
 20
49.8313
 30
0.0
 11
74.0061
 21
55.6327
 31
0.0
  0
LINE
  8
0
 62
     0
 10
74.0061
 20
55.6327
 30
0.0
 11
74.8055
 21
55.6327
 31
0.0
  0
LINE
  8
0
 62
     0
 10
74.8055
 20
55.6327
 30
0.0
 11
74.8055
 21
58.7319
 31
0.0
  0
LINE
  8
0
 62
     0
 10
74.8055
 20
58.7319
 30
0.0
 11
74.0061
 21
58.7319
 31
0.0
  0
LINE
  8
0
 62
     0
 10
74.0061
 20
58.7319
 30
0.0
 11
74.0061
 21
59.7309
 31
0.0
  0
LINE
  8
0
 62
     0
 10
74.0061
 20
59.7309
 30
0.0
 11
60.0054
 21
59.7309
 31
0.0
  0
LINE
  8
0
 62
     0
 10
79.0554
 20
59.7309
 30
0.0
 11
79.0554
 21
58.7319
 31
0.0
  0
LINE
  8
0
 62
     0
 10
79.0554
 20
58.7319
 30
0.0
 11
78.256
 21
58.7319
 31
0.0
  0
LINE
  8
0
 62
     0
 10
78.256
 20
58.7319
 30
0.0
 11
78.256
 21
55.6327
 31
0.0
  0
LINE
  8
0
 62
     0
 10
78.256
 20
55.6327
 30
0.0
 11
79.0554
 21
55.6327
 31
0.0
  0
LINE
  8
0
 62
     0
 10
79.0554
 20
55.6327
 30
0.0
 11
79.0554
 21
49.8313
 31
0.0
  0
LINE
  8
0
 62
     0
 10
79.0554
 20
49.8313
 30
0.0
 11
78.256
 21
49.8313
 31
0.0
  0
LINE
  8
0
 62
     0
 10
78.256
 20
49.8313
 30
0.0
 11
78.256
 21
46.7321
 31
0.0
  0
LINE
  8
0
 62
     0
 10
78.256
 20
46.7321
 30
0.0
 11
79.0554
 21
46.7321
 31
0.0
  0
LINE
  8
0
 62
     0
 10
79.0554
 20
46.7321
 30
0.0
 11
79.0554
 21
45.7316
 31
0.0
  0
LINE
  8
0
 62
     0
 10
79.0554
 20
45.7316
 30
0.0
 11
93.0561
 21
45.7316
 31
0.0
  0
LINE
  8
0
 62
     0
 10
93.0561
 20
45.7316
 30
0.0
 11
93.0561
 21
46.7321
 31
0.0
  0
LINE
  8
0
 62
     0
 10
93.0561
 20
46.7321
 30
0.0
 11
93.8555
 21
46.7321
 31
0.0
  0
LINE
  8
0
 62
     0
 10
93.8555
 20
46.7321
 30
0.0
 11
93.8555
 21
49.8313
 31
0.0
  0
LINE
  8
0
 62
     0
 10
93.8555
 20
49.8313
 30
0.0
 11
93.0561
 21
49.8313
 31
0.0
  0
LINE
  8
0
 62
     0
 10
93.0561
 20
49.8313
 30
0.0
 11
93.0561
 21
55.6327
 31
0.0
  0
LINE
  8
0
 62
     0
 10
93.0561
 20
55.6327
 30
0.0
 11
93.8555
 21
55.6327
 31
0.0
  0
LINE
  8
0
 62
     0
 10
93.8555
 20
55.6327
 30
0.0
 11
93.8555
 21
58.7319
 31
0.0
  0
LINE
  8
0
 62
     0
 10
93.8555
 20
58.7319
 30
0.0
 11
93.0561
 21
58.7319
 31
0.0
  0
LINE
  8
0
 62
     0
 10
93.0561
 20
58.7319
 30
0.0
 11
93.0561
 21
59.7309
 31
0.0
  0
LINE
  8
0
 62
     0
 10
93.0561
 20
59.7309
 30
0.0
 11
79.0554
 21
59.7309
 31
0.0
  0
LINE
  8
0
 62
     0
 10
98.1054
 20
59.7309
 30
0.0
 11
98.1054
 21
58.7319
 31
0.0
  0
LINE
  8
0
 62
     0
 10
98.1054
 20
58.7319
 30
0.0
 11
97.306
 21
58.7319
 31
0.0
  0
LINE
  8
0
 62
     0
 10
97.306
 20
58.7319
 30
0.0
 11
97.306
 21
55.6327
 31
0.0
  0
LINE
  8
0
 62
     0
 10
97.306
 20
55.6327
 30
0.0
 11
98.1054
 21
55.6327
 31
0.0
  0
LINE
  8
0
 62
     0
 10
98.1054
 20
55.6327
 30
0.0
 11
98.1054
 21
49.8313
 31
0.0
  0
LINE
  8
0
 62
     0
 10
98.1054
 20
49.8313
 30
0.0
 11
97.306
 21
49.8313
 31
0.0
  0
LINE
  8
0
 62
     0
 10
97.306
 20
49.8313
 30
0.0
 11
97.306
 21
46.7321
 31
0.0
  0
LINE
  8
0
 62
     0
 10
97.306
 20
46.7321
 30
0.0
 11
98.1054
 21
46.7321
 31
0.0
  0
LINE
  8
0
 62
     0
 10
98.1054
 20
46.7321
 30
0.0
 11
98.1054
 21
45.7316
 31
0.0
  0
LINE
  8
0
 62
     0
 10
98.1054
 20
45.7316
 30
0.0
 11
112.106
 21
45.7316
 31
0.0
  0
LINE
  8
0
 62
     0
 10
112.106
 20
45.7316
 30
0.0
 11
112.106
 21
46.7321
 31
0.0
  0
LINE
  8
0
 62
     0
 10
112.106
 20
46.7321
 30
0.0
 11
112.905
 21
46.7321
 31
0.0
  0
LINE
  8
0
 62
     0
 10
112.905
 20
46.7321
 30
0.0
 11
112.905
 21
49.8313
 31
0.0
  0
LINE
  8
0
 62
     0
 10
112.905
 20
49.8313
 30
0.0
 11
112.106
 21
49.8313
 31
0.0
  0
LINE
  8
0
 62
     0
 10
112.106
 20
49.8313
 30
0.0
 11
112.106
 21
55.6327
 31
0.0
  0
LINE
  8
0
 62
     0
 10
112.106
 20
55.6327
 30
0.0
 11
112.905
 21
55.6327
 31
0.0
  0
LINE
  8
0
 62
     0
 10
112.905
 20
55.6327
 30
0.0
 11
112.905
 21
58.7319
 31
0.0
  0
LINE
  8
0
 62
     0
 10
112.905
 20
58.7319
 30
0.0
 11
112.106
 21
58.7319
 31
0.0
  0
LINE
  8
0
 62
     0
 10
112.106
 20
58.7319
 30
0.0
 11
112.106
 21
59.7309
 31
0.0
  0
LINE
  8
0
 62
     0
 10
112.106
 20
59.7309
 30
0.0
 11
98.1054
 21
59.7309
 31
0.0
  0
LINE
  8
0
 62
     0
 10
117.155
 20
59.7309
 30
0.0
 11
117.155
 21
58.7319
 31
0.0
  0
LINE
  8
0
 62
     0
 10
117.155
 20
58.7319
 30
0.0
 11
116.356
 21
58.7319
 31
0.0
  0
LINE
  8
0
 62
     0
 10
116.356
 20
58.7319
 30
0.0
 11
116.356
 21
55.6327
 31
0.0
  0
LINE
  8
0
 62
     0
 10
116.356
 20
55.6327
 30
0.0
 11
117.155
 21
55.6327
 31
0.0
  0
LINE
  8
0
 62
     0
 10
117.155
 20
55.6327
 30
0.0
 11
117.155
 21
49.8313
 31
0.0
  0
LINE
  8
0
 62
     0
 10
117.155
 20
49.8313
 30
0.0
 11
116.356
 21
49.8313
 31
0.0
  0
LINE
  8
0
 62
     0
 10
116.356
 20
49.8313
 30
0.0
 11
116.356
 21
46.7321
 31
0.0
  0
LINE
  8
0
 62
     0
 10
116.356
 20
46.7321
 30
0.0
 11
117.155
 21
46.7321
 31
0.0
  0
LINE
  8
0
 62
     0
 10
117.155
 20
46.7321
 30
0.0
 11
117.155
 21
45.7316
 31
0.0
  0
LINE
  8
0
 62
     0
 10
117.155
 20
45.7316
 30
0.0
 11
131.156
 21
45.7316
 31
0.0
  0
LINE
  8
0
 62
     0
 10
131.156
 20
45.7316
 30
0.0
 11
131.156
 21
46.7321
 31
0.0
  0
LINE
  8
0
 62
     0
 10
131.156
 20
46.7321
 30
0.0
 11
131.955
 21
46.7321
 31
0.0
  0
LINE
  8
0
 62
     0
 10
131.955
 20
46.7321
 30
0.0
 11
131.955
 21
49.8313
 31
0.0
  0
LINE
  8
0
 62
     0
 10
131.955
 20
49.8313
 30
0.0
 11
131.156
 21
49.8313
 31
0.0
  0
LINE
  8
0
 62
     0
 10
131.156
 20
49.8313
 30
0.0
 11
131.156
 21
55.6327
 31
0.0
  0
LINE
  8
0
 62
     0
 10
131.156
 20
55.6327
 30
0.0
 11
131.955
 21
55.6327
 31
0.0
  0
LINE
  8
0
 62
     0
 10
131.955
 20
55.6327
 30
0.0
 11
131.955
 21
58.7319
 31
0.0
  0
LINE
  8
0
 62
     0
 10
131.955
 20
58.7319
 30
0.0
 11
131.156
 21
58.7319
 31
0.0
  0
LINE
  8
0
 62
     0
 10
131.156
 20
58.7319
 30
0.0
 11
131.156
 21
59.7309
 31
0.0
  0
LINE
  8
0
 62
     0
 10
131.156
 20
59.7309
 30
0.0
 11
117.155
 21
59.7309
 31
0.0
  0
LINE
  8
0
 62
     0
 10
136.205
 20
59.7309
 30
0.0
 11
136.205
 21
58.7319
 31
0.0
  0
LINE
  8
0
 62
     0
 10
136.205
 20
58.7319
 30
0.0
 11
135.406
 21
58.7319
 31
0.0
  0
LINE
  8
0
 62
     0
 10
135.406
 20
58.7319
 30
0.0
 11
135.406
 21
55.6327
 31
0.0
  0
LINE
  8
0
 62
     0
 10
135.406
 20
55.6327
 30
0.0
 11
136.205
 21
55.6327
 31
0.0
  0
LINE
  8
0
 62
     0
 10
136.205
 20
55.6327
 30
0.0
 11
136.205
 21
49.8313
 31
0.0
  0
LINE
  8
0
 62
     0
 10
136.205
 20
49.8313
 30
0.0
 11
135.406
 21
49.8313
 31
0.0
  0
LINE
  8
0
 62
     0
 10
135.406
 20
49.8313
 30
0.0
 11
135.406
 21
46.7321
 31
0.0
  0
LINE
  8
0
 62
     0
 10
135.406
 20
46.7321
 30
0.0
 11
136.205
 21
46.7321
 31
0.0
  0
LINE
  8
0
 62
     0
 10
136.205
 20
46.7321
 30
0.0
 11
136.205
 21
45.7316
 31
0.0
  0
LINE
  8
0
 62
     0
 10
136.205
 20
45.7316
 30
0.0
 11
150.206
 21
45.7316
 31
0.0
  0
LINE
  8
0
 62
     0
 10
150.206
 20
45.7316
 30
0.0
 11
150.206
 21
46.7321
 31
0.0
  0
LINE
  8
0
 62
     0
 10
150.206
 20
46.7321
 30
0.0
 11
151.005
 21
46.7321
 31
0.0
  0
LINE
  8
0
 62
     0
 10
151.005
 20
46.7321
 30
0.0
 11
151.005
 21
49.8313
 31
0.0
  0
LINE
  8
0
 62
     0
 10
151.005
 20
49.8313
 30
0.0
 11
150.206
 21
49.8313
 31
0.0
  0
LINE
  8
0
 62
     0
 10
150.206
 20
49.8313
 30
0.0
 11
150.206
 21
55.6327
 31
0.0
  0
LINE
  8
0
 62
     0
 10
150.206
 20
55.6327
 30
0.0
 11
151.005
 21
55.6327
 31
0.0
  0
LINE
  8
0
 62
     0
 10
151.005
 20
55.6327
 30
0.0
 11
151.005
 21
58.7319
 31
0.0
  0
LINE
  8
0
 62
     0
 10
151.005
 20
58.7319
 30
0.0
 11
150.206
 21
58.7319
 31
0.0
  0
LINE
  8
0
 62
     0
 10
150.206
 20
58.7319
 30
0.0
 11
150.206
 21
59.7309
 31
0.0
  0
LINE
  8
0
 62
     0
 10
150.206
 20
59.7309
 30
0.0
 11
136.205
 21
59.7309
 31
0.0
  0
LINE
  8
0
 62
     0
 10
155.255
 20
59.7309
 30
0.0
 11
155.255
 21
58.7319
 31
0.0
  0
LINE
  8
0
 62
     0
 10
155.255
 20
58.7319
 30
0.0
 11
154.456
 21
58.7319
 31
0.0
  0
LINE
  8
0
 62
     0
 10
154.456
 20
58.7319
 30
0.0
 11
154.456
 21
55.6327
 31
0.0
  0
LINE
  8
0
 62
     0
 10
154.456
 20
55.6327
 30
0.0
 11
155.255
 21
55.6327
 31
0.0
  0
LINE
  8
0
 62
     0
 10
155.255
 20
55.6327
 30
0.0
 11
155.255
 21
49.8313
 31
0.0
  0
LINE
  8
0
 62
     0
 10
155.255
 20
49.8313
 30
0.0
 11
154.456
 21
49.8313
 31
0.0
  0
LINE
  8
0
 62
     0
 10
154.456
 20
49.8313
 30
0.0
 11
154.456
 21
46.7321
 31
0.0
  0
LINE
  8
0
 62
     0
 10
154.456
 20
46.7321
 30
0.0
 11
155.255
 21
46.7321
 31
0.0
  0
LINE
  8
0
 62
     0
 10
155.255
 20
46.7321
 30
0.0
 11
155.255
 21
45.7316
 31
0.0
  0
LINE
  8
0
 62
     0
 10
155.255
 20
45.7316
 30
0.0
 11
169.256
 21
45.7316
 31
0.0
  0
LINE
  8
0
 62
     0
 10
169.256
 20
45.7316
 30
0.0
 11
169.256
 21
46.7321
 31
0.0
  0
LINE
  8
0
 62
     0
 10
169.256
 20
46.7321
 30
0.0
 11
170.055
 21
46.7321
 31
0.0
  0
LINE
  8
0
 62
     0
 10
170.055
 20
46.7321
 30
0.0
 11
170.055
 21
49.8313
 31
0.0
  0
LINE
  8
0
 62
     0
 10
170.055
 20
49.8313
 30
0.0
 11
169.256
 21
49.8313
 31
0.0
  0
LINE
  8
0
 62
     0
 10
169.256
 20
49.8313
 30
0.0
 11
169.256
 21
55.6327
 31
0.0
  0
LINE
  8
0
 62
     0
 10
169.256
 20
55.6327
 30
0.0
 11
170.055
 21
55.6327
 31
0.0
  0
LINE
  8
0
 62
     0
 10
170.055
 20
55.6327
 30
0.0
 11
170.055
 21
58.7319
 31
0.0
  0
LINE
  8
0
 62
     0
 10
170.055
 20
58.7319
 30
0.0
 11
169.256
 21
58.7319
 31
0.0
  0
LINE
  8
0
 62
     0
 10
169.256
 20
58.7319
 30
0.0
 11
169.256
 21
59.7309
 31
0.0
  0
LINE
  8
0
 62
     0
 10
169.256
 20
59.7309
 30
0.0
 11
155.255
 21
59.7309
 31
0.0
  0
LINE
  8
0
 62
     0
 10
174.305
 20
59.7309
 30
0.0
 11
174.305
 21
58.7319
 31
0.0
  0
LINE
  8
0
 62
     0
 10
174.305
 20
58.7319
 30
0.0
 11
173.506
 21
58.7319
 31
0.0
  0
LINE
  8
0
 62
     0
 10
173.506
 20
58.7319
 30
0.0
 11
173.506
 21
55.6327
 31
0.0
  0
LINE
  8
0
 62
     0
 10
173.506
 20
55.6327
 30
0.0
 11
174.305
 21
55.6327
 31
0.0
  0
LINE
  8
0
 62
     0
 10
174.305
 20
55.6327
 30
0.0
 11
174.305
 21
49.8313
 31
0.0
  0
LINE
  8
0
 62
     0
 10
174.305
 20
49.8313
 30
0.0
 11
173.506
 21
49.8313
 31
0.0
  0
LINE
  8
0
 62
     0
 10
173.506
 20
49.8313
 30
0.0
 11
173.506
 21
46.7321
 31
0.0
  0
LINE
  8
0
 62
     0
 10
173.506
 20
46.7321
 30
0.0
 11
174.305
 21
46.7321
 31
0.0
  0
LINE
  8
0
 62
     0
 10
174.305
 20
46.7321
 30
0.0
 11
174.305
 21
45.7316
 31
0.0
  0
LINE
  8
0
 62
     0
 10
174.305
 20
45.7316
 30
0.0
 11
188.306
 21
45.7316
 31
0.0
  0
LINE
  8
0
 62
     0
 10
188.306
 20
45.7316
 30
0.0
 11
188.306
 21
46.7321
 31
0.0
  0
LINE
  8
0
 62
     0
 10
188.306
 20
46.7321
 30
0.0
 11
189.105
 21
46.7321
 31
0.0
  0
LINE
  8
0
 62
     0
 10
189.105
 20
46.7321
 30
0.0
 11
189.105
 21
49.8313
 31
0.0
  0
LINE
  8
0
 62
     0
 10
189.105
 20
49.8313
 30
0.0
 11
188.306
 21
49.8313
 31
0.0
  0
LINE
  8
0
 62
     0
 10
188.306
 20
49.8313
 30
0.0
 11
188.306
 21
55.6327
 31
0.0
  0
LINE
  8
0
 62
     0
 10
188.306
 20
55.6327
 30
0.0
 11
189.105
 21
55.6327
 31
0.0
  0
LINE
  8
0
 62
     0
 10
189.105
 20
55.6327
 30
0.0
 11
189.105
 21
58.7319
 31
0.0
  0
LINE
  8
0
 62
     0
 10
189.105
 20
58.7319
 30
0.0
 11
188.306
 21
58.7319
 31
0.0
  0
LINE
  8
0
 62
     0
 10
188.306
 20
58.7319
 30
0.0
 11
188.306
 21
59.7309
 31
0.0
  0
LINE
  8
0
 62
     0
 10
188.306
 20
59.7309
 30
0.0
 11
174.305
 21
59.7309
 31
0.0
  0
LINE
  8
0
 62
     0
 10
193.355
 20
59.7309
 30
0.0
 11
193.355
 21
58.7319
 31
0.0
  0
LINE
  8
0
 62
     0
 10
193.355
 20
58.7319
 30
0.0
 11
192.556
 21
58.7319
 31
0.0
  0
LINE
  8
0
 62
     0
 10
192.556
 20
58.7319
 30
0.0
 11
192.556
 21
55.6327
 31
0.0
  0
LINE
  8
0
 62
     0
 10
192.556
 20
55.6327
 30
0.0
 11
193.355
 21
55.6327
 31
0.0
  0
LINE
  8
0
 62
     0
 10
193.355
 20
55.6327
 30
0.0
 11
193.355
 21
49.8313
 31
0.0
  0
LINE
  8
0
 62
     0
 10
193.355
 20
49.8313
 30
0.0
 11
192.556
 21
49.8313
 31
0.0
  0
LINE
  8
0
 62
     0
 10
192.556
 20
49.8313
 30
0.0
 11
192.556
 21
46.7321
 31
0.0
  0
LINE
  8
0
 62
     0
 10
192.556
 20
46.7321
 30
0.0
 11
193.355
 21
46.7321
 31
0.0
  0
LINE
  8
0
 62
     0
 10
193.355
 20
46.7321
 30
0.0
 11
193.355
 21
45.7316
 31
0.0
  0
LINE
  8
0
 62
     0
 10
193.355
 20
45.7316
 30
0.0
 11
207.356
 21
45.7316
 31
0.0
  0
LINE
  8
0
 62
     0
 10
207.356
 20
45.7316
 30
0.0
 11
207.356
 21
46.7321
 31
0.0
  0
LINE
  8
0
 62
     0
 10
207.356
 20
46.7321
 30
0.0
 11
208.155
 21
46.7321
 31
0.0
  0
LINE
  8
0
 62
     0
 10
208.155
 20
46.7321
 30
0.0
 11
208.155
 21
49.8313
 31
0.0
  0
LINE
  8
0
 62
     0
 10
208.155
 20
49.8313
 30
0.0
 11
207.356
 21
49.8313
 31
0.0
  0
LINE
  8
0
 62
     0
 10
207.356
 20
49.8313
 30
0.0
 11
207.356
 21
55.6327
 31
0.0
  0
LINE
  8
0
 62
     0
 10
207.356
 20
55.6327
 30
0.0
 11
208.155
 21
55.6327
 31
0.0
  0
LINE
  8
0
 62
     0
 10
208.155
 20
55.6327
 30
0.0
 11
208.155
 21
58.7319
 31
0.0
  0
LINE
  8
0
 62
     0
 10
208.155
 20
58.7319
 30
0.0
 11
207.356
 21
58.7319
 31
0.0
  0
LINE
  8
0
 62
     0
 10
207.356
 20
58.7319
 30
0.0
 11
207.356
 21
59.7309
 31
0.0
  0
LINE
  8
0
 62
     0
 10
207.356
 20
59.7309
 30
0.0
 11
193.355
 21
59.7309
 31
0.0
  0
LINE
  8
0
 62
     0
 10
212.405
 20
59.7309
 30
0.0
 11
212.405
 21
58.7319
 31
0.0
  0
LINE
  8
0
 62
     0
 10
212.405
 20
58.7319
 30
0.0
 11
211.606
 21
58.7319
 31
0.0
  0
LINE
  8
0
 62
     0
 10
211.606
 20
58.7319
 30
0.0
 11
211.606
 21
55.6327
 31
0.0
  0
LINE
  8
0
 62
     0
 10
211.606
 20
55.6327
 30
0.0
 11
212.405
 21
55.6327
 31
0.0
  0
LINE
  8
0
 62
     0
 10
212.405
 20
55.6327
 30
0.0
 11
212.405
 21
49.8313
 31
0.0
  0
LINE
  8
0
 62
     0
 10
212.405
 20
49.8313
 30
0.0
 11
211.606
 21
49.8313
 31
0.0
  0
LINE
  8
0
 62
     0
 10
211.606
 20
49.8313
 30
0.0
 11
211.606
 21
46.7321
 31
0.0
  0
LINE
  8
0
 62
     0
 10
211.606
 20
46.7321
 30
0.0
 11
212.405
 21
46.7321
 31
0.0
  0
LINE
  8
0
 62
     0
 10
212.405
 20
46.7321
 30
0.0
 11
212.405
 21
45.7316
 31
0.0
  0
LINE
  8
0
 62
     0
 10
212.405
 20
45.7316
 30
0.0
 11
226.406
 21
45.7316
 31
0.0
  0
LINE
  8
0
 62
     0
 10
226.406
 20
45.7316
 30
0.0
 11
226.406
 21
46.7321
 31
0.0
  0
LINE
  8
0
 62
     0
 10
226.406
 20
46.7321
 30
0.0
 11
227.205
 21
46.7321
 31
0.0
  0
LINE
  8
0
 62
     0
 10
227.205
 20
46.7321
 30
0.0
 11
227.205
 21
49.8313
 31
0.0
  0
LINE
  8
0
 62
     0
 10
227.205
 20
49.8313
 30
0.0
 11
226.406
 21
49.8313
 31
0.0
  0
LINE
  8
0
 62
     0
 10
226.406
 20
49.8313
 30
0.0
 11
226.406
 21
55.6327
 31
0.0
  0
LINE
  8
0
 62
     0
 10
226.406
 20
55.6327
 30
0.0
 11
227.205
 21
55.6327
 31
0.0
  0
LINE
  8
0
 62
     0
 10
227.205
 20
55.6327
 30
0.0
 11
227.205
 21
58.7319
 31
0.0
  0
LINE
  8
0
 62
     0
 10
227.205
 20
58.7319
 30
0.0
 11
226.406
 21
58.7319
 31
0.0
  0
LINE
  8
0
 62
     0
 10
226.406
 20
58.7319
 30
0.0
 11
226.406
 21
59.7309
 31
0.0
  0
LINE
  8
0
 62
     0
 10
226.406
 20
59.7309
 30
0.0
 11
212.405
 21
59.7309
 31
0.0
  0
LINE
  8
0
 62
     0
 10
231.455
 20
59.7309
 30
0.0
 11
231.455
 21
58.7319
 31
0.0
  0
LINE
  8
0
 62
     0
 10
231.455
 20
58.7319
 30
0.0
 11
230.656
 21
58.7319
 31
0.0
  0
LINE
  8
0
 62
     0
 10
230.656
 20
58.7319
 30
0.0
 11
230.656
 21
55.6327
 31
0.0
  0
LINE
  8
0
 62
     0
 10
230.656
 20
55.6327
 30
0.0
 11
231.455
 21
55.6327
 31
0.0
  0
LINE
  8
0
 62
     0
 10
231.455
 20
55.6327
 30
0.0
 11
231.455
 21
49.8313
 31
0.0
  0
LINE
  8
0
 62
     0
 10
231.455
 20
49.8313
 30
0.0
 11
230.656
 21
49.8313
 31
0.0
  0
LINE
  8
0
 62
     0
 10
230.656
 20
49.8313
 30
0.0
 11
230.656
 21
46.7321
 31
0.0
  0
LINE
  8
0
 62
     0
 10
230.656
 20
46.7321
 30
0.0
 11
231.455
 21
46.7321
 31
0.0
  0
LINE
  8
0
 62
     0
 10
231.455
 20
46.7321
 30
0.0
 11
231.455
 21
45.7316
 31
0.0
  0
LINE
  8
0
 62
     0
 10
231.455
 20
45.7316
 30
0.0
 11
245.456
 21
45.7316
 31
0.0
  0
LINE
  8
0
 62
     0
 10
245.456
 20
45.7316
 30
0.0
 11
245.456
 21
46.7321
 31
0.0
  0
LINE
  8
0
 62
     0
 10
245.456
 20
46.7321
 30
0.0
 11
246.255
 21
46.7321
 31
0.0
  0
LINE
  8
0
 62
     0
 10
246.255
 20
46.7321
 30
0.0
 11
246.255
 21
49.8313
 31
0.0
  0
LINE
  8
0
 62
     0
 10
246.255
 20
49.8313
 30
0.0
 11
245.456
 21
49.8313
 31
0.0
  0
LINE
  8
0
 62
     0
 10
245.456
 20
49.8313
 30
0.0
 11
245.456
 21
55.6327
 31
0.0
  0
LINE
  8
0
 62
     0
 10
245.456
 20
55.6327
 30
0.0
 11
246.255
 21
55.6327
 31
0.0
  0
LINE
  8
0
 62
     0
 10
246.255
 20
55.6327
 30
0.0
 11
246.255
 21
58.7319
 31
0.0
  0
LINE
  8
0
 62
     0
 10
246.255
 20
58.7319
 30
0.0
 11
245.456
 21
58.7319
 31
0.0
  0
LINE
  8
0
 62
     0
 10
245.456
 20
58.7319
 30
0.0
 11
245.456
 21
59.7309
 31
0.0
  0
LINE
  8
0
 62
     0
 10
245.456
 20
59.7309
 30
0.0
 11
231.455
 21
59.7309
 31
0.0
  0
LINE
  8
0
 62
     0
 10
12.3803
 20
78.7809
 30
0.0
 11
12.3803
 21
77.7819
 31
0.0
  0
LINE
  8
0
 62
     0
 10
12.3803
 20
77.7819
 30
0.0
 11
11.581
 21
77.7819
 31
0.0
  0
LINE
  8
0
 62
     0
 10
11.581
 20
77.7819
 30
0.0
 11
11.581
 21
74.6813
 31
0.0
  0
LINE
  8
0
 62
     0
 10
11.581
 20
74.6813
 30
0.0
 11
12.3803
 21
74.6813
 31
0.0
  0
LINE
  8
0
 62
     0
 10
12.3803
 20
74.6813
 30
0.0
 11
12.3803
 21
68.8813
 31
0.0
  0
LINE
  8
0
 62
     0
 10
12.3803
 20
68.8813
 30
0.0
 11
11.581
 21
68.8813
 31
0.0
  0
LINE
  8
0
 62
     0
 10
11.581
 20
68.8813
 30
0.0
 11
11.581
 21
65.7821
 31
0.0
  0
LINE
  8
0
 62
     0
 10
11.581
 20
65.7821
 30
0.0
 11
12.3803
 21
65.7821
 31
0.0
  0
LINE
  8
0
 62
     0
 10
12.3803
 20
65.7821
 30
0.0
 11
12.3803
 21
64.7816
 31
0.0
  0
LINE
  8
0
 62
     0
 10
12.3803
 20
64.7816
 30
0.0
 11
26.3812
 21
64.7816
 31
0.0
  0
LINE
  8
0
 62
     0
 10
26.3812
 20
64.7816
 30
0.0
 11
26.3812
 21
65.7821
 31
0.0
  0
LINE
  8
0
 62
     0
 10
26.3812
 20
65.7821
 30
0.0
 11
27.1804
 21
65.7821
 31
0.0
  0
LINE
  8
0
 62
     0
 10
27.1804
 20
65.7821
 30
0.0
 11
27.1804
 21
68.8813
 31
0.0
  0
LINE
  8
0
 62
     0
 10
27.1804
 20
68.8813
 30
0.0
 11
26.3812
 21
68.8813
 31
0.0
  0
LINE
  8
0
 62
     0
 10
26.3812
 20
68.8813
 30
0.0
 11
26.3812
 21
74.6813
 31
0.0
  0
LINE
  8
0
 62
     0
 10
26.3812
 20
74.6813
 30
0.0
 11
27.1804
 21
74.6813
 31
0.0
  0
LINE
  8
0
 62
     0
 10
27.1804
 20
74.6813
 30
0.0
 11
27.1804
 21
77.7819
 31
0.0
  0
LINE
  8
0
 62
     0
 10
27.1804
 20
77.7819
 30
0.0
 11
26.3812
 21
77.7819
 31
0.0
  0
LINE
  8
0
 62
     0
 10
26.3812
 20
77.7819
 30
0.0
 11
26.3812
 21
78.7809
 31
0.0
  0
LINE
  8
0
 62
     0
 10
26.3812
 20
78.7809
 30
0.0
 11
12.3803
 21
78.7809
 31
0.0
  0
LINE
  8
0
 62
     0
 10
36.1943
 20
78.7809
 30
0.0
 11
36.1943
 21
77.7819
 31
0.0
  0
LINE
  8
0
 62
     0
 10
36.1943
 20
77.7819
 30
0.0
 11
35.3935
 21
77.7819
 31
0.0
  0
LINE
  8
0
 62
     0
 10
35.3935
 20
77.7819
 30
0.0
 11
35.3935
 21
74.6813
 31
0.0
  0
LINE
  8
0
 62
     0
 10
35.3935
 20
74.6813
 30
0.0
 11
36.1943
 21
74.6813
 31
0.0
  0
LINE
  8
0
 62
     0
 10
36.1943
 20
74.6813
 30
0.0
 11
36.1943
 21
68.8813
 31
0.0
  0
LINE
  8
0
 62
     0
 10
36.1943
 20
68.8813
 30
0.0
 11
35.3935
 21
68.8813
 31
0.0
  0
LINE
  8
0
 62
     0
 10
35.3935
 20
68.8813
 30
0.0
 11
35.3935
 21
65.7821
 31
0.0
  0
LINE
  8
0
 62
     0
 10
35.3935
 20
65.7821
 30
0.0
 11
36.1943
 21
65.7821
 31
0.0
  0
LINE
  8
0
 62
     0
 10
36.1943
 20
65.7821
 30
0.0
 11
36.1943
 21
64.7816
 31
0.0
  0
LINE
  8
0
 62
     0
 10
36.1943
 20
64.7816
 30
0.0
 11
50.1936
 21
64.7816
 31
0.0
  0
LINE
  8
0
 62
     0
 10
50.1936
 20
64.7816
 30
0.0
 11
50.1936
 21
65.7821
 31
0.0
  0
LINE
  8
0
 62
     0
 10
50.1936
 20
65.7821
 30
0.0
 11
50.9944
 21
65.7821
 31
0.0
  0
LINE
  8
0
 62
     0
 10
50.9944
 20
65.7821
 30
0.0
 11
50.9944
 21
68.8813
 31
0.0
  0
LINE
  8
0
 62
     0
 10
50.9944
 20
68.8813
 30
0.0
 11
50.1936
 21
68.8813
 31
0.0
  0
LINE
  8
0
 62
     0
 10
50.1936
 20
68.8813
 30
0.0
 11
50.1936
 21
74.6813
 31
0.0
  0
LINE
  8
0
 62
     0
 10
50.1936
 20
74.6813
 30
0.0
 11
50.9944
 21
74.6813
 31
0.0
  0
LINE
  8
0
 62
     0
 10
50.9944
 20
74.6813
 30
0.0
 11
50.9944
 21
77.7819
 31
0.0
  0
LINE
  8
0
 62
     0
 10
50.9944
 20
77.7819
 30
0.0
 11
50.1936
 21
77.7819
 31
0.0
  0
LINE
  8
0
 62
     0
 10
50.1936
 20
77.7819
 30
0.0
 11
50.1936
 21
78.7809
 31
0.0
  0
LINE
  8
0
 62
     0
 10
50.1936
 20
78.7809
 30
0.0
 11
36.1943
 21
78.7809
 31
0.0
  0
LINE
  8
0
 62
     0
 10
55.2443
 20
78.7809
 30
0.0
 11
55.2443
 21
77.7819
 31
0.0
  0
LINE
  8
0
 62
     0
 10
55.2443
 20
77.7819
 30
0.0
 11
54.4435
 21
77.7819
 31
0.0
  0
LINE
  8
0
 62
     0
 10
54.4435
 20
77.7819
 30
0.0
 11
54.4435
 21
74.6813
 31
0.0
  0
LINE
  8
0
 62
     0
 10
54.4435
 20
74.6813
 30
0.0
 11
55.2443
 21
74.6813
 31
0.0
  0
LINE
  8
0
 62
     0
 10
55.2443
 20
74.6813
 30
0.0
 11
55.2443
 21
68.8813
 31
0.0
  0
LINE
  8
0
 62
     0
 10
55.2443
 20
68.8813
 30
0.0
 11
54.4435
 21
68.8813
 31
0.0
  0
LINE
  8
0
 62
     0
 10
54.4435
 20
68.8813
 30
0.0
 11
54.4435
 21
65.7821
 31
0.0
  0
LINE
  8
0
 62
     0
 10
54.4435
 20
65.7821
 30
0.0
 11
55.2443
 21
65.7821
 31
0.0
  0
LINE
  8
0
 62
     0
 10
55.2443
 20
65.7821
 30
0.0
 11
55.2443
 21
64.7816
 31
0.0
  0
LINE
  8
0
 62
     0
 10
55.2443
 20
64.7816
 30
0.0
 11
69.2436
 21
64.7816
 31
0.0
  0
LINE
  8
0
 62
     0
 10
69.2436
 20
64.7816
 30
0.0
 11
69.2436
 21
65.7821
 31
0.0
  0
LINE
  8
0
 62
     0
 10
69.2436
 20
65.7821
 30
0.0
 11
70.0444
 21
65.7821
 31
0.0
  0
LINE
  8
0
 62
     0
 10
70.0444
 20
65.7821
 30
0.0
 11
70.0444
 21
68.8813
 31
0.0
  0
LINE
  8
0
 62
     0
 10
70.0444
 20
68.8813
 30
0.0
 11
69.2436
 21
68.8813
 31
0.0
  0
LINE
  8
0
 62
     0
 10
69.2436
 20
68.8813
 30
0.0
 11
69.2436
 21
74.6813
 31
0.0
  0
LINE
  8
0
 62
     0
 10
69.2436
 20
74.6813
 30
0.0
 11
70.0444
 21
74.6813
 31
0.0
  0
LINE
  8
0
 62
     0
 10
70.0444
 20
74.6813
 30
0.0
 11
70.0444
 21
77.7819
 31
0.0
  0
LINE
  8
0
 62
     0
 10
70.0444
 20
77.7819
 30
0.0
 11
69.2436
 21
77.7819
 31
0.0
  0
LINE
  8
0
 62
     0
 10
69.2436
 20
77.7819
 30
0.0
 11
69.2436
 21
78.7809
 31
0.0
  0
LINE
  8
0
 62
     0
 10
69.2436
 20
78.7809
 30
0.0
 11
55.2443
 21
78.7809
 31
0.0
  0
LINE
  8
0
 62
     0
 10
74.2943
 20
78.7809
 30
0.0
 11
74.2943
 21
77.7819
 31
0.0
  0
LINE
  8
0
 62
     0
 10
74.2943
 20
77.7819
 30
0.0
 11
73.4935
 21
77.7819
 31
0.0
  0
LINE
  8
0
 62
     0
 10
73.4935
 20
77.7819
 30
0.0
 11
73.4935
 21
74.6813
 31
0.0
  0
LINE
  8
0
 62
     0
 10
73.4935
 20
74.6813
 30
0.0
 11
74.2943
 21
74.6813
 31
0.0
  0
LINE
  8
0
 62
     0
 10
74.2943
 20
74.6813
 30
0.0
 11
74.2943
 21
68.8813
 31
0.0
  0
LINE
  8
0
 62
     0
 10
74.2943
 20
68.8813
 30
0.0
 11
73.4935
 21
68.8813
 31
0.0
  0
LINE
  8
0
 62
     0
 10
73.4935
 20
68.8813
 30
0.0
 11
73.4935
 21
65.7821
 31
0.0
  0
LINE
  8
0
 62
     0
 10
73.4935
 20
65.7821
 30
0.0
 11
74.2943
 21
65.7821
 31
0.0
  0
LINE
  8
0
 62
     0
 10
74.2943
 20
65.7821
 30
0.0
 11
74.2943
 21
64.7816
 31
0.0
  0
LINE
  8
0
 62
     0
 10
74.2943
 20
64.7816
 30
0.0
 11
88.2936
 21
64.7816
 31
0.0
  0
LINE
  8
0
 62
     0
 10
88.2936
 20
64.7816
 30
0.0
 11
88.2936
 21
65.7821
 31
0.0
  0
LINE
  8
0
 62
     0
 10
88.2936
 20
65.7821
 30
0.0
 11
89.0944
 21
65.7821
 31
0.0
  0
LINE
  8
0
 62
     0
 10
89.0944
 20
65.7821
 30
0.0
 11
89.0944
 21
68.8813
 31
0.0
  0
LINE
  8
0
 62
     0
 10
89.0944
 20
68.8813
 30
0.0
 11
88.2936
 21
68.8813
 31
0.0
  0
LINE
  8
0
 62
     0
 10
88.2936
 20
68.8813
 30
0.0
 11
88.2936
 21
74.6813
 31
0.0
  0
LINE
  8
0
 62
     0
 10
88.2936
 20
74.6813
 30
0.0
 11
89.0944
 21
74.6813
 31
0.0
  0
LINE
  8
0
 62
     0
 10
89.0944
 20
74.6813
 30
0.0
 11
89.0944
 21
77.7819
 31
0.0
  0
LINE
  8
0
 62
     0
 10
89.0944
 20
77.7819
 30
0.0
 11
88.2936
 21
77.7819
 31
0.0
  0
LINE
  8
0
 62
     0
 10
88.2936
 20
77.7819
 30
0.0
 11
88.2936
 21
78.7809
 31
0.0
  0
LINE
  8
0
 62
     0
 10
88.2936
 20
78.7809
 30
0.0
 11
74.2943
 21
78.7809
 31
0.0
  0
LINE
  8
0
 62
     0
 10
93.3443
 20
78.7809
 30
0.0
 11
93.3443
 21
77.7819
 31
0.0
  0
LINE
  8
0
 62
     0
 10
93.3443
 20
77.7819
 30
0.0
 11
92.5435
 21
77.7819
 31
0.0
  0
LINE
  8
0
 62
     0
 10
92.5435
 20
77.7819
 30
0.0
 11
92.5435
 21
74.6813
 31
0.0
  0
LINE
  8
0
 62
     0
 10
92.5435
 20
74.6813
 30
0.0
 11
93.3443
 21
74.6813
 31
0.0
  0
LINE
  8
0
 62
     0
 10
93.3443
 20
74.6813
 30
0.0
 11
93.3443
 21
68.8813
 31
0.0
  0
LINE
  8
0
 62
     0
 10
93.3443
 20
68.8813
 30
0.0
 11
92.5435
 21
68.8813
 31
0.0
  0
LINE
  8
0
 62
     0
 10
92.5435
 20
68.8813
 30
0.0
 11
92.5435
 21
65.7821
 31
0.0
  0
LINE
  8
0
 62
     0
 10
92.5435
 20
65.7821
 30
0.0
 11
93.3443
 21
65.7821
 31
0.0
  0
LINE
  8
0
 62
     0
 10
93.3443
 20
65.7821
 30
0.0
 11
93.3443
 21
64.7816
 31
0.0
  0
LINE
  8
0
 62
     0
 10
93.3443
 20
64.7816
 30
0.0
 11
107.344
 21
64.7816
 31
0.0
  0
LINE
  8
0
 62
     0
 10
107.344
 20
64.7816
 30
0.0
 11
107.344
 21
65.7821
 31
0.0
  0
LINE
  8
0
 62
     0
 10
107.344
 20
65.7821
 30
0.0
 11
108.144
 21
65.7821
 31
0.0
  0
LINE
  8
0
 62
     0
 10
108.144
 20
65.7821
 30
0.0
 11
108.144
 21
68.8813
 31
0.0
  0
LINE
  8
0
 62
     0
 10
108.144
 20
68.8813
 30
0.0
 11
107.344
 21
68.8813
 31
0.0
  0
LINE
  8
0
 62
     0
 10
107.344
 20
68.8813
 30
0.0
 11
107.344
 21
74.6813
 31
0.0
  0
LINE
  8
0
 62
     0
 10
107.344
 20
74.6813
 30
0.0
 11
108.144
 21
74.6813
 31
0.0
  0
LINE
  8
0
 62
     0
 10
108.144
 20
74.6813
 30
0.0
 11
108.144
 21
77.7819
 31
0.0
  0
LINE
  8
0
 62
     0
 10
108.144
 20
77.7819
 30
0.0
 11
107.344
 21
77.7819
 31
0.0
  0
LINE
  8
0
 62
     0
 10
107.344
 20
77.7819
 30
0.0
 11
107.344
 21
78.7809
 31
0.0
  0
LINE
  8
0
 62
     0
 10
107.344
 20
78.7809
 30
0.0
 11
93.3443
 21
78.7809
 31
0.0
  0
LINE
  8
0
 62
     0
 10
112.394
 20
78.7809
 30
0.0
 11
112.394
 21
77.7819
 31
0.0
  0
LINE
  8
0
 62
     0
 10
112.394
 20
77.7819
 30
0.0
 11
111.593
 21
77.7819
 31
0.0
  0
LINE
  8
0
 62
     0
 10
111.593
 20
77.7819
 30
0.0
 11
111.593
 21
74.6813
 31
0.0
  0
LINE
  8
0
 62
     0
 10
111.593
 20
74.6813
 30
0.0
 11
112.394
 21
74.6813
 31
0.0
  0
LINE
  8
0
 62
     0
 10
112.394
 20
74.6813
 30
0.0
 11
112.394
 21
68.8813
 31
0.0
  0
LINE
  8
0
 62
     0
 10
112.394
 20
68.8813
 30
0.0
 11
111.593
 21
68.8813
 31
0.0
  0
LINE
  8
0
 62
     0
 10
111.593
 20
68.8813
 30
0.0
 11
111.593
 21
65.7821
 31
0.0
  0
LINE
  8
0
 62
     0
 10
111.593
 20
65.7821
 30
0.0
 11
112.394
 21
65.7821
 31
0.0
  0
LINE
  8
0
 62
     0
 10
112.394
 20
65.7821
 30
0.0
 11
112.394
 21
64.7816
 31
0.0
  0
LINE
  8
0
 62
     0
 10
112.394
 20
64.7816
 30
0.0
 11
126.394
 21
64.7816
 31
0.0
  0
LINE
  8
0
 62
     0
 10
126.394
 20
64.7816
 30
0.0
 11
126.394
 21
65.7821
 31
0.0
  0
LINE
  8
0
 62
     0
 10
126.394
 20
65.7821
 30
0.0
 11
127.194
 21
65.7821
 31
0.0
  0
LINE
  8
0
 62
     0
 10
127.194
 20
65.7821
 30
0.0
 11
127.194
 21
68.8813
 31
0.0
  0
LINE
  8
0
 62
     0
 10
127.194
 20
68.8813
 30
0.0
 11
126.394
 21
68.8813
 31
0.0
  0
LINE
  8
0
 62
     0
 10
126.394
 20
68.8813
 30
0.0
 11
126.394
 21
74.6813
 31
0.0
  0
LINE
  8
0
 62
     0
 10
126.394
 20
74.6813
 30
0.0
 11
127.194
 21
74.6813
 31
0.0
  0
LINE
  8
0
 62
     0
 10
127.194
 20
74.6813
 30
0.0
 11
127.194
 21
77.7819
 31
0.0
  0
LINE
  8
0
 62
     0
 10
127.194
 20
77.7819
 30
0.0
 11
126.394
 21
77.7819
 31
0.0
  0
LINE
  8
0
 62
     0
 10
126.394
 20
77.7819
 30
0.0
 11
126.394
 21
78.7809
 31
0.0
  0
LINE
  8
0
 62
     0
 10
126.394
 20
78.7809
 30
0.0
 11
112.394
 21
78.7809
 31
0.0
  0
LINE
  8
0
 62
     0
 10
131.444
 20
78.7809
 30
0.0
 11
131.444
 21
77.7819
 31
0.0
  0
LINE
  8
0
 62
     0
 10
131.444
 20
77.7819
 30
0.0
 11
130.642
 21
77.7819
 31
0.0
  0
LINE
  8
0
 62
     0
 10
130.642
 20
77.7819
 30
0.0
 11
130.642
 21
74.6813
 31
0.0
  0
LINE
  8
0
 62
     0
 10
130.642
 20
74.6813
 30
0.0
 11
131.444
 21
74.6813
 31
0.0
  0
LINE
  8
0
 62
     0
 10
131.444
 20
74.6813
 30
0.0
 11
131.444
 21
68.8813
 31
0.0
  0
LINE
  8
0
 62
     0
 10
131.444
 20
68.8813
 30
0.0
 11
130.642
 21
68.8813
 31
0.0
  0
LINE
  8
0
 62
     0
 10
130.642
 20
68.8813
 30
0.0
 11
130.642
 21
65.7821
 31
0.0
  0
LINE
  8
0
 62
     0
 10
130.642
 20
65.7821
 30
0.0
 11
131.444
 21
65.7821
 31
0.0
  0
LINE
  8
0
 62
     0
 10
131.444
 20
65.7821
 30
0.0
 11
131.444
 21
64.7816
 31
0.0
  0
LINE
  8
0
 62
     0
 10
131.444
 20
64.7816
 30
0.0
 11
145.444
 21
64.7816
 31
0.0
  0
LINE
  8
0
 62
     0
 10
145.444
 20
64.7816
 30
0.0
 11
145.444
 21
65.7821
 31
0.0
  0
LINE
  8
0
 62
     0
 10
145.444
 20
65.7821
 30
0.0
 11
146.244
 21
65.7821
 31
0.0
  0
LINE
  8
0
 62
     0
 10
146.244
 20
65.7821
 30
0.0
 11
146.244
 21
68.8813
 31
0.0
  0
LINE
  8
0
 62
     0
 10
146.244
 20
68.8813
 30
0.0
 11
145.444
 21
68.8813
 31
0.0
  0
LINE
  8
0
 62
     0
 10
145.444
 20
68.8813
 30
0.0
 11
145.444
 21
74.6813
 31
0.0
  0
LINE
  8
0
 62
     0
 10
145.444
 20
74.6813
 30
0.0
 11
146.244
 21
74.6813
 31
0.0
  0
LINE
  8
0
 62
     0
 10
146.244
 20
74.6813
 30
0.0
 11
146.244
 21
77.7819
 31
0.0
  0
LINE
  8
0
 62
     0
 10
146.244
 20
77.7819
 30
0.0
 11
145.444
 21
77.7819
 31
0.0
  0
LINE
  8
0
 62
     0
 10
145.444
 20
77.7819
 30
0.0
 11
145.444
 21
78.7809
 31
0.0
  0
LINE
  8
0
 62
     0
 10
145.444
 20
78.7809
 30
0.0
 11
131.444
 21
78.7809
 31
0.0
  0
LINE
  8
0
 62
     0
 10
150.494
 20
78.7809
 30
0.0
 11
150.494
 21
77.7819
 31
0.0
  0
LINE
  8
0
 62
     0
 10
150.494
 20
77.7819
 30
0.0
 11
149.693
 21
77.7819
 31
0.0
  0
LINE
  8
0
 62
     0
 10
149.693
 20
77.7819
 30
0.0
 11
149.693
 21
74.6813
 31
0.0
  0
LINE
  8
0
 62
     0
 10
149.693
 20
74.6813
 30
0.0
 11
150.494
 21
74.6813
 31
0.0
  0
LINE
  8
0
 62
     0
 10
150.494
 20
74.6813
 30
0.0
 11
150.494
 21
68.8813
 31
0.0
  0
LINE
  8
0
 62
     0
 10
150.494
 20
68.8813
 30
0.0
 11
149.693
 21
68.8813
 31
0.0
  0
LINE
  8
0
 62
     0
 10
149.693
 20
68.8813
 30
0.0
 11
149.693
 21
65.7821
 31
0.0
  0
LINE
  8
0
 62
     0
 10
149.693
 20
65.7821
 30
0.0
 11
150.494
 21
65.7821
 31
0.0
  0
LINE
  8
0
 62
     0
 10
150.494
 20
65.7821
 30
0.0
 11
150.494
 21
64.7816
 31
0.0
  0
LINE
  8
0
 62
     0
 10
150.494
 20
64.7816
 30
0.0
 11
164.494
 21
64.7816
 31
0.0
  0
LINE
  8
0
 62
     0
 10
164.494
 20
64.7816
 30
0.0
 11
164.494
 21
65.7821
 31
0.0
  0
LINE
  8
0
 62
     0
 10
164.494
 20
65.7821
 30
0.0
 11
165.294
 21
65.7821
 31
0.0
  0
LINE
  8
0
 62
     0
 10
165.294
 20
65.7821
 30
0.0
 11
165.294
 21
68.8813
 31
0.0
  0
LINE
  8
0
 62
     0
 10
165.294
 20
68.8813
 30
0.0
 11
164.494
 21
68.8813
 31
0.0
  0
LINE
  8
0
 62
     0
 10
164.494
 20
68.8813
 30
0.0
 11
164.494
 21
74.6813
 31
0.0
  0
LINE
  8
0
 62
     0
 10
164.494
 20
74.6813
 30
0.0
 11
165.294
 21
74.6813
 31
0.0
  0
LINE
  8
0
 62
     0
 10
165.294
 20
74.6813
 30
0.0
 11
165.294
 21
77.7819
 31
0.0
  0
LINE
  8
0
 62
     0
 10
165.294
 20
77.7819
 30
0.0
 11
164.494
 21
77.7819
 31
0.0
  0
LINE
  8
0
 62
     0
 10
164.494
 20
77.7819
 30
0.0
 11
164.494
 21
78.7809
 31
0.0
  0
LINE
  8
0
 62
     0
 10
164.494
 20
78.7809
 30
0.0
 11
150.494
 21
78.7809
 31
0.0
  0
LINE
  8
0
 62
     0
 10
169.544
 20
78.7809
 30
0.0
 11
169.544
 21
77.7819
 31
0.0
  0
LINE
  8
0
 62
     0
 10
169.544
 20
77.7819
 30
0.0
 11
168.743
 21
77.7819
 31
0.0
  0
LINE
  8
0
 62
     0
 10
168.743
 20
77.7819
 30
0.0
 11
168.743
 21
74.6813
 31
0.0
  0
LINE
  8
0
 62
     0
 10
168.743
 20
74.6813
 30
0.0
 11
169.544
 21
74.6813
 31
0.0
  0
LINE
  8
0
 62
     0
 10
169.544
 20
74.6813
 30
0.0
 11
169.544
 21
68.8813
 31
0.0
  0
LINE
  8
0
 62
     0
 10
169.544
 20
68.8813
 30
0.0
 11
168.743
 21
68.8813
 31
0.0
  0
LINE
  8
0
 62
     0
 10
168.743
 20
68.8813
 30
0.0
 11
168.743
 21
65.7821
 31
0.0
  0
LINE
  8
0
 62
     0
 10
168.743
 20
65.7821
 30
0.0
 11
169.544
 21
65.7821
 31
0.0
  0
LINE
  8
0
 62
     0
 10
169.544
 20
65.7821
 30
0.0
 11
169.544
 21
64.7816
 31
0.0
  0
LINE
  8
0
 62
     0
 10
169.544
 20
64.7816
 30
0.0
 11
183.544
 21
64.7816
 31
0.0
  0
LINE
  8
0
 62
     0
 10
183.544
 20
64.7816
 30
0.0
 11
183.544
 21
65.7821
 31
0.0
  0
LINE
  8
0
 62
     0
 10
183.544
 20
65.7821
 30
0.0
 11
184.344
 21
65.7821
 31
0.0
  0
LINE
  8
0
 62
     0
 10
184.344
 20
65.7821
 30
0.0
 11
184.344
 21
68.8813
 31
0.0
  0
LINE
  8
0
 62
     0
 10
184.344
 20
68.8813
 30
0.0
 11
183.544
 21
68.8813
 31
0.0
  0
LINE
  8
0
 62
     0
 10
183.544
 20
68.8813
 30
0.0
 11
183.544
 21
74.6813
 31
0.0
  0
LINE
  8
0
 62
     0
 10
183.544
 20
74.6813
 30
0.0
 11
184.344
 21
74.6813
 31
0.0
  0
LINE
  8
0
 62
     0
 10
184.344
 20
74.6813
 30
0.0
 11
184.344
 21
77.7819
 31
0.0
  0
LINE
  8
0
 62
     0
 10
184.344
 20
77.7819
 30
0.0
 11
183.544
 21
77.7819
 31
0.0
  0
LINE
  8
0
 62
     0
 10
183.544
 20
77.7819
 30
0.0
 11
183.544
 21
78.7809
 31
0.0
  0
LINE
  8
0
 62
     0
 10
183.544
 20
78.7809
 30
0.0
 11
169.544
 21
78.7809
 31
0.0
  0
LINE
  8
0
 62
     0
 10
188.594
 20
78.7809
 30
0.0
 11
188.594
 21
77.7819
 31
0.0
  0
LINE
  8
0
 62
     0
 10
188.594
 20
77.7819
 30
0.0
 11
187.793
 21
77.7819
 31
0.0
  0
LINE
  8
0
 62
     0
 10
187.793
 20
77.7819
 30
0.0
 11
187.793
 21
74.6813
 31
0.0
  0
LINE
  8
0
 62
     0
 10
187.793
 20
74.6813
 30
0.0
 11
188.594
 21
74.6813
 31
0.0
  0
LINE
  8
0
 62
     0
 10
188.594
 20
74.6813
 30
0.0
 11
188.594
 21
68.8813
 31
0.0
  0
LINE
  8
0
 62
     0
 10
188.594
 20
68.8813
 30
0.0
 11
187.793
 21
68.8813
 31
0.0
  0
LINE
  8
0
 62
     0
 10
187.793
 20
68.8813
 30
0.0
 11
187.793
 21
65.7821
 31
0.0
  0
LINE
  8
0
 62
     0
 10
187.793
 20
65.7821
 30
0.0
 11
188.594
 21
65.7821
 31
0.0
  0
LINE
  8
0
 62
     0
 10
188.594
 20
65.7821
 30
0.0
 11
188.594
 21
64.7816
 31
0.0
  0
LINE
  8
0
 62
     0
 10
188.594
 20
64.7816
 30
0.0
 11
202.594
 21
64.7816
 31
0.0
  0
LINE
  8
0
 62
     0
 10
202.594
 20
64.7816
 30
0.0
 11
202.594
 21
65.7821
 31
0.0
  0
LINE
  8
0
 62
     0
 10
202.594
 20
65.7821
 30
0.0
 11
203.394
 21
65.7821
 31
0.0
  0
LINE
  8
0
 62
     0
 10
203.394
 20
65.7821
 30
0.0
 11
203.394
 21
68.8813
 31
0.0
  0
LINE
  8
0
 62
     0
 10
203.394
 20
68.8813
 30
0.0
 11
202.594
 21
68.8813
 31
0.0
  0
LINE
  8
0
 62
     0
 10
202.594
 20
68.8813
 30
0.0
 11
202.594
 21
74.6813
 31
0.0
  0
LINE
  8
0
 62
     0
 10
202.594
 20
74.6813
 30
0.0
 11
203.394
 21
74.6813
 31
0.0
  0
LINE
  8
0
 62
     0
 10
203.394
 20
74.6813
 30
0.0
 11
203.394
 21
77.7819
 31
0.0
  0
LINE
  8
0
 62
     0
 10
203.394
 20
77.7819
 30
0.0
 11
202.594
 21
77.7819
 31
0.0
  0
LINE
  8
0
 62
     0
 10
202.594
 20
77.7819
 30
0.0
 11
202.594
 21
78.7809
 31
0.0
  0
LINE
  8
0
 62
     0
 10
202.594
 20
78.7809
 30
0.0
 11
188.594
 21
78.7809
 31
0.0
  0
LINE
  8
0
 62
     0
 10
207.644
 20
78.7809
 30
0.0
 11
207.644
 21
77.7819
 31
0.0
  0
LINE
  8
0
 62
     0
 10
207.644
 20
77.7819
 30
0.0
 11
206.843
 21
77.7819
 31
0.0
  0
LINE
  8
0
 62
     0
 10
206.843
 20
77.7819
 30
0.0
 11
206.843
 21
74.6813
 31
0.0
  0
LINE
  8
0
 62
     0
 10
206.843
 20
74.6813
 30
0.0
 11
207.644
 21
74.6813
 31
0.0
  0
LINE
  8
0
 62
     0
 10
207.644
 20
74.6813
 30
0.0
 11
207.644
 21
68.8813
 31
0.0
  0
LINE
  8
0
 62
     0
 10
207.644
 20
68.8813
 30
0.0
 11
206.843
 21
68.8813
 31
0.0
  0
LINE
  8
0
 62
     0
 10
206.843
 20
68.8813
 30
0.0
 11
206.843
 21
65.7821
 31
0.0
  0
LINE
  8
0
 62
     0
 10
206.843
 20
65.7821
 30
0.0
 11
207.644
 21
65.7821
 31
0.0
  0
LINE
  8
0
 62
     0
 10
207.644
 20
65.7821
 30
0.0
 11
207.644
 21
64.7816
 31
0.0
  0
LINE
  8
0
 62
     0
 10
207.644
 20
64.7816
 30
0.0
 11
221.644
 21
64.7816
 31
0.0
  0
LINE
  8
0
 62
     0
 10
221.644
 20
64.7816
 30
0.0
 11
221.644
 21
65.7821
 31
0.0
  0
LINE
  8
0
 62
     0
 10
221.644
 20
65.7821
 30
0.0
 11
222.444
 21
65.7821
 31
0.0
  0
LINE
  8
0
 62
     0
 10
222.444
 20
65.7821
 30
0.0
 11
222.444
 21
68.8813
 31
0.0
  0
LINE
  8
0
 62
     0
 10
222.444
 20
68.8813
 30
0.0
 11
221.644
 21
68.8813
 31
0.0
  0
LINE
  8
0
 62
     0
 10
221.644
 20
68.8813
 30
0.0
 11
221.644
 21
74.6813
 31
0.0
  0
LINE
  8
0
 62
     0
 10
221.644
 20
74.6813
 30
0.0
 11
222.444
 21
74.6813
 31
0.0
  0
LINE
  8
0
 62
     0
 10
222.444
 20
74.6813
 30
0.0
 11
222.444
 21
77.7819
 31
0.0
  0
LINE
  8
0
 62
     0
 10
222.444
 20
77.7819
 30
0.0
 11
221.644
 21
77.7819
 31
0.0
  0
LINE
  8
0
 62
     0
 10
221.644
 20
77.7819
 30
0.0
 11
221.644
 21
78.7809
 31
0.0
  0
LINE
  8
0
 62
     0
 10
221.644
 20
78.7809
 30
0.0
 11
207.644
 21
78.7809
 31
0.0
  0
LINE
  8
0
 62
     0
 10
226.694
 20
78.7809
 30
0.0
 11
226.694
 21
77.7819
 31
0.0
  0
LINE
  8
0
 62
     0
 10
226.694
 20
77.7819
 30
0.0
 11
225.893
 21
77.7819
 31
0.0
  0
LINE
  8
0
 62
     0
 10
225.893
 20
77.7819
 30
0.0
 11
225.893
 21
74.6813
 31
0.0
  0
LINE
  8
0
 62
     0
 10
225.893
 20
74.6813
 30
0.0
 11
226.694
 21
74.6813
 31
0.0
  0
LINE
  8
0
 62
     0
 10
226.694
 20
74.6813
 30
0.0
 11
226.694
 21
68.8813
 31
0.0
  0
LINE
  8
0
 62
     0
 10
226.694
 20
68.8813
 30
0.0
 11
225.893
 21
68.8813
 31
0.0
  0
LINE
  8
0
 62
     0
 10
225.893
 20
68.8813
 30
0.0
 11
225.893
 21
65.7821
 31
0.0
  0
LINE
  8
0
 62
     0
 10
225.893
 20
65.7821
 30
0.0
 11
226.694
 21
65.7821
 31
0.0
  0
LINE
  8
0
 62
     0
 10
226.694
 20
65.7821
 30
0.0
 11
226.694
 21
64.7816
 31
0.0
  0
LINE
  8
0
 62
     0
 10
226.694
 20
64.7816
 30
0.0
 11
240.694
 21
64.7816
 31
0.0
  0
LINE
  8
0
 62
     0
 10
240.694
 20
64.7816
 30
0.0
 11
240.694
 21
65.7821
 31
0.0
  0
LINE
  8
0
 62
     0
 10
240.694
 20
65.7821
 30
0.0
 11
241.494
 21
65.7821
 31
0.0
  0
LINE
  8
0
 62
     0
 10
241.494
 20
65.7821
 30
0.0
 11
241.494
 21
68.8813
 31
0.0
  0
LINE
  8
0
 62
     0
 10
241.494
 20
68.8813
 30
0.0
 11
240.694
 21
68.8813
 31
0.0
  0
LINE
  8
0
 62
     0
 10
240.694
 20
68.8813
 30
0.0
 11
240.694
 21
74.6813
 31
0.0
  0
LINE
  8
0
 62
     0
 10
240.694
 20
74.6813
 30
0.0
 11
241.494
 21
74.6813
 31
0.0
  0
LINE
  8
0
 62
     0
 10
241.494
 20
74.6813
 30
0.0
 11
241.494
 21
77.7819
 31
0.0
  0
LINE
  8
0
 62
     0
 10
241.494
 20
77.7819
 30
0.0
 11
240.694
 21
77.7819
 31
0.0
  0
LINE
  8
0
 62
     0
 10
240.694
 20
77.7819
 30
0.0
 11
240.694
 21
78.7809
 31
0.0
  0
LINE
  8
0
 62
     0
 10
240.694
 20
78.7809
 30
0.0
 11
226.694
 21
78.7809
 31
0.0
  0
LINE
  8
0
 62
     0
 10
245.744
 20
78.7809
 30
0.0
 11
245.744
 21
77.7819
 31
0.0
  0
LINE
  8
0
 62
     0
 10
245.744
 20
77.7819
 30
0.0
 11
244.943
 21
77.7819
 31
0.0
  0
LINE
  8
0
 62
     0
 10
244.943
 20
77.7819
 30
0.0
 11
244.943
 21
74.6813
 31
0.0
  0
LINE
  8
0
 62
     0
 10
244.943
 20
74.6813
 30
0.0
 11
245.744
 21
74.6813
 31
0.0
  0
LINE
  8
0
 62
     0
 10
245.744
 20
74.6813
 30
0.0
 11
245.744
 21
68.8813
 31
0.0
  0
LINE
  8
0
 62
     0
 10
245.744
 20
68.8813
 30
0.0
 11
244.943
 21
68.8813
 31
0.0
  0
LINE
  8
0
 62
     0
 10
244.943
 20
68.8813
 30
0.0
 11
244.943
 21
65.7821
 31
0.0
  0
LINE
  8
0
 62
     0
 10
244.943
 20
65.7821
 30
0.0
 11
245.744
 21
65.7821
 31
0.0
  0
LINE
  8
0
 62
     0
 10
245.744
 20
65.7821
 30
0.0
 11
245.744
 21
64.7816
 31
0.0
  0
LINE
  8
0
 62
     0
 10
245.744
 20
64.7816
 30
0.0
 11
259.744
 21
64.7816
 31
0.0
  0
LINE
  8
0
 62
     0
 10
259.744
 20
64.7816
 30
0.0
 11
259.744
 21
65.7821
 31
0.0
  0
LINE
  8
0
 62
     0
 10
259.744
 20
65.7821
 30
0.0
 11
260.544
 21
65.7821
 31
0.0
  0
LINE
  8
0
 62
     0
 10
260.544
 20
65.7821
 30
0.0
 11
260.544
 21
68.8813
 31
0.0
  0
LINE
  8
0
 62
     0
 10
260.544
 20
68.8813
 30
0.0
 11
259.744
 21
68.8813
 31
0.0
  0
LINE
  8
0
 62
     0
 10
259.744
 20
68.8813
 30
0.0
 11
259.744
 21
74.6813
 31
0.0
  0
LINE
  8
0
 62
     0
 10
259.744
 20
74.6813
 30
0.0
 11
260.544
 21
74.6813
 31
0.0
  0
LINE
  8
0
 62
     0
 10
260.544
 20
74.6813
 30
0.0
 11
260.544
 21
77.7819
 31
0.0
  0
LINE
  8
0
 62
     0
 10
260.544
 20
77.7819
 30
0.0
 11
259.744
 21
77.7819
 31
0.0
  0
LINE
  8
0
 62
     0
 10
259.744
 20
77.7819
 30
0.0
 11
259.744
 21
78.7809
 31
0.0
  0
LINE
  8
0
 62
     0
 10
259.744
 20
78.7809
 30
0.0
 11
245.744
 21
78.7809
 31
0.0
  0
LINE
  8
0
 62
     0
 10
269.555
 20
78.7809
 30
0.0
 11
269.555
 21
77.7819
 31
0.0
  0
LINE
  8
0
 62
     0
 10
269.555
 20
77.7819
 30
0.0
 11
268.756
 21
77.7819
 31
0.0
  0
LINE
  8
0
 62
     0
 10
268.756
 20
77.7819
 30
0.0
 11
268.756
 21
74.6813
 31
0.0
  0
LINE
  8
0
 62
     0
 10
268.756
 20
74.6813
 30
0.0
 11
269.555
 21
74.6813
 31
0.0
  0
LINE
  8
0
 62
     0
 10
269.555
 20
74.6813
 30
0.0
 11
269.555
 21
68.8813
 31
0.0
  0
LINE
  8
0
 62
     0
 10
269.555
 20
68.8813
 30
0.0
 11
268.756
 21
68.8813
 31
0.0
  0
LINE
  8
0
 62
     0
 10
268.756
 20
68.8813
 30
0.0
 11
268.756
 21
65.7821
 31
0.0
  0
LINE
  8
0
 62
     0
 10
268.756
 20
65.7821
 30
0.0
 11
269.555
 21
65.7821
 31
0.0
  0
LINE
  8
0
 62
     0
 10
269.555
 20
65.7821
 30
0.0
 11
269.555
 21
64.7816
 31
0.0
  0
LINE
  8
0
 62
     0
 10
269.555
 20
64.7816
 30
0.0
 11
283.556
 21
64.7816
 31
0.0
  0
LINE
  8
0
 62
     0
 10
283.556
 20
64.7816
 30
0.0
 11
283.556
 21
65.7821
 31
0.0
  0
LINE
  8
0
 62
     0
 10
283.556
 20
65.7821
 30
0.0
 11
284.355
 21
65.7821
 31
0.0
  0
LINE
  8
0
 62
     0
 10
284.355
 20
65.7821
 30
0.0
 11
284.355
 21
68.8813
 31
0.0
  0
LINE
  8
0
 62
     0
 10
284.355
 20
68.8813
 30
0.0
 11
283.556
 21
68.8813
 31
0.0
  0
LINE
  8
0
 62
     0
 10
283.556
 20
68.8813
 30
0.0
 11
283.556
 21
74.6813
 31
0.0
  0
LINE
  8
0
 62
     0
 10
283.556
 20
74.6813
 30
0.0
 11
284.355
 21
74.6813
 31
0.0
  0
LINE
  8
0
 62
     0
 10
284.355
 20
74.6813
 30
0.0
 11
284.355
 21
77.7819
 31
0.0
  0
LINE
  8
0
 62
     0
 10
284.355
 20
77.7819
 30
0.0
 11
283.556
 21
77.7819
 31
0.0
  0
LINE
  8
0
 62
     0
 10
283.556
 20
77.7819
 30
0.0
 11
283.556
 21
78.7809
 31
0.0
  0
LINE
  8
0
 62
     0
 10
283.556
 20
78.7809
 30
0.0
 11
269.555
 21
78.7809
 31
0.0
  0
LINE
  8
0
 62
     0
 10
264.794
 20
97.8309
 30
0.0
 11
264.794
 21
96.8319
 31
0.0
  0
LINE
  8
0
 62
     0
 10
264.794
 20
96.8319
 30
0.0
 11
263.993
 21
96.8319
 31
0.0
  0
LINE
  8
0
 62
     0
 10
263.993
 20
96.8319
 30
0.0
 11
263.993
 21
93.7313
 31
0.0
  0
LINE
  8
0
 62
     0
 10
263.993
 20
93.7313
 30
0.0
 11
264.794
 21
93.7313
 31
0.0
  0
LINE
  8
0
 62
     0
 10
264.794
 20
93.7313
 30
0.0
 11
264.794
 21
93.1319
 31
0.0
  0
LINE
  8
0
 62
     0
 10
264.794
 20
93.1319
 30
0.0
 11
263.219
 21
93.1319
 31
0.0
  0
LINE
  8
0
 62
     0
 10
263.219
 20
93.1319
 30
0.0
 11
263.219
 21
96.362
 31
0.0
  0
LINE
  8
0
 62
     0
 10
263.219
 20
96.362
 30
0.0
 11
261.543
 21
96.362
 31
0.0
  0
LINE
  8
0
 62
     0
 10
261.543
 20
96.362
 30
0.0
 11
261.543
 21
97.2813
 31
0.0
  0
LINE
  8
0
 62
     0
 10
261.543
 20
97.2813
 30
0.0
 11
258.244
 21
97.2813
 31
0.0
  0
LINE
  8
0
 62
     0
 10
258.244
 20
97.2813
 30
0.0
 11
258.244
 21
96.362
 31
0.0
  0
LINE
  8
0
 62
     0
 10
258.244
 20
96.362
 30
0.0
 11
256.569
 21
96.362
 31
0.0
  0
LINE
  8
0
 62
     0
 10
256.569
 20
96.362
 30
0.0
 11
256.569
 21
93.1319
 31
0.0
  0
LINE
  8
0
 62
     0
 10
256.569
 20
93.1319
 30
0.0
 11
255.694
 21
93.1319
 31
0.0
  0
LINE
  8
0
 62
     0
 10
255.694
 20
93.1319
 30
0.0
 11
255.694
 21
90.3319
 31
0.0
  0
LINE
  8
0
 62
     0
 10
255.694
 20
90.3319
 30
0.0
 11
256.569
 21
90.3319
 31
0.0
  0
LINE
  8
0
 62
     0
 10
256.569
 20
90.3319
 30
0.0
 11
256.569
 21
84.0617
 31
0.0
  0
LINE
  8
0
 62
     0
 10
256.569
 20
84.0617
 30
0.0
 11
258.244
 21
84.0617
 31
0.0
  0
LINE
  8
0
 62
     0
 10
258.244
 20
84.0617
 30
0.0
 11
258.244
 21
83.082
 31
0.0
  0
LINE
  8
0
 62
     0
 10
258.244
 20
83.082
 30
0.0
 11
261.543
 21
83.082
 31
0.0
  0
LINE
  8
0
 62
     0
 10
261.543
 20
83.082
 30
0.0
 11
261.543
 21
84.0617
 31
0.0
  0
LINE
  8
0
 62
     0
 10
261.543
 20
84.0617
 30
0.0
 11
263.219
 21
84.0617
 31
0.0
  0
LINE
  8
0
 62
     0
 10
263.219
 20
84.0617
 30
0.0
 11
263.219
 21
88.5321
 31
0.0
  0
LINE
  8
0
 62
     0
 10
263.219
 20
88.5321
 30
0.0
 11
264.794
 21
88.5321
 31
0.0
  0
LINE
  8
0
 62
     0
 10
264.794
 20
88.5321
 30
0.0
 11
264.794
 21
87.9313
 31
0.0
  0
LINE
  8
0
 62
     0
 10
264.794
 20
87.9313
 30
0.0
 11
263.993
 21
87.9313
 31
0.0
  0
LINE
  8
0
 62
     0
 10
263.993
 20
87.9313
 30
0.0
 11
263.993
 21
84.8321
 31
0.0
  0
LINE
  8
0
 62
     0
 10
263.993
 20
84.8321
 30
0.0
 11
264.794
 21
84.8321
 31
0.0
  0
LINE
  8
0
 62
     0
 10
264.794
 20
84.8321
 30
0.0
 11
264.794
 21
83.8316
 31
0.0
  0
LINE
  8
0
 62
     0
 10
264.794
 20
83.8316
 30
0.0
 11
278.794
 21
83.8316
 31
0.0
  0
LINE
  8
0
 62
     0
 10
278.794
 20
83.8316
 30
0.0
 11
278.794
 21
84.8321
 31
0.0
  0
LINE
  8
0
 62
     0
 10
278.794
 20
84.8321
 30
0.0
 11
279.594
 21
84.8321
 31
0.0
  0
LINE
  8
0
 62
     0
 10
279.594
 20
84.8321
 30
0.0
 11
279.594
 21
87.9313
 31
0.0
  0
LINE
  8
0
 62
     0
 10
279.594
 20
87.9313
 30
0.0
 11
278.794
 21
87.9313
 31
0.0
  0
LINE
  8
0
 62
     0
 10
278.794
 20
87.9313
 30
0.0
 11
278.794
 21
88.5321
 31
0.0
  0
LINE
  8
0
 62
     0
 10
278.794
 20
88.5321
 30
0.0
 11
280.369
 21
88.5321
 31
0.0
  0
LINE
  8
0
 62
     0
 10
280.369
 20
88.5321
 30
0.0
 11
280.369
 21
84.0617
 31
0.0
  0
LINE
  8
0
 62
     0
 10
280.369
 20
84.0617
 30
0.0
 11
282.043
 21
84.0617
 31
0.0
  0
LINE
  8
0
 62
     0
 10
282.043
 20
84.0617
 30
0.0
 11
282.043
 21
83.082
 31
0.0
  0
LINE
  8
0
 62
     0
 10
282.043
 20
83.082
 30
0.0
 11
285.344
 21
83.082
 31
0.0
  0
LINE
  8
0
 62
     0
 10
285.344
 20
83.082
 30
0.0
 11
285.344
 21
84.0617
 31
0.0
  0
LINE
  8
0
 62
     0
 10
285.344
 20
84.0617
 30
0.0
 11
287.019
 21
84.0617
 31
0.0
  0
LINE
  8
0
 62
     0
 10
287.019
 20
84.0617
 30
0.0
 11
287.019
 21
90.3319
 31
0.0
  0
LINE
  8
0
 62
     0
 10
287.019
 20
90.3319
 30
0.0
 11
287.894
 21
90.3319
 31
0.0
  0
LINE
  8
0
 62
     0
 10
287.894
 20
90.3319
 30
0.0
 11
287.894
 21
93.1319
 31
0.0
  0
LINE
  8
0
 62
     0
 10
287.894
 20
93.1319
 30
0.0
 11
287.019
 21
93.1319
 31
0.0
  0
LINE
  8
0
 62
     0
 10
287.019
 20
93.1319
 30
0.0
 11
287.019
 21
96.362
 31
0.0
  0
LINE
  8
0
 62
     0
 10
287.019
 20
96.362
 30
0.0
 11
285.344
 21
96.362
 31
0.0
  0
LINE
  8
0
 62
     0
 10
285.344
 20
96.362
 30
0.0
 11
285.344
 21
97.2813
 31
0.0
  0
LINE
  8
0
 62
     0
 10
285.344
 20
97.2813
 30
0.0
 11
282.043
 21
97.2813
 31
0.0
  0
LINE
  8
0
 62
     0
 10
282.043
 20
97.2813
 30
0.0
 11
282.043
 21
96.362
 31
0.0
  0
LINE
  8
0
 62
     0
 10
282.043
 20
96.362
 30
0.0
 11
280.369
 21
96.362
 31
0.0
  0
LINE
  8
0
 62
     0
 10
280.369
 20
96.362
 30
0.0
 11
280.369
 21
93.1319
 31
0.0
  0
LINE
  8
0
 62
     0
 10
280.369
 20
93.1319
 30
0.0
 11
278.794
 21
93.1319
 31
0.0
  0
LINE
  8
0
 62
     0
 10
278.794
 20
93.1319
 30
0.0
 11
278.794
 21
93.7313
 31
0.0
  0
LINE
  8
0
 62
     0
 10
278.794
 20
93.7313
 30
0.0
 11
279.594
 21
93.7313
 31
0.0
  0
LINE
  8
0
 62
     0
 10
279.594
 20
93.7313
 30
0.0
 11
279.594
 21
96.8319
 31
0.0
  0
LINE
  8
0
 62
     0
 10
279.594
 20
96.8319
 30
0.0
 11
278.794
 21
96.8319
 31
0.0
  0
LINE
  8
0
 62
     0
 10
278.794
 20
96.8319
 30
0.0
 11
278.794
 21
97.8309
 31
0.0
  0
LINE
  8
0
 62
     0
 10
278.794
 20
97.8309
 30
0.0
 11
264.794
 21
97.8309
 31
0.0
  0
LINE
  8
0
 62
     0
 10
7.61781
 20
97.8309
 30
0.0
 11
7.61781
 21
96.8319
 31
0.0
  0
LINE
  8
0
 62
     0
 10
7.61781
 20
96.8319
 30
0.0
 11
6.81715
 21
96.8319
 31
0.0
  0
LINE
  8
0
 62
     0
 10
6.81715
 20
96.8319
 30
0.0
 11
6.81715
 21
93.7313
 31
0.0
  0
LINE
  8
0
 62
     0
 10
6.81715
 20
93.7313
 30
0.0
 11
7.61781
 21
93.7313
 31
0.0
  0
LINE
  8
0
 62
     0
 10
7.61781
 20
93.7313
 30
0.0
 11
7.61781
 21
87.9313
 31
0.0
  0
LINE
  8
0
 62
     0
 10
7.61781
 20
87.9313
 30
0.0
 11
6.81715
 21
87.9313
 31
0.0
  0
LINE
  8
0
 62
     0
 10
6.81715
 20
87.9313
 30
0.0
 11
6.81715
 21
84.8321
 31
0.0
  0
LINE
  8
0
 62
     0
 10
6.81715
 20
84.8321
 30
0.0
 11
7.61781
 21
84.8321
 31
0.0
  0
LINE
  8
0
 62
     0
 10
7.61781
 20
84.8321
 30
0.0
 11
7.61781
 21
83.8316
 31
0.0
  0
LINE
  8
0
 62
     0
 10
7.61781
 20
83.8316
 30
0.0
 11
21.6187
 21
83.8316
 31
0.0
  0
LINE
  8
0
 62
     0
 10
21.6187
 20
83.8316
 30
0.0
 11
21.6187
 21
84.8321
 31
0.0
  0
LINE
  8
0
 62
     0
 10
21.6187
 20
84.8321
 30
0.0
 11
22.4193
 21
84.8321
 31
0.0
  0
LINE
  8
0
 62
     0
 10
22.4193
 20
84.8321
 30
0.0
 11
22.4193
 21
87.9313
 31
0.0
  0
LINE
  8
0
 62
     0
 10
22.4193
 20
87.9313
 30
0.0
 11
21.6187
 21
87.9313
 31
0.0
  0
LINE
  8
0
 62
     0
 10
21.6187
 20
87.9313
 30
0.0
 11
21.6187
 21
93.7313
 31
0.0
  0
LINE
  8
0
 62
     0
 10
21.6187
 20
93.7313
 30
0.0
 11
22.4193
 21
93.7313
 31
0.0
  0
LINE
  8
0
 62
     0
 10
22.4193
 20
93.7313
 30
0.0
 11
22.4193
 21
96.8319
 31
0.0
  0
LINE
  8
0
 62
     0
 10
22.4193
 20
96.8319
 30
0.0
 11
21.6187
 21
96.8319
 31
0.0
  0
LINE
  8
0
 62
     0
 10
21.6187
 20
96.8319
 30
0.0
 11
21.6187
 21
97.8309
 31
0.0
  0
LINE
  8
0
 62
     0
 10
21.6187
 20
97.8309
 30
0.0
 11
7.61781
 21
97.8309
 31
0.0
  0
LINE
  8
0
 62
     0
 10
26.6692
 20
97.8309
 30
0.0
 11
26.6692
 21
96.8319
 31
0.0
  0
LINE
  8
0
 62
     0
 10
26.6692
 20
96.8319
 30
0.0
 11
25.8685
 21
96.8319
 31
0.0
  0
LINE
  8
0
 62
     0
 10
25.8685
 20
96.8319
 30
0.0
 11
25.8685
 21
93.7313
 31
0.0
  0
LINE
  8
0
 62
     0
 10
25.8685
 20
93.7313
 30
0.0
 11
26.6692
 21
93.7313
 31
0.0
  0
LINE
  8
0
 62
     0
 10
26.6692
 20
93.7313
 30
0.0
 11
26.6692
 21
87.9313
 31
0.0
  0
LINE
  8
0
 62
     0
 10
26.6692
 20
87.9313
 30
0.0
 11
25.8685
 21
87.9313
 31
0.0
  0
LINE
  8
0
 62
     0
 10
25.8685
 20
87.9313
 30
0.0
 11
25.8685
 21
84.8321
 31
0.0
  0
LINE
  8
0
 62
     0
 10
25.8685
 20
84.8321
 30
0.0
 11
26.6692
 21
84.8321
 31
0.0
  0
LINE
  8
0
 62
     0
 10
26.6692
 20
84.8321
 30
0.0
 11
26.6692
 21
83.8316
 31
0.0
  0
LINE
  8
0
 62
     0
 10
26.6692
 20
83.8316
 30
0.0
 11
40.6686
 21
83.8316
 31
0.0
  0
LINE
  8
0
 62
     0
 10
40.6686
 20
83.8316
 30
0.0
 11
40.6686
 21
84.8321
 31
0.0
  0
LINE
  8
0
 62
     0
 10
40.6686
 20
84.8321
 30
0.0
 11
41.4694
 21
84.8321
 31
0.0
  0
LINE
  8
0
 62
     0
 10
41.4694
 20
84.8321
 30
0.0
 11
41.4694
 21
87.9313
 31
0.0
  0
LINE
  8
0
 62
     0
 10
41.4694
 20
87.9313
 30
0.0
 11
40.6686
 21
87.9313
 31
0.0
  0
LINE
  8
0
 62
     0
 10
40.6686
 20
87.9313
 30
0.0
 11
40.6686
 21
93.7313
 31
0.0
  0
LINE
  8
0
 62
     0
 10
40.6686
 20
93.7313
 30
0.0
 11
41.4694
 21
93.7313
 31
0.0
  0
LINE
  8
0
 62
     0
 10
41.4694
 20
93.7313
 30
0.0
 11
41.4694
 21
96.8319
 31
0.0
  0
LINE
  8
0
 62
     0
 10
41.4694
 20
96.8319
 30
0.0
 11
40.6686
 21
96.8319
 31
0.0
  0
LINE
  8
0
 62
     0
 10
40.6686
 20
96.8319
 30
0.0
 11
40.6686
 21
97.8309
 31
0.0
  0
LINE
  8
0
 62
     0
 10
40.6686
 20
97.8309
 30
0.0
 11
26.6692
 21
97.8309
 31
0.0
  0
LINE
  8
0
 62
     0
 10
45.7193
 20
97.8309
 30
0.0
 11
45.7193
 21
96.8319
 31
0.0
  0
LINE
  8
0
 62
     0
 10
45.7193
 20
96.8319
 30
0.0
 11
44.9185
 21
96.8319
 31
0.0
  0
LINE
  8
0
 62
     0
 10
44.9185
 20
96.8319
 30
0.0
 11
44.9185
 21
93.7313
 31
0.0
  0
LINE
  8
0
 62
     0
 10
44.9185
 20
93.7313
 30
0.0
 11
45.7193
 21
93.7313
 31
0.0
  0
LINE
  8
0
 62
     0
 10
45.7193
 20
93.7313
 30
0.0
 11
45.7193
 21
87.9313
 31
0.0
  0
LINE
  8
0
 62
     0
 10
45.7193
 20
87.9313
 30
0.0
 11
44.9185
 21
87.9313
 31
0.0
  0
LINE
  8
0
 62
     0
 10
44.9185
 20
87.9313
 30
0.0
 11
44.9185
 21
84.8321
 31
0.0
  0
LINE
  8
0
 62
     0
 10
44.9185
 20
84.8321
 30
0.0
 11
45.7193
 21
84.8321
 31
0.0
  0
LINE
  8
0
 62
     0
 10
45.7193
 20
84.8321
 30
0.0
 11
45.7193
 21
83.8316
 31
0.0
  0
LINE
  8
0
 62
     0
 10
45.7193
 20
83.8316
 30
0.0
 11
59.7186
 21
83.8316
 31
0.0
  0
LINE
  8
0
 62
     0
 10
59.7186
 20
83.8316
 30
0.0
 11
59.7186
 21
84.8321
 31
0.0
  0
LINE
  8
0
 62
     0
 10
59.7186
 20
84.8321
 30
0.0
 11
60.5194
 21
84.8321
 31
0.0
  0
LINE
  8
0
 62
     0
 10
60.5194
 20
84.8321
 30
0.0
 11
60.5194
 21
87.9313
 31
0.0
  0
LINE
  8
0
 62
     0
 10
60.5194
 20
87.9313
 30
0.0
 11
59.7186
 21
87.9313
 31
0.0
  0
LINE
  8
0
 62
     0
 10
59.7186
 20
87.9313
 30
0.0
 11
59.7186
 21
93.7313
 31
0.0
  0
LINE
  8
0
 62
     0
 10
59.7186
 20
93.7313
 30
0.0
 11
60.5194
 21
93.7313
 31
0.0
  0
LINE
  8
0
 62
     0
 10
60.5194
 20
93.7313
 30
0.0
 11
60.5194
 21
96.8319
 31
0.0
  0
LINE
  8
0
 62
     0
 10
60.5194
 20
96.8319
 30
0.0
 11
59.7186
 21
96.8319
 31
0.0
  0
LINE
  8
0
 62
     0
 10
59.7186
 20
96.8319
 30
0.0
 11
59.7186
 21
97.8309
 31
0.0
  0
LINE
  8
0
 62
     0
 10
59.7186
 20
97.8309
 30
0.0
 11
45.7193
 21
97.8309
 31
0.0
  0
LINE
  8
0
 62
     0
 10
64.7693
 20
97.8309
 30
0.0
 11
64.7693
 21
96.8319
 31
0.0
  0
LINE
  8
0
 62
     0
 10
64.7693
 20
96.8319
 30
0.0
 11
63.9685
 21
96.8319
 31
0.0
  0
LINE
  8
0
 62
     0
 10
63.9685
 20
96.8319
 30
0.0
 11
63.9685
 21
93.7313
 31
0.0
  0
LINE
  8
0
 62
     0
 10
63.9685
 20
93.7313
 30
0.0
 11
64.7693
 21
93.7313
 31
0.0
  0
LINE
  8
0
 62
     0
 10
64.7693
 20
93.7313
 30
0.0
 11
64.7693
 21
87.9313
 31
0.0
  0
LINE
  8
0
 62
     0
 10
64.7693
 20
87.9313
 30
0.0
 11
63.9685
 21
87.9313
 31
0.0
  0
LINE
  8
0
 62
     0
 10
63.9685
 20
87.9313
 30
0.0
 11
63.9685
 21
84.8321
 31
0.0
  0
LINE
  8
0
 62
     0
 10
63.9685
 20
84.8321
 30
0.0
 11
64.7693
 21
84.8321
 31
0.0
  0
LINE
  8
0
 62
     0
 10
64.7693
 20
84.8321
 30
0.0
 11
64.7693
 21
83.8316
 31
0.0
  0
LINE
  8
0
 62
     0
 10
64.7693
 20
83.8316
 30
0.0
 11
78.7686
 21
83.8316
 31
0.0
  0
LINE
  8
0
 62
     0
 10
78.7686
 20
83.8316
 30
0.0
 11
78.7686
 21
84.8321
 31
0.0
  0
LINE
  8
0
 62
     0
 10
78.7686
 20
84.8321
 30
0.0
 11
79.5694
 21
84.8321
 31
0.0
  0
LINE
  8
0
 62
     0
 10
79.5694
 20
84.8321
 30
0.0
 11
79.5694
 21
87.9313
 31
0.0
  0
LINE
  8
0
 62
     0
 10
79.5694
 20
87.9313
 30
0.0
 11
78.7686
 21
87.9313
 31
0.0
  0
LINE
  8
0
 62
     0
 10
78.7686
 20
87.9313
 30
0.0
 11
78.7686
 21
93.7313
 31
0.0
  0
LINE
  8
0
 62
     0
 10
78.7686
 20
93.7313
 30
0.0
 11
79.5694
 21
93.7313
 31
0.0
  0
LINE
  8
0
 62
     0
 10
79.5694
 20
93.7313
 30
0.0
 11
79.5694
 21
96.8319
 31
0.0
  0
LINE
  8
0
 62
     0
 10
79.5694
 20
96.8319
 30
0.0
 11
78.7686
 21
96.8319
 31
0.0
  0
LINE
  8
0
 62
     0
 10
78.7686
 20
96.8319
 30
0.0
 11
78.7686
 21
97.8309
 31
0.0
  0
LINE
  8
0
 62
     0
 10
78.7686
 20
97.8309
 30
0.0
 11
64.7693
 21
97.8309
 31
0.0
  0
LINE
  8
0
 62
     0
 10
83.8193
 20
97.8309
 30
0.0
 11
83.8193
 21
96.8319
 31
0.0
  0
LINE
  8
0
 62
     0
 10
83.8193
 20
96.8319
 30
0.0
 11
83.0185
 21
96.8319
 31
0.0
  0
LINE
  8
0
 62
     0
 10
83.0185
 20
96.8319
 30
0.0
 11
83.0185
 21
93.7313
 31
0.0
  0
LINE
  8
0
 62
     0
 10
83.0185
 20
93.7313
 30
0.0
 11
83.8193
 21
93.7313
 31
0.0
  0
LINE
  8
0
 62
     0
 10
83.8193
 20
93.7313
 30
0.0
 11
83.8193
 21
87.9313
 31
0.0
  0
LINE
  8
0
 62
     0
 10
83.8193
 20
87.9313
 30
0.0
 11
83.0185
 21
87.9313
 31
0.0
  0
LINE
  8
0
 62
     0
 10
83.0185
 20
87.9313
 30
0.0
 11
83.0185
 21
84.8321
 31
0.0
  0
LINE
  8
0
 62
     0
 10
83.0185
 20
84.8321
 30
0.0
 11
83.8193
 21
84.8321
 31
0.0
  0
LINE
  8
0
 62
     0
 10
83.8193
 20
84.8321
 30
0.0
 11
83.8193
 21
83.8316
 31
0.0
  0
LINE
  8
0
 62
     0
 10
83.8193
 20
83.8316
 30
0.0
 11
97.8186
 21
83.8316
 31
0.0
  0
LINE
  8
0
 62
     0
 10
97.8186
 20
83.8316
 30
0.0
 11
97.8186
 21
84.8321
 31
0.0
  0
LINE
  8
0
 62
     0
 10
97.8186
 20
84.8321
 30
0.0
 11
98.618
 21
84.8321
 31
0.0
  0
LINE
  8
0
 62
     0
 10
98.618
 20
84.8321
 30
0.0
 11
98.618
 21
87.9313
 31
0.0
  0
LINE
  8
0
 62
     0
 10
98.618
 20
87.9313
 30
0.0
 11
97.8186
 21
87.9313
 31
0.0
  0
LINE
  8
0
 62
     0
 10
97.8186
 20
87.9313
 30
0.0
 11
97.8186
 21
93.7313
 31
0.0
  0
LINE
  8
0
 62
     0
 10
97.8186
 20
93.7313
 30
0.0
 11
98.618
 21
93.7313
 31
0.0
  0
LINE
  8
0
 62
     0
 10
98.618
 20
93.7313
 30
0.0
 11
98.618
 21
96.8319
 31
0.0
  0
LINE
  8
0
 62
     0
 10
98.618
 20
96.8319
 30
0.0
 11
97.8186
 21
96.8319
 31
0.0
  0
LINE
  8
0
 62
     0
 10
97.8186
 20
96.8319
 30
0.0
 11
97.8186
 21
97.8309
 31
0.0
  0
LINE
  8
0
 62
     0
 10
97.8186
 20
97.8309
 30
0.0
 11
83.8193
 21
97.8309
 31
0.0
  0
LINE
  8
0
 62
     0
 10
102.868
 20
97.8309
 30
0.0
 11
102.868
 21
96.8319
 31
0.0
  0
LINE
  8
0
 62
     0
 10
102.868
 20
96.8319
 30
0.0
 11
102.068
 21
96.8319
 31
0.0
  0
LINE
  8
0
 62
     0
 10
102.068
 20
96.8319
 30
0.0
 11
102.068
 21
93.7313
 31
0.0
  0
LINE
  8
0
 62
     0
 10
102.068
 20
93.7313
 30
0.0
 11
102.868
 21
93.7313
 31
0.0
  0
LINE
  8
0
 62
     0
 10
102.868
 20
93.7313
 30
0.0
 11
102.868
 21
87.9313
 31
0.0
  0
LINE
  8
0
 62
     0
 10
102.868
 20
87.9313
 30
0.0
 11
102.068
 21
87.9313
 31
0.0
  0
LINE
  8
0
 62
     0
 10
102.068
 20
87.9313
 30
0.0
 11
102.068
 21
84.8321
 31
0.0
  0
LINE
  8
0
 62
     0
 10
102.068
 20
84.8321
 30
0.0
 11
102.868
 21
84.8321
 31
0.0
  0
LINE
  8
0
 62
     0
 10
102.868
 20
84.8321
 30
0.0
 11
102.868
 21
83.8316
 31
0.0
  0
LINE
  8
0
 62
     0
 10
102.868
 20
83.8316
 30
0.0
 11
116.867
 21
83.8316
 31
0.0
  0
LINE
  8
0
 62
     0
 10
116.867
 20
83.8316
 30
0.0
 11
116.867
 21
84.8321
 31
0.0
  0
LINE
  8
0
 62
     0
 10
116.867
 20
84.8321
 30
0.0
 11
117.668
 21
84.8321
 31
0.0
  0
LINE
  8
0
 62
     0
 10
117.668
 20
84.8321
 30
0.0
 11
117.668
 21
87.9313
 31
0.0
  0
LINE
  8
0
 62
     0
 10
117.668
 20
87.9313
 30
0.0
 11
116.867
 21
87.9313
 31
0.0
  0
LINE
  8
0
 62
     0
 10
116.867
 20
87.9313
 30
0.0
 11
116.867
 21
93.7313
 31
0.0
  0
LINE
  8
0
 62
     0
 10
116.867
 20
93.7313
 30
0.0
 11
117.668
 21
93.7313
 31
0.0
  0
LINE
  8
0
 62
     0
 10
117.668
 20
93.7313
 30
0.0
 11
117.668
 21
96.8319
 31
0.0
  0
LINE
  8
0
 62
     0
 10
117.668
 20
96.8319
 30
0.0
 11
116.867
 21
96.8319
 31
0.0
  0
LINE
  8
0
 62
     0
 10
116.867
 20
96.8319
 30
0.0
 11
116.867
 21
97.8309
 31
0.0
  0
LINE
  8
0
 62
     0
 10
116.867
 20
97.8309
 30
0.0
 11
102.868
 21
97.8309
 31
0.0
  0
LINE
  8
0
 62
     0
 10
121.918
 20
97.8309
 30
0.0
 11
121.918
 21
96.8319
 31
0.0
  0
LINE
  8
0
 62
     0
 10
121.918
 20
96.8319
 30
0.0
 11
121.117
 21
96.8319
 31
0.0
  0
LINE
  8
0
 62
     0
 10
121.117
 20
96.8319
 30
0.0
 11
121.117
 21
93.7313
 31
0.0
  0
LINE
  8
0
 62
     0
 10
121.117
 20
93.7313
 30
0.0
 11
121.918
 21
93.7313
 31
0.0
  0
LINE
  8
0
 62
     0
 10
121.918
 20
93.7313
 30
0.0
 11
121.918
 21
87.9313
 31
0.0
  0
LINE
  8
0
 62
     0
 10
121.918
 20
87.9313
 30
0.0
 11
121.117
 21
87.9313
 31
0.0
  0
LINE
  8
0
 62
     0
 10
121.117
 20
87.9313
 30
0.0
 11
121.117
 21
84.8321
 31
0.0
  0
LINE
  8
0
 62
     0
 10
121.117
 20
84.8321
 30
0.0
 11
121.918
 21
84.8321
 31
0.0
  0
LINE
  8
0
 62
     0
 10
121.918
 20
84.8321
 30
0.0
 11
121.918
 21
83.8316
 31
0.0
  0
LINE
  8
0
 62
     0
 10
121.918
 20
83.8316
 30
0.0
 11
135.919
 21
83.8316
 31
0.0
  0
LINE
  8
0
 62
     0
 10
135.919
 20
83.8316
 30
0.0
 11
135.919
 21
84.8321
 31
0.0
  0
LINE
  8
0
 62
     0
 10
135.919
 20
84.8321
 30
0.0
 11
136.719
 21
84.8321
 31
0.0
  0
LINE
  8
0
 62
     0
 10
136.719
 20
84.8321
 30
0.0
 11
136.719
 21
87.9313
 31
0.0
  0
LINE
  8
0
 62
     0
 10
136.719
 20
87.9313
 30
0.0
 11
135.919
 21
87.9313
 31
0.0
  0
LINE
  8
0
 62
     0
 10
135.919
 20
87.9313
 30
0.0
 11
135.919
 21
93.7313
 31
0.0
  0
LINE
  8
0
 62
     0
 10
135.919
 20
93.7313
 30
0.0
 11
136.719
 21
93.7313
 31
0.0
  0
LINE
  8
0
 62
     0
 10
136.719
 20
93.7313
 30
0.0
 11
136.719
 21
96.8319
 31
0.0
  0
LINE
  8
0
 62
     0
 10
136.719
 20
96.8319
 30
0.0
 11
135.919
 21
96.8319
 31
0.0
  0
LINE
  8
0
 62
     0
 10
135.919
 20
96.8319
 30
0.0
 11
135.919
 21
97.8309
 31
0.0
  0
LINE
  8
0
 62
     0
 10
135.919
 20
97.8309
 30
0.0
 11
121.918
 21
97.8309
 31
0.0
  0
LINE
  8
0
 62
     0
 10
140.969
 20
97.8309
 30
0.0
 11
140.969
 21
96.8319
 31
0.0
  0
LINE
  8
0
 62
     0
 10
140.969
 20
96.8319
 30
0.0
 11
140.168
 21
96.8319
 31
0.0
  0
LINE
  8
0
 62
     0
 10
140.168
 20
96.8319
 30
0.0
 11
140.168
 21
93.7313
 31
0.0
  0
LINE
  8
0
 62
     0
 10
140.168
 20
93.7313
 30
0.0
 11
140.969
 21
93.7313
 31
0.0
  0
LINE
  8
0
 62
     0
 10
140.969
 20
93.7313
 30
0.0
 11
140.969
 21
87.9313
 31
0.0
  0
LINE
  8
0
 62
     0
 10
140.969
 20
87.9313
 30
0.0
 11
140.168
 21
87.9313
 31
0.0
  0
LINE
  8
0
 62
     0
 10
140.168
 20
87.9313
 30
0.0
 11
140.168
 21
84.8321
 31
0.0
  0
LINE
  8
0
 62
     0
 10
140.168
 20
84.8321
 30
0.0
 11
140.969
 21
84.8321
 31
0.0
  0
LINE
  8
0
 62
     0
 10
140.969
 20
84.8321
 30
0.0
 11
140.969
 21
83.8316
 31
0.0
  0
LINE
  8
0
 62
     0
 10
140.969
 20
83.8316
 30
0.0
 11
154.969
 21
83.8316
 31
0.0
  0
LINE
  8
0
 62
     0
 10
154.969
 20
83.8316
 30
0.0
 11
154.969
 21
84.8321
 31
0.0
  0
LINE
  8
0
 62
     0
 10
154.969
 20
84.8321
 30
0.0
 11
155.769
 21
84.8321
 31
0.0
  0
LINE
  8
0
 62
     0
 10
155.769
 20
84.8321
 30
0.0
 11
155.769
 21
87.9313
 31
0.0
  0
LINE
  8
0
 62
     0
 10
155.769
 20
87.9313
 30
0.0
 11
154.969
 21
87.9313
 31
0.0
  0
LINE
  8
0
 62
     0
 10
154.969
 20
87.9313
 30
0.0
 11
154.969
 21
93.7313
 31
0.0
  0
LINE
  8
0
 62
     0
 10
154.969
 20
93.7313
 30
0.0
 11
155.769
 21
93.7313
 31
0.0
  0
LINE
  8
0
 62
     0
 10
155.769
 20
93.7313
 30
0.0
 11
155.769
 21
96.8319
 31
0.0
  0
LINE
  8
0
 62
     0
 10
155.769
 20
96.8319
 30
0.0
 11
154.969
 21
96.8319
 31
0.0
  0
LINE
  8
0
 62
     0
 10
154.969
 20
96.8319
 30
0.0
 11
154.969
 21
97.8309
 31
0.0
  0
LINE
  8
0
 62
     0
 10
154.969
 20
97.8309
 30
0.0
 11
140.969
 21
97.8309
 31
0.0
  0
LINE
  8
0
 62
     0
 10
160.019
 20
97.8309
 30
0.0
 11
160.019
 21
96.8319
 31
0.0
  0
LINE
  8
0
 62
     0
 10
160.019
 20
96.8319
 30
0.0
 11
159.218
 21
96.8319
 31
0.0
  0
LINE
  8
0
 62
     0
 10
159.218
 20
96.8319
 30
0.0
 11
159.218
 21
93.7313
 31
0.0
  0
LINE
  8
0
 62
     0
 10
159.218
 20
93.7313
 30
0.0
 11
160.019
 21
93.7313
 31
0.0
  0
LINE
  8
0
 62
     0
 10
160.019
 20
93.7313
 30
0.0
 11
160.019
 21
87.9313
 31
0.0
  0
LINE
  8
0
 62
     0
 10
160.019
 20
87.9313
 30
0.0
 11
159.218
 21
87.9313
 31
0.0
  0
LINE
  8
0
 62
     0
 10
159.218
 20
87.9313
 30
0.0
 11
159.218
 21
84.8321
 31
0.0
  0
LINE
  8
0
 62
     0
 10
159.218
 20
84.8321
 30
0.0
 11
160.019
 21
84.8321
 31
0.0
  0
LINE
  8
0
 62
     0
 10
160.019
 20
84.8321
 30
0.0
 11
160.019
 21
83.8316
 31
0.0
  0
LINE
  8
0
 62
     0
 10
160.019
 20
83.8316
 30
0.0
 11
174.019
 21
83.8316
 31
0.0
  0
LINE
  8
0
 62
     0
 10
174.019
 20
83.8316
 30
0.0
 11
174.019
 21
84.8321
 31
0.0
  0
LINE
  8
0
 62
     0
 10
174.019
 20
84.8321
 30
0.0
 11
174.819
 21
84.8321
 31
0.0
  0
LINE
  8
0
 62
     0
 10
174.819
 20
84.8321
 30
0.0
 11
174.819
 21
87.9313
 31
0.0
  0
LINE
  8
0
 62
     0
 10
174.819
 20
87.9313
 30
0.0
 11
174.019
 21
87.9313
 31
0.0
  0
LINE
  8
0
 62
     0
 10
174.019
 20
87.9313
 30
0.0
 11
174.019
 21
93.7313
 31
0.0
  0
LINE
  8
0
 62
     0
 10
174.019
 20
93.7313
 30
0.0
 11
174.819
 21
93.7313
 31
0.0
  0
LINE
  8
0
 62
     0
 10
174.819
 20
93.7313
 30
0.0
 11
174.819
 21
96.8319
 31
0.0
  0
LINE
  8
0
 62
     0
 10
174.819
 20
96.8319
 30
0.0
 11
174.019
 21
96.8319
 31
0.0
  0
LINE
  8
0
 62
     0
 10
174.019
 20
96.8319
 30
0.0
 11
174.019
 21
97.8309
 31
0.0
  0
LINE
  8
0
 62
     0
 10
174.019
 20
97.8309
 30
0.0
 11
160.019
 21
97.8309
 31
0.0
  0
LINE
  8
0
 62
     0
 10
179.069
 20
97.8309
 30
0.0
 11
179.069
 21
96.8319
 31
0.0
  0
LINE
  8
0
 62
     0
 10
179.069
 20
96.8319
 30
0.0
 11
178.268
 21
96.8319
 31
0.0
  0
LINE
  8
0
 62
     0
 10
178.268
 20
96.8319
 30
0.0
 11
178.268
 21
93.7313
 31
0.0
  0
LINE
  8
0
 62
     0
 10
178.268
 20
93.7313
 30
0.0
 11
179.069
 21
93.7313
 31
0.0
  0
LINE
  8
0
 62
     0
 10
179.069
 20
93.7313
 30
0.0
 11
179.069
 21
87.9313
 31
0.0
  0
LINE
  8
0
 62
     0
 10
179.069
 20
87.9313
 30
0.0
 11
178.268
 21
87.9313
 31
0.0
  0
LINE
  8
0
 62
     0
 10
178.268
 20
87.9313
 30
0.0
 11
178.268
 21
84.8321
 31
0.0
  0
LINE
  8
0
 62
     0
 10
178.268
 20
84.8321
 30
0.0
 11
179.069
 21
84.8321
 31
0.0
  0
LINE
  8
0
 62
     0
 10
179.069
 20
84.8321
 30
0.0
 11
179.069
 21
83.8316
 31
0.0
  0
LINE
  8
0
 62
     0
 10
179.069
 20
83.8316
 30
0.0
 11
193.069
 21
83.8316
 31
0.0
  0
LINE
  8
0
 62
     0
 10
193.069
 20
83.8316
 30
0.0
 11
193.069
 21
84.8321
 31
0.0
  0
LINE
  8
0
 62
     0
 10
193.069
 20
84.8321
 30
0.0
 11
193.869
 21
84.8321
 31
0.0
  0
LINE
  8
0
 62
     0
 10
193.869
 20
84.8321
 30
0.0
 11
193.869
 21
87.9313
 31
0.0
  0
LINE
  8
0
 62
     0
 10
193.869
 20
87.9313
 30
0.0
 11
193.069
 21
87.9313
 31
0.0
  0
LINE
  8
0
 62
     0
 10
193.069
 20
87.9313
 30
0.0
 11
193.069
 21
93.7313
 31
0.0
  0
LINE
  8
0
 62
     0
 10
193.069
 20
93.7313
 30
0.0
 11
193.869
 21
93.7313
 31
0.0
  0
LINE
  8
0
 62
     0
 10
193.869
 20
93.7313
 30
0.0
 11
193.869
 21
96.8319
 31
0.0
  0
LINE
  8
0
 62
     0
 10
193.869
 20
96.8319
 30
0.0
 11
193.069
 21
96.8319
 31
0.0
  0
LINE
  8
0
 62
     0
 10
193.069
 20
96.8319
 30
0.0
 11
193.069
 21
97.8309
 31
0.0
  0
LINE
  8
0
 62
     0
 10
193.069
 20
97.8309
 30
0.0
 11
179.069
 21
97.8309
 31
0.0
  0
LINE
  8
0
 62
     0
 10
198.119
 20
97.8309
 30
0.0
 11
198.119
 21
96.8319
 31
0.0
  0
LINE
  8
0
 62
     0
 10
198.119
 20
96.8319
 30
0.0
 11
197.318
 21
96.8319
 31
0.0
  0
LINE
  8
0
 62
     0
 10
197.318
 20
96.8319
 30
0.0
 11
197.318
 21
93.7313
 31
0.0
  0
LINE
  8
0
 62
     0
 10
197.318
 20
93.7313
 30
0.0
 11
198.119
 21
93.7313
 31
0.0
  0
LINE
  8
0
 62
     0
 10
198.119
 20
93.7313
 30
0.0
 11
198.119
 21
87.9313
 31
0.0
  0
LINE
  8
0
 62
     0
 10
198.119
 20
87.9313
 30
0.0
 11
197.318
 21
87.9313
 31
0.0
  0
LINE
  8
0
 62
     0
 10
197.318
 20
87.9313
 30
0.0
 11
197.318
 21
84.8321
 31
0.0
  0
LINE
  8
0
 62
     0
 10
197.318
 20
84.8321
 30
0.0
 11
198.119
 21
84.8321
 31
0.0
  0
LINE
  8
0
 62
     0
 10
198.119
 20
84.8321
 30
0.0
 11
198.119
 21
83.8316
 31
0.0
  0
LINE
  8
0
 62
     0
 10
198.119
 20
83.8316
 30
0.0
 11
212.119
 21
83.8316
 31
0.0
  0
LINE
  8
0
 62
     0
 10
212.119
 20
83.8316
 30
0.0
 11
212.119
 21
84.8321
 31
0.0
  0
LINE
  8
0
 62
     0
 10
212.119
 20
84.8321
 30
0.0
 11
212.919
 21
84.8321
 31
0.0
  0
LINE
  8
0
 62
     0
 10
212.919
 20
84.8321
 30
0.0
 11
212.919
 21
87.9313
 31
0.0
  0
LINE
  8
0
 62
     0
 10
212.919
 20
87.9313
 30
0.0
 11
212.119
 21
87.9313
 31
0.0
  0
LINE
  8
0
 62
     0
 10
212.119
 20
87.9313
 30
0.0
 11
212.119
 21
93.7313
 31
0.0
  0
LINE
  8
0
 62
     0
 10
212.119
 20
93.7313
 30
0.0
 11
212.919
 21
93.7313
 31
0.0
  0
LINE
  8
0
 62
     0
 10
212.919
 20
93.7313
 30
0.0
 11
212.919
 21
96.8319
 31
0.0
  0
LINE
  8
0
 62
     0
 10
212.919
 20
96.8319
 30
0.0
 11
212.119
 21
96.8319
 31
0.0
  0
LINE
  8
0
 62
     0
 10
212.119
 20
96.8319
 30
0.0
 11
212.119
 21
97.8309
 31
0.0
  0
LINE
  8
0
 62
     0
 10
212.119
 20
97.8309
 30
0.0
 11
198.119
 21
97.8309
 31
0.0
  0
LINE
  8
0
 62
     0
 10
217.169
 20
97.8309
 30
0.0
 11
217.169
 21
96.8319
 31
0.0
  0
LINE
  8
0
 62
     0
 10
217.169
 20
96.8319
 30
0.0
 11
216.368
 21
96.8319
 31
0.0
  0
LINE
  8
0
 62
     0
 10
216.368
 20
96.8319
 30
0.0
 11
216.368
 21
93.7313
 31
0.0
  0
LINE
  8
0
 62
     0
 10
216.368
 20
93.7313
 30
0.0
 11
217.169
 21
93.7313
 31
0.0
  0
LINE
  8
0
 62
     0
 10
217.169
 20
93.7313
 30
0.0
 11
217.169
 21
87.9313
 31
0.0
  0
LINE
  8
0
 62
     0
 10
217.169
 20
87.9313
 30
0.0
 11
216.368
 21
87.9313
 31
0.0
  0
LINE
  8
0
 62
     0
 10
216.368
 20
87.9313
 30
0.0
 11
216.368
 21
84.8321
 31
0.0
  0
LINE
  8
0
 62
     0
 10
216.368
 20
84.8321
 30
0.0
 11
217.169
 21
84.8321
 31
0.0
  0
LINE
  8
0
 62
     0
 10
217.169
 20
84.8321
 30
0.0
 11
217.169
 21
83.8316
 31
0.0
  0
LINE
  8
0
 62
     0
 10
217.169
 20
83.8316
 30
0.0
 11
231.169
 21
83.8316
 31
0.0
  0
LINE
  8
0
 62
     0
 10
231.169
 20
83.8316
 30
0.0
 11
231.169
 21
84.8321
 31
0.0
  0
LINE
  8
0
 62
     0
 10
231.169
 20
84.8321
 30
0.0
 11
231.969
 21
84.8321
 31
0.0
  0
LINE
  8
0
 62
     0
 10
231.969
 20
84.8321
 30
0.0
 11
231.969
 21
87.9313
 31
0.0
  0
LINE
  8
0
 62
     0
 10
231.969
 20
87.9313
 30
0.0
 11
231.169
 21
87.9313
 31
0.0
  0
LINE
  8
0
 62
     0
 10
231.169
 20
87.9313
 30
0.0
 11
231.169
 21
93.7313
 31
0.0
  0
LINE
  8
0
 62
     0
 10
231.169
 20
93.7313
 30
0.0
 11
231.969
 21
93.7313
 31
0.0
  0
LINE
  8
0
 62
     0
 10
231.969
 20
93.7313
 30
0.0
 11
231.969
 21
96.8319
 31
0.0
  0
LINE
  8
0
 62
     0
 10
231.969
 20
96.8319
 30
0.0
 11
231.169
 21
96.8319
 31
0.0
  0
LINE
  8
0
 62
     0
 10
231.169
 20
96.8319
 30
0.0
 11
231.169
 21
97.8309
 31
0.0
  0
LINE
  8
0
 62
     0
 10
231.169
 20
97.8309
 30
0.0
 11
217.169
 21
97.8309
 31
0.0
  0
LINE
  8
0
 62
     0
 10
236.219
 20
97.8309
 30
0.0
 11
236.219
 21
96.8319
 31
0.0
  0
LINE
  8
0
 62
     0
 10
236.219
 20
96.8319
 30
0.0
 11
235.418
 21
96.8319
 31
0.0
  0
LINE
  8
0
 62
     0
 10
235.418
 20
96.8319
 30
0.0
 11
235.418
 21
93.7313
 31
0.0
  0
LINE
  8
0
 62
     0
 10
235.418
 20
93.7313
 30
0.0
 11
236.219
 21
93.7313
 31
0.0
  0
LINE
  8
0
 62
     0
 10
236.219
 20
93.7313
 30
0.0
 11
236.219
 21
87.9313
 31
0.0
  0
LINE
  8
0
 62
     0
 10
236.219
 20
87.9313
 30
0.0
 11
235.418
 21
87.9313
 31
0.0
  0
LINE
  8
0
 62
     0
 10
235.418
 20
87.9313
 30
0.0
 11
235.418
 21
84.8321
 31
0.0
  0
LINE
  8
0
 62
     0
 10
235.418
 20
84.8321
 30
0.0
 11
236.219
 21
84.8321
 31
0.0
  0
LINE
  8
0
 62
     0
 10
236.219
 20
84.8321
 30
0.0
 11
236.219
 21
83.8316
 31
0.0
  0
LINE
  8
0
 62
     0
 10
236.219
 20
83.8316
 30
0.0
 11
250.219
 21
83.8316
 31
0.0
  0
LINE
  8
0
 62
     0
 10
250.219
 20
83.8316
 30
0.0
 11
250.219
 21
84.8321
 31
0.0
  0
LINE
  8
0
 62
     0
 10
250.219
 20
84.8321
 30
0.0
 11
251.019
 21
84.8321
 31
0.0
  0
LINE
  8
0
 62
     0
 10
251.019
 20
84.8321
 30
0.0
 11
251.019
 21
87.9313
 31
0.0
  0
LINE
  8
0
 62
     0
 10
251.019
 20
87.9313
 30
0.0
 11
250.219
 21
87.9313
 31
0.0
  0
LINE
  8
0
 62
     0
 10
250.219
 20
87.9313
 30
0.0
 11
250.219
 21
93.7313
 31
0.0
  0
LINE
  8
0
 62
     0
 10
250.219
 20
93.7313
 30
0.0
 11
251.019
 21
93.7313
 31
0.0
  0
LINE
  8
0
 62
     0
 10
251.019
 20
93.7313
 30
0.0
 11
251.019
 21
96.8319
 31
0.0
  0
LINE
  8
0
 62
     0
 10
251.019
 20
96.8319
 30
0.0
 11
250.219
 21
96.8319
 31
0.0
  0
LINE
  8
0
 62
     0
 10
250.219
 20
96.8319
 30
0.0
 11
250.219
 21
97.8309
 31
0.0
  0
LINE
  8
0
 62
     0
 10
250.219
 20
97.8309
 30
0.0
 11
236.219
 21
97.8309
 31
0.0
  0
LINE
  8
0
 62
     0
 10
7.61781
 20
116.882
 30
0.0
 11
7.61781
 21
115.882
 31
0.0
  0
LINE
  8
0
 62
     0
 10
7.61781
 20
115.882
 30
0.0
 11
6.81715
 21
115.882
 31
0.0
  0
LINE
  8
0
 62
     0
 10
6.81715
 20
115.882
 30
0.0
 11
6.81715
 21
112.781
 31
0.0
  0
LINE
  8
0
 62
     0
 10
6.81715
 20
112.781
 30
0.0
 11
7.61781
 21
112.781
 31
0.0
  0
LINE
  8
0
 62
     0
 10
7.61781
 20
112.781
 30
0.0
 11
7.61781
 21
106.983
 31
0.0
  0
LINE
  8
0
 62
     0
 10
7.61781
 20
106.983
 30
0.0
 11
6.81715
 21
106.983
 31
0.0
  0
LINE
  8
0
 62
     0
 10
6.81715
 20
106.983
 30
0.0
 11
6.81715
 21
103.882
 31
0.0
  0
LINE
  8
0
 62
     0
 10
6.81715
 20
103.882
 30
0.0
 11
7.61781
 21
103.882
 31
0.0
  0
LINE
  8
0
 62
     0
 10
7.61781
 20
103.882
 30
0.0
 11
7.61781
 21
102.882
 31
0.0
  0
LINE
  8
0
 62
     0
 10
7.61781
 20
102.882
 30
0.0
 11
21.6187
 21
102.882
 31
0.0
  0
LINE
  8
0
 62
     0
 10
21.6187
 20
102.882
 30
0.0
 11
21.6187
 21
103.882
 31
0.0
  0
LINE
  8
0
 62
     0
 10
21.6187
 20
103.882
 30
0.0
 11
22.4193
 21
103.882
 31
0.0
  0
LINE
  8
0
 62
     0
 10
22.4193
 20
103.882
 30
0.0
 11
22.4193
 21
106.983
 31
0.0
  0
LINE
  8
0
 62
     0
 10
22.4193
 20
106.983
 30
0.0
 11
21.6187
 21
106.983
 31
0.0
  0
LINE
  8
0
 62
     0
 10
21.6187
 20
106.983
 30
0.0
 11
21.6187
 21
112.781
 31
0.0
  0
LINE
  8
0
 62
     0
 10
21.6187
 20
112.781
 30
0.0
 11
22.4193
 21
112.781
 31
0.0
  0
LINE
  8
0
 62
     0
 10
22.4193
 20
112.781
 30
0.0
 11
22.4193
 21
115.882
 31
0.0
  0
LINE
  8
0
 62
     0
 10
22.4193
 20
115.882
 30
0.0
 11
21.6187
 21
115.882
 31
0.0
  0
LINE
  8
0
 62
     0
 10
21.6187
 20
115.882
 30
0.0
 11
21.6187
 21
116.882
 31
0.0
  0
LINE
  8
0
 62
     0
 10
21.6187
 20
116.882
 30
0.0
 11
7.61781
 21
116.882
 31
0.0
  0
LINE
  8
0
 62
     0
 10
26.6692
 20
116.882
 30
0.0
 11
26.6692
 21
115.882
 31
0.0
  0
LINE
  8
0
 62
     0
 10
26.6692
 20
115.882
 30
0.0
 11
25.8685
 21
115.882
 31
0.0
  0
LINE
  8
0
 62
     0
 10
25.8685
 20
115.882
 30
0.0
 11
25.8685
 21
112.781
 31
0.0
  0
LINE
  8
0
 62
     0
 10
25.8685
 20
112.781
 30
0.0
 11
26.6692
 21
112.781
 31
0.0
  0
LINE
  8
0
 62
     0
 10
26.6692
 20
112.781
 30
0.0
 11
26.6692
 21
106.983
 31
0.0
  0
LINE
  8
0
 62
     0
 10
26.6692
 20
106.983
 30
0.0
 11
25.8685
 21
106.983
 31
0.0
  0
LINE
  8
0
 62
     0
 10
25.8685
 20
106.983
 30
0.0
 11
25.8685
 21
103.882
 31
0.0
  0
LINE
  8
0
 62
     0
 10
25.8685
 20
103.882
 30
0.0
 11
26.6692
 21
103.882
 31
0.0
  0
LINE
  8
0
 62
     0
 10
26.6692
 20
103.882
 30
0.0
 11
26.6692
 21
102.882
 31
0.0
  0
LINE
  8
0
 62
     0
 10
26.6692
 20
102.882
 30
0.0
 11
40.6686
 21
102.882
 31
0.0
  0
LINE
  8
0
 62
     0
 10
40.6686
 20
102.882
 30
0.0
 11
40.6686
 21
103.882
 31
0.0
  0
LINE
  8
0
 62
     0
 10
40.6686
 20
103.882
 30
0.0
 11
41.4694
 21
103.882
 31
0.0
  0
LINE
  8
0
 62
     0
 10
41.4694
 20
103.882
 30
0.0
 11
41.4694
 21
106.983
 31
0.0
  0
LINE
  8
0
 62
     0
 10
41.4694
 20
106.983
 30
0.0
 11
40.6686
 21
106.983
 31
0.0
  0
LINE
  8
0
 62
     0
 10
40.6686
 20
106.983
 30
0.0
 11
40.6686
 21
112.781
 31
0.0
  0
LINE
  8
0
 62
     0
 10
40.6686
 20
112.781
 30
0.0
 11
41.4694
 21
112.781
 31
0.0
  0
LINE
  8
0
 62
     0
 10
41.4694
 20
112.781
 30
0.0
 11
41.4694
 21
115.882
 31
0.0
  0
LINE
  8
0
 62
     0
 10
41.4694
 20
115.882
 30
0.0
 11
40.6686
 21
115.882
 31
0.0
  0
LINE
  8
0
 62
     0
 10
40.6686
 20
115.882
 30
0.0
 11
40.6686
 21
116.882
 31
0.0
  0
LINE
  8
0
 62
     0
 10
40.6686
 20
116.882
 30
0.0
 11
26.6692
 21
116.882
 31
0.0
  0
LINE
  8
0
 62
     0
 10
45.7193
 20
116.882
 30
0.0
 11
45.7193
 21
115.882
 31
0.0
  0
LINE
  8
0
 62
     0
 10
45.7193
 20
115.882
 30
0.0
 11
44.9185
 21
115.882
 31
0.0
  0
LINE
  8
0
 62
     0
 10
44.9185
 20
115.882
 30
0.0
 11
44.9185
 21
112.781
 31
0.0
  0
LINE
  8
0
 62
     0
 10
44.9185
 20
112.781
 30
0.0
 11
45.7193
 21
112.781
 31
0.0
  0
LINE
  8
0
 62
     0
 10
45.7193
 20
112.781
 30
0.0
 11
45.7193
 21
106.983
 31
0.0
  0
LINE
  8
0
 62
     0
 10
45.7193
 20
106.983
 30
0.0
 11
44.9185
 21
106.983
 31
0.0
  0
LINE
  8
0
 62
     0
 10
44.9185
 20
106.983
 30
0.0
 11
44.9185
 21
103.882
 31
0.0
  0
LINE
  8
0
 62
     0
 10
44.9185
 20
103.882
 30
0.0
 11
45.7193
 21
103.882
 31
0.0
  0
LINE
  8
0
 62
     0
 10
45.7193
 20
103.882
 30
0.0
 11
45.7193
 21
102.882
 31
0.0
  0
LINE
  8
0
 62
     0
 10
45.7193
 20
102.882
 30
0.0
 11
59.7186
 21
102.882
 31
0.0
  0
LINE
  8
0
 62
     0
 10
59.7186
 20
102.882
 30
0.0
 11
59.7186
 21
103.882
 31
0.0
  0
LINE
  8
0
 62
     0
 10
59.7186
 20
103.882
 30
0.0
 11
60.5194
 21
103.882
 31
0.0
  0
LINE
  8
0
 62
     0
 10
60.5194
 20
103.882
 30
0.0
 11
60.5194
 21
106.983
 31
0.0
  0
LINE
  8
0
 62
     0
 10
60.5194
 20
106.983
 30
0.0
 11
59.7186
 21
106.983
 31
0.0
  0
LINE
  8
0
 62
     0
 10
59.7186
 20
106.983
 30
0.0
 11
59.7186
 21
112.781
 31
0.0
  0
LINE
  8
0
 62
     0
 10
59.7186
 20
112.781
 30
0.0
 11
60.5194
 21
112.781
 31
0.0
  0
LINE
  8
0
 62
     0
 10
60.5194
 20
112.781
 30
0.0
 11
60.5194
 21
115.882
 31
0.0
  0
LINE
  8
0
 62
     0
 10
60.5194
 20
115.882
 30
0.0
 11
59.7186
 21
115.882
 31
0.0
  0
LINE
  8
0
 62
     0
 10
59.7186
 20
115.882
 30
0.0
 11
59.7186
 21
116.882
 31
0.0
  0
LINE
  8
0
 62
     0
 10
59.7186
 20
116.882
 30
0.0
 11
45.7193
 21
116.882
 31
0.0
  0
LINE
  8
0
 62
     0
 10
64.7693
 20
116.882
 30
0.0
 11
64.7693
 21
115.882
 31
0.0
  0
LINE
  8
0
 62
     0
 10
64.7693
 20
115.882
 30
0.0
 11
63.9685
 21
115.882
 31
0.0
  0
LINE
  8
0
 62
     0
 10
63.9685
 20
115.882
 30
0.0
 11
63.9685
 21
112.781
 31
0.0
  0
LINE
  8
0
 62
     0
 10
63.9685
 20
112.781
 30
0.0
 11
64.7693
 21
112.781
 31
0.0
  0
LINE
  8
0
 62
     0
 10
64.7693
 20
112.781
 30
0.0
 11
64.7693
 21
106.983
 31
0.0
  0
LINE
  8
0
 62
     0
 10
64.7693
 20
106.983
 30
0.0
 11
63.9685
 21
106.983
 31
0.0
  0
LINE
  8
0
 62
     0
 10
63.9685
 20
106.983
 30
0.0
 11
63.9685
 21
103.882
 31
0.0
  0
LINE
  8
0
 62
     0
 10
63.9685
 20
103.882
 30
0.0
 11
64.7693
 21
103.882
 31
0.0
  0
LINE
  8
0
 62
     0
 10
64.7693
 20
103.882
 30
0.0
 11
64.7693
 21
102.882
 31
0.0
  0
LINE
  8
0
 62
     0
 10
64.7693
 20
102.882
 30
0.0
 11
78.7686
 21
102.882
 31
0.0
  0
LINE
  8
0
 62
     0
 10
78.7686
 20
102.882
 30
0.0
 11
78.7686
 21
103.882
 31
0.0
  0
LINE
  8
0
 62
     0
 10
78.7686
 20
103.882
 30
0.0
 11
79.5694
 21
103.882
 31
0.0
  0
LINE
  8
0
 62
     0
 10
79.5694
 20
103.882
 30
0.0
 11
79.5694
 21
106.983
 31
0.0
  0
LINE
  8
0
 62
     0
 10
79.5694
 20
106.983
 30
0.0
 11
78.7686
 21
106.983
 31
0.0
  0
LINE
  8
0
 62
     0
 10
78.7686
 20
106.983
 30
0.0
 11
78.7686
 21
112.781
 31
0.0
  0
LINE
  8
0
 62
     0
 10
78.7686
 20
112.781
 30
0.0
 11
79.5694
 21
112.781
 31
0.0
  0
LINE
  8
0
 62
     0
 10
79.5694
 20
112.781
 30
0.0
 11
79.5694
 21
115.882
 31
0.0
  0
LINE
  8
0
 62
     0
 10
79.5694
 20
115.882
 30
0.0
 11
78.7686
 21
115.882
 31
0.0
  0
LINE
  8
0
 62
     0
 10
78.7686
 20
115.882
 30
0.0
 11
78.7686
 21
116.882
 31
0.0
  0
LINE
  8
0
 62
     0
 10
78.7686
 20
116.882
 30
0.0
 11
64.7693
 21
116.882
 31
0.0
  0
LINE
  8
0
 62
     0
 10
83.8193
 20
116.882
 30
0.0
 11
83.8193
 21
115.882
 31
0.0
  0
LINE
  8
0
 62
     0
 10
83.8193
 20
115.882
 30
0.0
 11
83.0185
 21
115.882
 31
0.0
  0
LINE
  8
0
 62
     0
 10
83.0185
 20
115.882
 30
0.0
 11
83.0185
 21
112.781
 31
0.0
  0
LINE
  8
0
 62
     0
 10
83.0185
 20
112.781
 30
0.0
 11
83.8193
 21
112.781
 31
0.0
  0
LINE
  8
0
 62
     0
 10
83.8193
 20
112.781
 30
0.0
 11
83.8193
 21
106.983
 31
0.0
  0
LINE
  8
0
 62
     0
 10
83.8193
 20
106.983
 30
0.0
 11
83.0185
 21
106.983
 31
0.0
  0
LINE
  8
0
 62
     0
 10
83.0185
 20
106.983
 30
0.0
 11
83.0185
 21
103.882
 31
0.0
  0
LINE
  8
0
 62
     0
 10
83.0185
 20
103.882
 30
0.0
 11
83.8193
 21
103.882
 31
0.0
  0
LINE
  8
0
 62
     0
 10
83.8193
 20
103.882
 30
0.0
 11
83.8193
 21
102.882
 31
0.0
  0
LINE
  8
0
 62
     0
 10
83.8193
 20
102.882
 30
0.0
 11
97.8186
 21
102.882
 31
0.0
  0
LINE
  8
0
 62
     0
 10
97.8186
 20
102.882
 30
0.0
 11
97.8186
 21
103.882
 31
0.0
  0
LINE
  8
0
 62
     0
 10
97.8186
 20
103.882
 30
0.0
 11
98.618
 21
103.882
 31
0.0
  0
LINE
  8
0
 62
     0
 10
98.618
 20
103.882
 30
0.0
 11
98.618
 21
106.983
 31
0.0
  0
LINE
  8
0
 62
     0
 10
98.618
 20
106.983
 30
0.0
 11
97.8186
 21
106.983
 31
0.0
  0
LINE
  8
0
 62
     0
 10
97.8186
 20
106.983
 30
0.0
 11
97.8186
 21
112.781
 31
0.0
  0
LINE
  8
0
 62
     0
 10
97.8186
 20
112.781
 30
0.0
 11
98.618
 21
112.781
 31
0.0
  0
LINE
  8
0
 62
     0
 10
98.618
 20
112.781
 30
0.0
 11
98.618
 21
115.882
 31
0.0
  0
LINE
  8
0
 62
     0
 10
98.618
 20
115.882
 30
0.0
 11
97.8186
 21
115.882
 31
0.0
  0
LINE
  8
0
 62
     0
 10
97.8186
 20
115.882
 30
0.0
 11
97.8186
 21
116.882
 31
0.0
  0
LINE
  8
0
 62
     0
 10
97.8186
 20
116.882
 30
0.0
 11
83.8193
 21
116.882
 31
0.0
  0
LINE
  8
0
 62
     0
 10
102.868
 20
116.882
 30
0.0
 11
102.868
 21
115.882
 31
0.0
  0
LINE
  8
0
 62
     0
 10
102.868
 20
115.882
 30
0.0
 11
102.068
 21
115.882
 31
0.0
  0
LINE
  8
0
 62
     0
 10
102.068
 20
115.882
 30
0.0
 11
102.068
 21
112.781
 31
0.0
  0
LINE
  8
0
 62
     0
 10
102.068
 20
112.781
 30
0.0
 11
102.868
 21
112.781
 31
0.0
  0
LINE
  8
0
 62
     0
 10
102.868
 20
112.781
 30
0.0
 11
102.868
 21
106.983
 31
0.0
  0
LINE
  8
0
 62
     0
 10
102.868
 20
106.983
 30
0.0
 11
102.068
 21
106.983
 31
0.0
  0
LINE
  8
0
 62
     0
 10
102.068
 20
106.983
 30
0.0
 11
102.068
 21
103.882
 31
0.0
  0
LINE
  8
0
 62
     0
 10
102.068
 20
103.882
 30
0.0
 11
102.868
 21
103.882
 31
0.0
  0
LINE
  8
0
 62
     0
 10
102.868
 20
103.882
 30
0.0
 11
102.868
 21
102.882
 31
0.0
  0
LINE
  8
0
 62
     0
 10
102.868
 20
102.882
 30
0.0
 11
116.867
 21
102.882
 31
0.0
  0
LINE
  8
0
 62
     0
 10
116.867
 20
102.882
 30
0.0
 11
116.867
 21
103.882
 31
0.0
  0
LINE
  8
0
 62
     0
 10
116.867
 20
103.882
 30
0.0
 11
117.668
 21
103.882
 31
0.0
  0
LINE
  8
0
 62
     0
 10
117.668
 20
103.882
 30
0.0
 11
117.668
 21
106.983
 31
0.0
  0
LINE
  8
0
 62
     0
 10
117.668
 20
106.983
 30
0.0
 11
116.867
 21
106.983
 31
0.0
  0
LINE
  8
0
 62
     0
 10
116.867
 20
106.983
 30
0.0
 11
116.867
 21
112.781
 31
0.0
  0
LINE
  8
0
 62
     0
 10
116.867
 20
112.781
 30
0.0
 11
117.668
 21
112.781
 31
0.0
  0
LINE
  8
0
 62
     0
 10
117.668
 20
112.781
 30
0.0
 11
117.668
 21
115.882
 31
0.0
  0
LINE
  8
0
 62
     0
 10
117.668
 20
115.882
 30
0.0
 11
116.867
 21
115.882
 31
0.0
  0
LINE
  8
0
 62
     0
 10
116.867
 20
115.882
 30
0.0
 11
116.867
 21
116.882
 31
0.0
  0
LINE
  8
0
 62
     0
 10
116.867
 20
116.882
 30
0.0
 11
102.868
 21
116.882
 31
0.0
  0
LINE
  8
0
 62
     0
 10
121.918
 20
116.882
 30
0.0
 11
121.918
 21
115.882
 31
0.0
  0
LINE
  8
0
 62
     0
 10
121.918
 20
115.882
 30
0.0
 11
121.117
 21
115.882
 31
0.0
  0
LINE
  8
0
 62
     0
 10
121.117
 20
115.882
 30
0.0
 11
121.117
 21
112.781
 31
0.0
  0
LINE
  8
0
 62
     0
 10
121.117
 20
112.781
 30
0.0
 11
121.918
 21
112.781
 31
0.0
  0
LINE
  8
0
 62
     0
 10
121.918
 20
112.781
 30
0.0
 11
121.918
 21
106.983
 31
0.0
  0
LINE
  8
0
 62
     0
 10
121.918
 20
106.983
 30
0.0
 11
121.117
 21
106.983
 31
0.0
  0
LINE
  8
0
 62
     0
 10
121.117
 20
106.983
 30
0.0
 11
121.117
 21
103.882
 31
0.0
  0
LINE
  8
0
 62
     0
 10
121.117
 20
103.882
 30
0.0
 11
121.918
 21
103.882
 31
0.0
  0
LINE
  8
0
 62
     0
 10
121.918
 20
103.882
 30
0.0
 11
121.918
 21
102.882
 31
0.0
  0
LINE
  8
0
 62
     0
 10
121.918
 20
102.882
 30
0.0
 11
135.919
 21
102.882
 31
0.0
  0
LINE
  8
0
 62
     0
 10
135.919
 20
102.882
 30
0.0
 11
135.919
 21
103.882
 31
0.0
  0
LINE
  8
0
 62
     0
 10
135.919
 20
103.882
 30
0.0
 11
136.719
 21
103.882
 31
0.0
  0
LINE
  8
0
 62
     0
 10
136.719
 20
103.882
 30
0.0
 11
136.719
 21
106.983
 31
0.0
  0
LINE
  8
0
 62
     0
 10
136.719
 20
106.983
 30
0.0
 11
135.919
 21
106.983
 31
0.0
  0
LINE
  8
0
 62
     0
 10
135.919
 20
106.983
 30
0.0
 11
135.919
 21
112.781
 31
0.0
  0
LINE
  8
0
 62
     0
 10
135.919
 20
112.781
 30
0.0
 11
136.719
 21
112.781
 31
0.0
  0
LINE
  8
0
 62
     0
 10
136.719
 20
112.781
 30
0.0
 11
136.719
 21
115.882
 31
0.0
  0
LINE
  8
0
 62
     0
 10
136.719
 20
115.882
 30
0.0
 11
135.919
 21
115.882
 31
0.0
  0
LINE
  8
0
 62
     0
 10
135.919
 20
115.882
 30
0.0
 11
135.919
 21
116.882
 31
0.0
  0
LINE
  8
0
 62
     0
 10
135.919
 20
116.882
 30
0.0
 11
121.918
 21
116.882
 31
0.0
  0
LINE
  8
0
 62
     0
 10
140.969
 20
116.882
 30
0.0
 11
140.969
 21
115.882
 31
0.0
  0
LINE
  8
0
 62
     0
 10
140.969
 20
115.882
 30
0.0
 11
140.168
 21
115.882
 31
0.0
  0
LINE
  8
0
 62
     0
 10
140.168
 20
115.882
 30
0.0
 11
140.168
 21
112.781
 31
0.0
  0
LINE
  8
0
 62
     0
 10
140.168
 20
112.781
 30
0.0
 11
140.969
 21
112.781
 31
0.0
  0
LINE
  8
0
 62
     0
 10
140.969
 20
112.781
 30
0.0
 11
140.969
 21
106.983
 31
0.0
  0
LINE
  8
0
 62
     0
 10
140.969
 20
106.983
 30
0.0
 11
140.168
 21
106.983
 31
0.0
  0
LINE
  8
0
 62
     0
 10
140.168
 20
106.983
 30
0.0
 11
140.168
 21
103.882
 31
0.0
  0
LINE
  8
0
 62
     0
 10
140.168
 20
103.882
 30
0.0
 11
140.969
 21
103.882
 31
0.0
  0
LINE
  8
0
 62
     0
 10
140.969
 20
103.882
 30
0.0
 11
140.969
 21
102.882
 31
0.0
  0
LINE
  8
0
 62
     0
 10
140.969
 20
102.882
 30
0.0
 11
154.969
 21
102.882
 31
0.0
  0
LINE
  8
0
 62
     0
 10
154.969
 20
102.882
 30
0.0
 11
154.969
 21
103.882
 31
0.0
  0
LINE
  8
0
 62
     0
 10
154.969
 20
103.882
 30
0.0
 11
155.769
 21
103.882
 31
0.0
  0
LINE
  8
0
 62
     0
 10
155.769
 20
103.882
 30
0.0
 11
155.769
 21
106.983
 31
0.0
  0
LINE
  8
0
 62
     0
 10
155.769
 20
106.983
 30
0.0
 11
154.969
 21
106.983
 31
0.0
  0
LINE
  8
0
 62
     0
 10
154.969
 20
106.983
 30
0.0
 11
154.969
 21
112.781
 31
0.0
  0
LINE
  8
0
 62
     0
 10
154.969
 20
112.781
 30
0.0
 11
155.769
 21
112.781
 31
0.0
  0
LINE
  8
0
 62
     0
 10
155.769
 20
112.781
 30
0.0
 11
155.769
 21
115.882
 31
0.0
  0
LINE
  8
0
 62
     0
 10
155.769
 20
115.882
 30
0.0
 11
154.969
 21
115.882
 31
0.0
  0
LINE
  8
0
 62
     0
 10
154.969
 20
115.882
 30
0.0
 11
154.969
 21
116.882
 31
0.0
  0
LINE
  8
0
 62
     0
 10
154.969
 20
116.882
 30
0.0
 11
140.969
 21
116.882
 31
0.0
  0
LINE
  8
0
 62
     0
 10
160.019
 20
116.882
 30
0.0
 11
160.019
 21
115.882
 31
0.0
  0
LINE
  8
0
 62
     0
 10
160.019
 20
115.882
 30
0.0
 11
159.218
 21
115.882
 31
0.0
  0
LINE
  8
0
 62
     0
 10
159.218
 20
115.882
 30
0.0
 11
159.218
 21
112.781
 31
0.0
  0
LINE
  8
0
 62
     0
 10
159.218
 20
112.781
 30
0.0
 11
160.019
 21
112.781
 31
0.0
  0
LINE
  8
0
 62
     0
 10
160.019
 20
112.781
 30
0.0
 11
160.019
 21
106.983
 31
0.0
  0
LINE
  8
0
 62
     0
 10
160.019
 20
106.983
 30
0.0
 11
159.218
 21
106.983
 31
0.0
  0
LINE
  8
0
 62
     0
 10
159.218
 20
106.983
 30
0.0
 11
159.218
 21
103.882
 31
0.0
  0
LINE
  8
0
 62
     0
 10
159.218
 20
103.882
 30
0.0
 11
160.019
 21
103.882
 31
0.0
  0
LINE
  8
0
 62
     0
 10
160.019
 20
103.882
 30
0.0
 11
160.019
 21
102.882
 31
0.0
  0
LINE
  8
0
 62
     0
 10
160.019
 20
102.882
 30
0.0
 11
174.019
 21
102.882
 31
0.0
  0
LINE
  8
0
 62
     0
 10
174.019
 20
102.882
 30
0.0
 11
174.019
 21
103.882
 31
0.0
  0
LINE
  8
0
 62
     0
 10
174.019
 20
103.882
 30
0.0
 11
174.819
 21
103.882
 31
0.0
  0
LINE
  8
0
 62
     0
 10
174.819
 20
103.882
 30
0.0
 11
174.819
 21
106.983
 31
0.0
  0
LINE
  8
0
 62
     0
 10
174.819
 20
106.983
 30
0.0
 11
174.019
 21
106.983
 31
0.0
  0
LINE
  8
0
 62
     0
 10
174.019
 20
106.983
 30
0.0
 11
174.019
 21
112.781
 31
0.0
  0
LINE
  8
0
 62
     0
 10
174.019
 20
112.781
 30
0.0
 11
174.819
 21
112.781
 31
0.0
  0
LINE
  8
0
 62
     0
 10
174.819
 20
112.781
 30
0.0
 11
174.819
 21
115.882
 31
0.0
  0
LINE
  8
0
 62
     0
 10
174.819
 20
115.882
 30
0.0
 11
174.019
 21
115.882
 31
0.0
  0
LINE
  8
0
 62
     0
 10
174.019
 20
115.882
 30
0.0
 11
174.019
 21
116.882
 31
0.0
  0
LINE
  8
0
 62
     0
 10
174.019
 20
116.882
 30
0.0
 11
160.019
 21
116.882
 31
0.0
  0
LINE
  8
0
 62
     0
 10
179.069
 20
116.882
 30
0.0
 11
179.069
 21
115.882
 31
0.0
  0
LINE
  8
0
 62
     0
 10
179.069
 20
115.882
 30
0.0
 11
178.268
 21
115.882
 31
0.0
  0
LINE
  8
0
 62
     0
 10
178.268
 20
115.882
 30
0.0
 11
178.268
 21
112.781
 31
0.0
  0
LINE
  8
0
 62
     0
 10
178.268
 20
112.781
 30
0.0
 11
179.069
 21
112.781
 31
0.0
  0
LINE
  8
0
 62
     0
 10
179.069
 20
112.781
 30
0.0
 11
179.069
 21
106.983
 31
0.0
  0
LINE
  8
0
 62
     0
 10
179.069
 20
106.983
 30
0.0
 11
178.268
 21
106.983
 31
0.0
  0
LINE
  8
0
 62
     0
 10
178.268
 20
106.983
 30
0.0
 11
178.268
 21
103.882
 31
0.0
  0
LINE
  8
0
 62
     0
 10
178.268
 20
103.882
 30
0.0
 11
179.069
 21
103.882
 31
0.0
  0
LINE
  8
0
 62
     0
 10
179.069
 20
103.882
 30
0.0
 11
179.069
 21
102.882
 31
0.0
  0
LINE
  8
0
 62
     0
 10
179.069
 20
102.882
 30
0.0
 11
193.069
 21
102.882
 31
0.0
  0
LINE
  8
0
 62
     0
 10
193.069
 20
102.882
 30
0.0
 11
193.069
 21
103.882
 31
0.0
  0
LINE
  8
0
 62
     0
 10
193.069
 20
103.882
 30
0.0
 11
193.869
 21
103.882
 31
0.0
  0
LINE
  8
0
 62
     0
 10
193.869
 20
103.882
 30
0.0
 11
193.869
 21
106.983
 31
0.0
  0
LINE
  8
0
 62
     0
 10
193.869
 20
106.983
 30
0.0
 11
193.069
 21
106.983
 31
0.0
  0
LINE
  8
0
 62
     0
 10
193.069
 20
106.983
 30
0.0
 11
193.069
 21
112.781
 31
0.0
  0
LINE
  8
0
 62
     0
 10
193.069
 20
112.781
 30
0.0
 11
193.869
 21
112.781
 31
0.0
  0
LINE
  8
0
 62
     0
 10
193.869
 20
112.781
 30
0.0
 11
193.869
 21
115.882
 31
0.0
  0
LINE
  8
0
 62
     0
 10
193.869
 20
115.882
 30
0.0
 11
193.069
 21
115.882
 31
0.0
  0
LINE
  8
0
 62
     0
 10
193.069
 20
115.882
 30
0.0
 11
193.069
 21
116.882
 31
0.0
  0
LINE
  8
0
 62
     0
 10
193.069
 20
116.882
 30
0.0
 11
179.069
 21
116.882
 31
0.0
  0
LINE
  8
0
 62
     0
 10
198.119
 20
116.882
 30
0.0
 11
198.119
 21
115.882
 31
0.0
  0
LINE
  8
0
 62
     0
 10
198.119
 20
115.882
 30
0.0
 11
197.318
 21
115.882
 31
0.0
  0
LINE
  8
0
 62
     0
 10
197.318
 20
115.882
 30
0.0
 11
197.318
 21
112.781
 31
0.0
  0
LINE
  8
0
 62
     0
 10
197.318
 20
112.781
 30
0.0
 11
198.119
 21
112.781
 31
0.0
  0
LINE
  8
0
 62
     0
 10
198.119
 20
112.781
 30
0.0
 11
198.119
 21
106.983
 31
0.0
  0
LINE
  8
0
 62
     0
 10
198.119
 20
106.983
 30
0.0
 11
197.318
 21
106.983
 31
0.0
  0
LINE
  8
0
 62
     0
 10
197.318
 20
106.983
 30
0.0
 11
197.318
 21
103.882
 31
0.0
  0
LINE
  8
0
 62
     0
 10
197.318
 20
103.882
 30
0.0
 11
198.119
 21
103.882
 31
0.0
  0
LINE
  8
0
 62
     0
 10
198.119
 20
103.882
 30
0.0
 11
198.119
 21
102.882
 31
0.0
  0
LINE
  8
0
 62
     0
 10
198.119
 20
102.882
 30
0.0
 11
212.119
 21
102.882
 31
0.0
  0
LINE
  8
0
 62
     0
 10
212.119
 20
102.882
 30
0.0
 11
212.119
 21
103.882
 31
0.0
  0
LINE
  8
0
 62
     0
 10
212.119
 20
103.882
 30
0.0
 11
212.919
 21
103.882
 31
0.0
  0
LINE
  8
0
 62
     0
 10
212.919
 20
103.882
 30
0.0
 11
212.919
 21
106.983
 31
0.0
  0
LINE
  8
0
 62
     0
 10
212.919
 20
106.983
 30
0.0
 11
212.119
 21
106.983
 31
0.0
  0
LINE
  8
0
 62
     0
 10
212.119
 20
106.983
 30
0.0
 11
212.119
 21
112.781
 31
0.0
  0
LINE
  8
0
 62
     0
 10
212.119
 20
112.781
 30
0.0
 11
212.919
 21
112.781
 31
0.0
  0
LINE
  8
0
 62
     0
 10
212.919
 20
112.781
 30
0.0
 11
212.919
 21
115.882
 31
0.0
  0
LINE
  8
0
 62
     0
 10
212.919
 20
115.882
 30
0.0
 11
212.119
 21
115.882
 31
0.0
  0
LINE
  8
0
 62
     0
 10
212.119
 20
115.882
 30
0.0
 11
212.119
 21
116.882
 31
0.0
  0
LINE
  8
0
 62
     0
 10
212.119
 20
116.882
 30
0.0
 11
198.119
 21
116.882
 31
0.0
  0
LINE
  8
0
 62
     0
 10
217.169
 20
116.882
 30
0.0
 11
217.169
 21
115.882
 31
0.0
  0
LINE
  8
0
 62
     0
 10
217.169
 20
115.882
 30
0.0
 11
216.368
 21
115.882
 31
0.0
  0
LINE
  8
0
 62
     0
 10
216.368
 20
115.882
 30
0.0
 11
216.368
 21
112.781
 31
0.0
  0
LINE
  8
0
 62
     0
 10
216.368
 20
112.781
 30
0.0
 11
217.169
 21
112.781
 31
0.0
  0
LINE
  8
0
 62
     0
 10
217.169
 20
112.781
 30
0.0
 11
217.169
 21
106.983
 31
0.0
  0
LINE
  8
0
 62
     0
 10
217.169
 20
106.983
 30
0.0
 11
216.368
 21
106.983
 31
0.0
  0
LINE
  8
0
 62
     0
 10
216.368
 20
106.983
 30
0.0
 11
216.368
 21
103.882
 31
0.0
  0
LINE
  8
0
 62
     0
 10
216.368
 20
103.882
 30
0.0
 11
217.169
 21
103.882
 31
0.0
  0
LINE
  8
0
 62
     0
 10
217.169
 20
103.882
 30
0.0
 11
217.169
 21
102.882
 31
0.0
  0
LINE
  8
0
 62
     0
 10
217.169
 20
102.882
 30
0.0
 11
231.169
 21
102.882
 31
0.0
  0
LINE
  8
0
 62
     0
 10
231.169
 20
102.882
 30
0.0
 11
231.169
 21
103.882
 31
0.0
  0
LINE
  8
0
 62
     0
 10
231.169
 20
103.882
 30
0.0
 11
231.969
 21
103.882
 31
0.0
  0
LINE
  8
0
 62
     0
 10
231.969
 20
103.882
 30
0.0
 11
231.969
 21
106.983
 31
0.0
  0
LINE
  8
0
 62
     0
 10
231.969
 20
106.983
 30
0.0
 11
231.169
 21
106.983
 31
0.0
  0
LINE
  8
0
 62
     0
 10
231.169
 20
106.983
 30
0.0
 11
231.169
 21
112.781
 31
0.0
  0
LINE
  8
0
 62
     0
 10
231.169
 20
112.781
 30
0.0
 11
231.969
 21
112.781
 31
0.0
  0
LINE
  8
0
 62
     0
 10
231.969
 20
112.781
 30
0.0
 11
231.969
 21
115.882
 31
0.0
  0
LINE
  8
0
 62
     0
 10
231.969
 20
115.882
 30
0.0
 11
231.169
 21
115.882
 31
0.0
  0
LINE
  8
0
 62
     0
 10
231.169
 20
115.882
 30
0.0
 11
231.169
 21
116.882
 31
0.0
  0
LINE
  8
0
 62
     0
 10
231.169
 20
116.882
 30
0.0
 11
217.169
 21
116.882
 31
0.0
  0
LINE
  8
0
 62
     0
 10
236.219
 20
116.882
 30
0.0
 11
236.219
 21
115.882
 31
0.0
  0
LINE
  8
0
 62
     0
 10
236.219
 20
115.882
 30
0.0
 11
235.418
 21
115.882
 31
0.0
  0
LINE
  8
0
 62
     0
 10
235.418
 20
115.882
 30
0.0
 11
235.418
 21
112.781
 31
0.0
  0
LINE
  8
0
 62
     0
 10
235.418
 20
112.781
 30
0.0
 11
236.219
 21
112.781
 31
0.0
  0
LINE
  8
0
 62
     0
 10
236.219
 20
112.781
 30
0.0
 11
236.219
 21
106.983
 31
0.0
  0
LINE
  8
0
 62
     0
 10
236.219
 20
106.983
 30
0.0
 11
235.418
 21
106.983
 31
0.0
  0
LINE
  8
0
 62
     0
 10
235.418
 20
106.983
 30
0.0
 11
235.418
 21
103.882
 31
0.0
  0
LINE
  8
0
 62
     0
 10
235.418
 20
103.882
 30
0.0
 11
236.219
 21
103.882
 31
0.0
  0
LINE
  8
0
 62
     0
 10
236.219
 20
103.882
 30
0.0
 11
236.219
 21
102.882
 31
0.0
  0
LINE
  8
0
 62
     0
 10
236.219
 20
102.882
 30
0.0
 11
250.219
 21
102.882
 31
0.0
  0
LINE
  8
0
 62
     0
 10
250.219
 20
102.882
 30
0.0
 11
250.219
 21
103.882
 31
0.0
  0
LINE
  8
0
 62
     0
 10
250.219
 20
103.882
 30
0.0
 11
251.019
 21
103.882
 31
0.0
  0
LINE
  8
0
 62
     0
 10
251.019
 20
103.882
 30
0.0
 11
251.019
 21
106.983
 31
0.0
  0
LINE
  8
0
 62
     0
 10
251.019
 20
106.983
 30
0.0
 11
250.219
 21
106.983
 31
0.0
  0
LINE
  8
0
 62
     0
 10
250.219
 20
106.983
 30
0.0
 11
250.219
 21
112.781
 31
0.0
  0
LINE
  8
0
 62
     0
 10
250.219
 20
112.781
 30
0.0
 11
251.019
 21
112.781
 31
0.0
  0
LINE
  8
0
 62
     0
 10
251.019
 20
112.781
 30
0.0
 11
251.019
 21
115.882
 31
0.0
  0
LINE
  8
0
 62
     0
 10
251.019
 20
115.882
 30
0.0
 11
250.219
 21
115.882
 31
0.0
  0
LINE
  8
0
 62
     0
 10
250.219
 20
115.882
 30
0.0
 11
250.219
 21
116.882
 31
0.0
  0
LINE
  8
0
 62
     0
 10
250.219
 20
116.882
 30
0.0
 11
236.219
 21
116.882
 31
0.0
  0
LINE
  8
0
 62
     0
 10
255.269
 20
116.882
 30
0.0
 11
255.269
 21
115.882
 31
0.0
  0
LINE
  8
0
 62
     0
 10
255.269
 20
115.882
 30
0.0
 11
254.468
 21
115.882
 31
0.0
  0
LINE
  8
0
 62
     0
 10
254.468
 20
115.882
 30
0.0
 11
254.468
 21
112.781
 31
0.0
  0
LINE
  8
0
 62
     0
 10
254.468
 20
112.781
 30
0.0
 11
255.269
 21
112.781
 31
0.0
  0
LINE
  8
0
 62
     0
 10
255.269
 20
112.781
 30
0.0
 11
255.269
 21
106.983
 31
0.0
  0
LINE
  8
0
 62
     0
 10
255.269
 20
106.983
 30
0.0
 11
254.468
 21
106.983
 31
0.0
  0
LINE
  8
0
 62
     0
 10
254.468
 20
106.983
 30
0.0
 11
254.468
 21
103.882
 31
0.0
  0
LINE
  8
0
 62
     0
 10
254.468
 20
103.882
 30
0.0
 11
255.269
 21
103.882
 31
0.0
  0
LINE
  8
0
 62
     0
 10
255.269
 20
103.882
 30
0.0
 11
255.269
 21
102.882
 31
0.0
  0
LINE
  8
0
 62
     0
 10
255.269
 20
102.882
 30
0.0
 11
269.269
 21
102.882
 31
0.0
  0
LINE
  8
0
 62
     0
 10
269.269
 20
102.882
 30
0.0
 11
269.269
 21
103.882
 31
0.0
  0
LINE
  8
0
 62
     0
 10
269.269
 20
103.882
 30
0.0
 11
270.069
 21
103.882
 31
0.0
  0
LINE
  8
0
 62
     0
 10
270.069
 20
103.882
 30
0.0
 11
270.069
 21
106.983
 31
0.0
  0
LINE
  8
0
 62
     0
 10
270.069
 20
106.983
 30
0.0
 11
269.269
 21
106.983
 31
0.0
  0
LINE
  8
0
 62
     0
 10
269.269
 20
106.983
 30
0.0
 11
269.269
 21
112.781
 31
0.0
  0
LINE
  8
0
 62
     0
 10
269.269
 20
112.781
 30
0.0
 11
270.069
 21
112.781
 31
0.0
  0
LINE
  8
0
 62
     0
 10
270.069
 20
112.781
 30
0.0
 11
270.069
 21
115.882
 31
0.0
  0
LINE
  8
0
 62
     0
 10
270.069
 20
115.882
 30
0.0
 11
269.269
 21
115.882
 31
0.0
  0
LINE
  8
0
 62
     0
 10
269.269
 20
115.882
 30
0.0
 11
269.269
 21
116.882
 31
0.0
  0
LINE
  8
0
 62
     0
 10
269.269
 20
116.882
 30
0.0
 11
255.269
 21
116.882
 31
0.0
  0
LINE
  8
0
 62
     0
 10
274.319
 20
116.882
 30
0.0
 11
274.319
 21
115.882
 31
0.0
  0
LINE
  8
0
 62
     0
 10
274.319
 20
115.882
 30
0.0
 11
273.518
 21
115.882
 31
0.0
  0
LINE
  8
0
 62
     0
 10
273.518
 20
115.882
 30
0.0
 11
273.518
 21
112.781
 31
0.0
  0
LINE
  8
0
 62
     0
 10
273.518
 20
112.781
 30
0.0
 11
274.319
 21
112.781
 31
0.0
  0
LINE
  8
0
 62
     0
 10
274.319
 20
112.781
 30
0.0
 11
274.319
 21
106.983
 31
0.0
  0
LINE
  8
0
 62
     0
 10
274.319
 20
106.983
 30
0.0
 11
273.518
 21
106.983
 31
0.0
  0
LINE
  8
0
 62
     0
 10
273.518
 20
106.983
 30
0.0
 11
273.518
 21
103.882
 31
0.0
  0
LINE
  8
0
 62
     0
 10
273.518
 20
103.882
 30
0.0
 11
274.319
 21
103.882
 31
0.0
  0
LINE
  8
0
 62
     0
 10
274.319
 20
103.882
 30
0.0
 11
274.319
 21
102.882
 31
0.0
  0
LINE
  8
0
 62
     0
 10
274.319
 20
102.882
 30
0.0
 11
288.319
 21
102.882
 31
0.0
  0
LINE
  8
0
 62
     0
 10
288.319
 20
102.882
 30
0.0
 11
288.319
 21
103.882
 31
0.0
  0
LINE
  8
0
 62
     0
 10
288.319
 20
103.882
 30
0.0
 11
289.119
 21
103.882
 31
0.0
  0
LINE
  8
0
 62
     0
 10
289.119
 20
103.882
 30
0.0
 11
289.119
 21
106.983
 31
0.0
  0
LINE
  8
0
 62
     0
 10
289.119
 20
106.983
 30
0.0
 11
288.319
 21
106.983
 31
0.0
  0
LINE
  8
0
 62
     0
 10
288.319
 20
106.983
 30
0.0
 11
288.319
 21
112.781
 31
0.0
  0
LINE
  8
0
 62
     0
 10
288.319
 20
112.781
 30
0.0
 11
289.119
 21
112.781
 31
0.0
  0
LINE
  8
0
 62
     0
 10
289.119
 20
112.781
 30
0.0
 11
289.119
 21
115.882
 31
0.0
  0
LINE
  8
0
 62
     0
 10
289.119
 20
115.882
 30
0.0
 11
288.319
 21
115.882
 31
0.0
  0
LINE
  8
0
 62
     0
 10
288.319
 20
115.882
 30
0.0
 11
288.319
 21
116.882
 31
0.0
  0
LINE
  8
0
 62
     0
 10
288.319
 20
116.882
 30
0.0
 11
274.319
 21
116.882
 31
0.0
  0
ENDSEC
  0
EOF
